%FSLAX45Y45*%
G04 Gerber Fmt 4.5, Leading zero omitted, Abs format (unit mm)*
G04 Created by KiCad (PCBNEW (5.1.6)-1) date 2021-05-10 23:03:25*
%MOMM*%
%LPD*%
G01*
G04 APERTURE LIST*
%TA.AperFunction,Profile*%
%ADD10C,0.050000*%
%TD*%
%ADD11C,0.200000*%
%ADD12C,0.300000*%
G04 APERTURE END LIST*
D10*
X18935700Y-11493500D02*
X18935700Y-5207000D01*
X8890000Y-11493500D02*
X18935700Y-11493500D01*
X8890000Y-5207000D02*
X8890000Y-11493500D01*
X18935700Y-5207000D02*
X8890000Y-5207000D01*
D11*
X9124000Y-9276400D02*
X9164000Y-9316400D01*
X9164000Y-9276400D02*
X9124000Y-9316400D01*
X9251000Y-6203000D02*
X9291000Y-6243000D01*
X9291000Y-6203000D02*
X9251000Y-6243000D01*
X9378000Y-8108000D02*
X9418000Y-8148000D01*
X9418000Y-8108000D02*
X9378000Y-8148000D01*
X9535480Y-9273860D02*
X9575480Y-9313860D01*
X9575480Y-9273860D02*
X9535480Y-9313860D01*
X9600250Y-6247450D02*
X9640250Y-6287450D01*
X9640250Y-6247450D02*
X9600250Y-6287450D01*
X9759000Y-8171500D02*
X9799000Y-8211500D01*
X9799000Y-8171500D02*
X9759000Y-8211500D01*
X9759000Y-11283000D02*
X9799000Y-11323000D01*
X9799000Y-11283000D02*
X9759000Y-11323000D01*
X9870000Y-10537000D02*
X9910000Y-10577000D01*
X9910000Y-10537000D02*
X9870000Y-10577000D01*
X9964740Y-8466140D02*
X10004740Y-8506140D01*
X10004740Y-8466140D02*
X9964740Y-8506140D01*
X10432100Y-6209350D02*
X10472100Y-6249350D01*
X10472100Y-6209350D02*
X10432100Y-6249350D01*
X10457500Y-5701350D02*
X10497500Y-5741350D01*
X10497500Y-5701350D02*
X10457500Y-5741350D01*
X10921050Y-5885500D02*
X10961050Y-5925500D01*
X10961050Y-5885500D02*
X10921050Y-5925500D01*
X10965500Y-6164900D02*
X11005500Y-6204900D01*
X11005500Y-6164900D02*
X10965500Y-6204900D01*
X11054400Y-6634800D02*
X11094400Y-6674800D01*
X11094400Y-6634800D02*
X11054400Y-6674800D01*
X11410000Y-11283000D02*
X11450000Y-11323000D01*
X11450000Y-11283000D02*
X11410000Y-11323000D01*
X11733850Y-6095050D02*
X11773850Y-6135050D01*
X11773850Y-6095050D02*
X11733850Y-6135050D01*
X11752900Y-8044500D02*
X11792900Y-8084500D01*
X11792900Y-8044500D02*
X11752900Y-8084500D01*
X11791000Y-7139100D02*
X11831000Y-7179100D01*
X11831000Y-7139100D02*
X11791000Y-7179100D01*
X11791000Y-8870000D02*
X11831000Y-8910000D01*
X11831000Y-8870000D02*
X11791000Y-8910000D01*
X11797350Y-7358700D02*
X11837350Y-7398700D01*
X11837350Y-7358700D02*
X11797350Y-7398700D01*
X11867200Y-8279450D02*
X11907200Y-8319450D01*
X11907200Y-8279450D02*
X11867200Y-8319450D01*
X12010075Y-5552125D02*
X12050075Y-5592125D01*
X12050075Y-5552125D02*
X12010075Y-5592125D01*
X12045000Y-8362000D02*
X12085000Y-8402000D01*
X12085000Y-8362000D02*
X12045000Y-8402000D01*
X12172000Y-5695000D02*
X12212000Y-5735000D01*
X12212000Y-5695000D02*
X12172000Y-5735000D01*
X12191050Y-7511100D02*
X12231050Y-7551100D01*
X12231050Y-7511100D02*
X12191050Y-7551100D01*
X12235500Y-6603050D02*
X12275500Y-6643050D01*
X12275500Y-6603050D02*
X12235500Y-6643050D01*
X12248200Y-7784150D02*
X12288200Y-7824150D01*
X12288200Y-7784150D02*
X12248200Y-7824150D01*
X12299000Y-7092000D02*
X12339000Y-7132000D01*
X12339000Y-7092000D02*
X12299000Y-7132000D01*
X12426000Y-9759000D02*
X12466000Y-9799000D01*
X12466000Y-9759000D02*
X12426000Y-9799000D01*
X12426000Y-10775000D02*
X12466000Y-10815000D01*
X12466000Y-10775000D02*
X12426000Y-10815000D01*
X12546650Y-6825300D02*
X12586650Y-6865300D01*
X12586650Y-6825300D02*
X12546650Y-6865300D01*
X12553000Y-7981000D02*
X12593000Y-8021000D01*
X12593000Y-7981000D02*
X12553000Y-8021000D01*
X12692700Y-10089200D02*
X12732700Y-10129200D01*
X12732700Y-10089200D02*
X12692700Y-10129200D01*
X12705400Y-9816150D02*
X12745400Y-9856150D01*
X12745400Y-9816150D02*
X12705400Y-9856150D01*
X12787950Y-8863650D02*
X12827950Y-8903650D01*
X12827950Y-8863650D02*
X12787950Y-8903650D01*
X12807000Y-9714550D02*
X12847000Y-9754550D01*
X12847000Y-9714550D02*
X12807000Y-9754550D01*
X12807000Y-10648000D02*
X12847000Y-10688000D01*
X12847000Y-10648000D02*
X12807000Y-10688000D01*
X12946700Y-9282750D02*
X12986700Y-9322750D01*
X12986700Y-9282750D02*
X12946700Y-9322750D01*
X13010200Y-9181150D02*
X13050200Y-9221150D01*
X13050200Y-9181150D02*
X13010200Y-9221150D01*
X13061000Y-5314000D02*
X13101000Y-5354000D01*
X13101000Y-5314000D02*
X13061000Y-5354000D01*
X13194279Y-10387721D02*
X13234279Y-10427721D01*
X13234279Y-10387721D02*
X13194279Y-10427721D01*
X13239252Y-7497921D02*
X13279252Y-7537921D01*
X13279252Y-7497921D02*
X13239252Y-7537921D01*
X13295950Y-9670100D02*
X13335950Y-9710100D01*
X13335950Y-9670100D02*
X13295950Y-9710100D01*
X13442000Y-6838000D02*
X13482000Y-6878000D01*
X13482000Y-6838000D02*
X13442000Y-6878000D01*
X13797600Y-7273500D02*
X13837600Y-7313500D01*
X13837600Y-7273500D02*
X13797600Y-7313500D01*
X13889675Y-7482525D02*
X13929675Y-7522525D01*
X13929675Y-7482525D02*
X13889675Y-7522525D01*
X13943650Y-9022400D02*
X13983650Y-9062400D01*
X13983650Y-9022400D02*
X13943650Y-9062400D01*
X13964675Y-7098350D02*
X14004675Y-7138350D01*
X14004675Y-7098350D02*
X13964675Y-7138350D01*
X13981750Y-7187250D02*
X14021750Y-7227250D01*
X14021750Y-7187250D02*
X13981750Y-7227250D01*
X13981750Y-10400350D02*
X14021750Y-10440350D01*
X14021750Y-10400350D02*
X13981750Y-10440350D01*
X14000800Y-7541650D02*
X14040800Y-7581650D01*
X14040800Y-7541650D02*
X14000800Y-7581650D01*
X14115851Y-6679167D02*
X14155851Y-6719167D01*
X14155851Y-6679167D02*
X14115851Y-6719167D01*
X14191300Y-10038400D02*
X14231300Y-10078400D01*
X14231300Y-10038400D02*
X14191300Y-10078400D01*
X14261150Y-8908100D02*
X14301150Y-8948100D01*
X14301150Y-8908100D02*
X14261150Y-8948100D01*
X14311950Y-10451150D02*
X14351950Y-10491150D01*
X14351950Y-10451150D02*
X14311950Y-10491150D01*
X14350050Y-8844600D02*
X14390050Y-8884600D01*
X14390050Y-8844600D02*
X14350050Y-8884600D01*
X14546900Y-10101900D02*
X14586900Y-10141900D01*
X14586900Y-10101900D02*
X14546900Y-10141900D01*
X14553250Y-10819450D02*
X14593250Y-10859450D01*
X14593250Y-10819450D02*
X14553250Y-10859450D01*
X14565950Y-9378000D02*
X14605950Y-9418000D01*
X14605950Y-9378000D02*
X14565950Y-9418000D01*
X14578650Y-6755450D02*
X14618650Y-6795450D01*
X14618650Y-6755450D02*
X14578650Y-6795450D01*
X14578650Y-8237500D02*
X14618650Y-8277500D01*
X14618650Y-8237500D02*
X14578650Y-8277500D01*
X14661200Y-7955600D02*
X14701200Y-7995600D01*
X14701200Y-7955600D02*
X14661200Y-7995600D01*
X14686600Y-7511100D02*
X14726600Y-7551100D01*
X14726600Y-7511100D02*
X14686600Y-7551100D01*
X14704835Y-8517173D02*
X14744835Y-8557173D01*
X14744835Y-8517173D02*
X14704835Y-8557173D01*
X14750100Y-7019500D02*
X14790100Y-7059500D01*
X14790100Y-7019500D02*
X14750100Y-7059500D01*
X14775500Y-6780850D02*
X14815500Y-6820850D01*
X14815500Y-6780850D02*
X14775500Y-6820850D01*
X14788200Y-8382500D02*
X14828200Y-8422500D01*
X14828200Y-8382500D02*
X14788200Y-8422500D01*
X14839000Y-10013000D02*
X14879000Y-10053000D01*
X14879000Y-10013000D02*
X14839000Y-10053000D01*
X14966000Y-5695000D02*
X15006000Y-5735000D01*
X15006000Y-5695000D02*
X14966000Y-5735000D01*
X15372400Y-7955600D02*
X15412400Y-7995600D01*
X15412400Y-7955600D02*
X15372400Y-7995600D01*
X15423200Y-8082600D02*
X15463200Y-8122600D01*
X15463200Y-8082600D02*
X15423200Y-8122600D01*
X15493050Y-7561900D02*
X15533050Y-7601900D01*
X15533050Y-7561900D02*
X15493050Y-7601900D01*
X15529880Y-7185980D02*
X15569880Y-7225980D01*
X15569880Y-7185980D02*
X15529880Y-7225980D01*
X15569250Y-6799900D02*
X15609250Y-6839900D01*
X15609250Y-6799900D02*
X15569250Y-6839900D01*
X15588300Y-9181150D02*
X15628300Y-9221150D01*
X15628300Y-9181150D02*
X15588300Y-9221150D01*
X15601000Y-8616000D02*
X15641000Y-8656000D01*
X15641000Y-8616000D02*
X15601000Y-8656000D01*
X15670850Y-6888800D02*
X15710850Y-6928800D01*
X15710850Y-6888800D02*
X15670850Y-6928800D01*
X15677200Y-7168200D02*
X15717200Y-7208200D01*
X15717200Y-7168200D02*
X15677200Y-7208200D01*
X15728000Y-10902000D02*
X15768000Y-10942000D01*
X15768000Y-10902000D02*
X15728000Y-10942000D01*
X15734350Y-6107750D02*
X15774350Y-6147750D01*
X15774350Y-6107750D02*
X15734350Y-6147750D01*
X15855000Y-5441000D02*
X15895000Y-5481000D01*
X15895000Y-5441000D02*
X15855000Y-5481000D01*
X15982000Y-8641400D02*
X16022000Y-8681400D01*
X16022000Y-8641400D02*
X15982000Y-8681400D01*
X16032800Y-9159560D02*
X16072800Y-9199560D01*
X16072800Y-9159560D02*
X16032800Y-9199560D01*
X16037880Y-9731060D02*
X16077880Y-9771060D01*
X16077880Y-9731060D02*
X16037880Y-9771060D01*
X16100000Y-6460800D02*
X16140000Y-6500800D01*
X16140000Y-6460800D02*
X16100000Y-6500800D01*
X16236000Y-8743000D02*
X16276000Y-8783000D01*
X16276000Y-8743000D02*
X16236000Y-8783000D01*
X16299500Y-7536500D02*
X16339500Y-7576500D01*
X16339500Y-7536500D02*
X16299500Y-7576500D01*
X16299500Y-7714300D02*
X16339500Y-7754300D01*
X16339500Y-7714300D02*
X16299500Y-7754300D01*
X16324900Y-6711000D02*
X16364900Y-6751000D01*
X16364900Y-6711000D02*
X16324900Y-6751000D01*
X16350300Y-6545900D02*
X16390300Y-6585900D01*
X16390300Y-6545900D02*
X16350300Y-6585900D01*
X16490000Y-7981000D02*
X16530000Y-8021000D01*
X16530000Y-7981000D02*
X16490000Y-8021000D01*
X16515400Y-7396800D02*
X16555400Y-7436800D01*
X16555400Y-7396800D02*
X16515400Y-7436800D01*
X16617000Y-6584000D02*
X16657000Y-6624000D01*
X16657000Y-6584000D02*
X16617000Y-6624000D01*
X16871000Y-8743000D02*
X16911000Y-8783000D01*
X16911000Y-8743000D02*
X16871000Y-8783000D01*
X17217075Y-8542975D02*
X17257075Y-8582975D01*
X17257075Y-8542975D02*
X17217075Y-8582975D01*
X17277400Y-8057200D02*
X17317400Y-8097200D01*
X17317400Y-8057200D02*
X17277400Y-8097200D01*
X17370000Y-9037000D02*
X17410000Y-9077000D01*
X17410000Y-9037000D02*
X17370000Y-9077000D01*
X17455200Y-7422200D02*
X17495200Y-7462200D01*
X17495200Y-7422200D02*
X17455200Y-7462200D01*
X17455200Y-8304850D02*
X17495200Y-8344850D01*
X17495200Y-8304850D02*
X17455200Y-8344850D01*
X17461550Y-6355400D02*
X17501550Y-6395400D01*
X17501550Y-6355400D02*
X17461550Y-6395400D01*
X17870000Y-8537000D02*
X17910000Y-8577000D01*
X17910000Y-8537000D02*
X17870000Y-8577000D01*
X17870000Y-11037000D02*
X17910000Y-11077000D01*
X17910000Y-11037000D02*
X17870000Y-11077000D01*
X18191800Y-7346000D02*
X18231800Y-7386000D01*
X18231800Y-7346000D02*
X18191800Y-7386000D01*
X18293400Y-7244400D02*
X18333400Y-7284400D01*
X18333400Y-7244400D02*
X18293400Y-7284400D01*
X18293400Y-7498400D02*
X18333400Y-7538400D01*
X18333400Y-7498400D02*
X18293400Y-7538400D01*
X18370000Y-9037000D02*
X18410000Y-9077000D01*
X18410000Y-9037000D02*
X18370000Y-9077000D01*
X18370000Y-10537000D02*
X18410000Y-10577000D01*
X18410000Y-10537000D02*
X18370000Y-10577000D01*
X18445800Y-6758775D02*
X18485800Y-6798775D01*
X18485800Y-6758775D02*
X18445800Y-6798775D01*
X18522000Y-6203000D02*
X18562000Y-6243000D01*
X18562000Y-6203000D02*
X18522000Y-6243000D01*
X14279080Y-11303000D02*
G75*
G03*
X14279080Y-11303000I-50000J0D01*
G01*
X14533080Y-11303000D02*
G75*
G03*
X14533080Y-11303000I-50000J0D01*
G01*
X14787080Y-11303000D02*
G75*
G03*
X14787080Y-11303000I-50000J0D01*
G01*
X15041080Y-11303000D02*
G75*
G03*
X15041080Y-11303000I-50000J0D01*
G01*
X15295080Y-11303000D02*
G75*
G03*
X15295080Y-11303000I-50000J0D01*
G01*
X15549080Y-11303000D02*
G75*
G03*
X15549080Y-11303000I-50000J0D01*
G01*
X10291280Y-5488940D02*
G75*
G03*
X10291280Y-5488940I-50000J0D01*
G01*
X10545280Y-5488940D02*
G75*
G03*
X10545280Y-5488940I-50000J0D01*
G01*
X10248100Y-11282680D02*
G75*
G03*
X10248100Y-11282680I-50000J0D01*
G01*
X10502100Y-11282680D02*
G75*
G03*
X10502100Y-11282680I-50000J0D01*
G01*
X10756100Y-11282680D02*
G75*
G03*
X10756100Y-11282680I-50000J0D01*
G01*
X13854900Y-9931400D02*
G75*
G03*
X13854900Y-9931400I-50000J0D01*
G01*
X13854900Y-10185400D02*
G75*
G03*
X13854900Y-10185400I-50000J0D01*
G01*
X9532820Y-9900580D02*
X9532820Y-10002580D01*
X9481820Y-9951580D02*
X9583820Y-9951580D01*
X9532820Y-10200580D02*
X9532820Y-10302580D01*
X9481820Y-10251580D02*
X9583820Y-10251580D01*
X16425340Y-5752900D02*
X16425340Y-5854900D01*
X16374340Y-5803900D02*
X16476340Y-5803900D01*
X16725340Y-5752900D02*
X16725340Y-5854900D01*
X16674340Y-5803900D02*
X16776340Y-5803900D01*
X17025340Y-5752900D02*
X17025340Y-5854900D01*
X16974340Y-5803900D02*
X17076340Y-5803900D01*
X17325340Y-5752900D02*
X17325340Y-5854900D01*
X17274340Y-5803900D02*
X17376340Y-5803900D01*
X17625340Y-5752900D02*
X17625340Y-5854900D01*
X17574340Y-5803900D02*
X17676340Y-5803900D01*
X13589000Y-5768140D02*
X13589000Y-5870140D01*
X13538000Y-5819140D02*
X13640000Y-5819140D01*
X13889000Y-5768140D02*
X13889000Y-5870140D01*
X13838000Y-5819140D02*
X13940000Y-5819140D01*
X14189000Y-5768140D02*
X14189000Y-5870140D01*
X14138000Y-5819140D02*
X14240000Y-5819140D01*
X14489000Y-5768140D02*
X14489000Y-5870140D01*
X14438000Y-5819140D02*
X14540000Y-5819140D01*
X11287480Y-5791000D02*
X11287480Y-5893000D01*
X11236480Y-5842000D02*
X11338480Y-5842000D01*
X11587480Y-5791000D02*
X11587480Y-5893000D01*
X11536480Y-5842000D02*
X11638480Y-5842000D01*
X9563300Y-7460300D02*
X9563300Y-7562300D01*
X9512300Y-7511300D02*
X9614300Y-7511300D01*
X9563300Y-7760300D02*
X9563300Y-7862300D01*
X9512300Y-7811300D02*
X9614300Y-7811300D01*
X9563300Y-8060300D02*
X9563300Y-8162300D01*
X9512300Y-8111300D02*
X9614300Y-8111300D01*
X9563300Y-8360300D02*
X9563300Y-8462300D01*
X9512300Y-8411300D02*
X9614300Y-8411300D01*
X9563300Y-8660300D02*
X9563300Y-8762300D01*
X9512300Y-8711300D02*
X9614300Y-8711300D01*
D12*
X9173928Y-11961714D02*
X9173928Y-11661714D01*
X9245357Y-11661714D01*
X9288214Y-11676000D01*
X9316786Y-11704571D01*
X9331071Y-11733143D01*
X9345357Y-11790286D01*
X9345357Y-11833143D01*
X9331071Y-11890286D01*
X9316786Y-11918857D01*
X9288214Y-11947429D01*
X9245357Y-11961714D01*
X9173928Y-11961714D01*
X9473928Y-11961714D02*
X9473928Y-11761714D01*
X9473928Y-11818857D02*
X9488214Y-11790286D01*
X9502500Y-11776000D01*
X9531071Y-11761714D01*
X9559643Y-11761714D01*
X9659643Y-11961714D02*
X9659643Y-11761714D01*
X9659643Y-11661714D02*
X9645357Y-11676000D01*
X9659643Y-11690286D01*
X9673928Y-11676000D01*
X9659643Y-11661714D01*
X9659643Y-11690286D01*
X9845357Y-11961714D02*
X9816786Y-11947429D01*
X9802500Y-11918857D01*
X9802500Y-11661714D01*
X10002500Y-11961714D02*
X9973928Y-11947429D01*
X9959643Y-11918857D01*
X9959643Y-11661714D01*
X10345357Y-11961714D02*
X10345357Y-11661714D01*
X10445357Y-11876000D01*
X10545357Y-11661714D01*
X10545357Y-11961714D01*
X10816786Y-11961714D02*
X10816786Y-11804571D01*
X10802500Y-11776000D01*
X10773928Y-11761714D01*
X10716786Y-11761714D01*
X10688214Y-11776000D01*
X10816786Y-11947429D02*
X10788214Y-11961714D01*
X10716786Y-11961714D01*
X10688214Y-11947429D01*
X10673928Y-11918857D01*
X10673928Y-11890286D01*
X10688214Y-11861714D01*
X10716786Y-11847429D01*
X10788214Y-11847429D01*
X10816786Y-11833143D01*
X10959643Y-11761714D02*
X10959643Y-12061714D01*
X10959643Y-11776000D02*
X10988214Y-11761714D01*
X11045357Y-11761714D01*
X11073928Y-11776000D01*
X11088214Y-11790286D01*
X11102500Y-11818857D01*
X11102500Y-11904571D01*
X11088214Y-11933143D01*
X11073928Y-11947429D01*
X11045357Y-11961714D01*
X10988214Y-11961714D01*
X10959643Y-11947429D01*
X11231071Y-11933143D02*
X11245357Y-11947429D01*
X11231071Y-11961714D01*
X11216786Y-11947429D01*
X11231071Y-11933143D01*
X11231071Y-11961714D01*
X11231071Y-11776000D02*
X11245357Y-11790286D01*
X11231071Y-11804571D01*
X11216786Y-11790286D01*
X11231071Y-11776000D01*
X11231071Y-11804571D01*
X8847500Y-12436000D02*
X8887500Y-12476000D01*
X8887500Y-12436000D02*
X8847500Y-12476000D01*
X9231071Y-12291714D02*
X9259643Y-12291714D01*
X9288214Y-12306000D01*
X9302500Y-12320286D01*
X9316786Y-12348857D01*
X9331071Y-12406000D01*
X9331071Y-12477429D01*
X9316786Y-12534571D01*
X9302500Y-12563143D01*
X9288214Y-12577429D01*
X9259643Y-12591714D01*
X9231071Y-12591714D01*
X9202500Y-12577429D01*
X9188214Y-12563143D01*
X9173928Y-12534571D01*
X9159643Y-12477429D01*
X9159643Y-12406000D01*
X9173928Y-12348857D01*
X9188214Y-12320286D01*
X9202500Y-12306000D01*
X9231071Y-12291714D01*
X9459643Y-12563143D02*
X9473928Y-12577429D01*
X9459643Y-12591714D01*
X9445357Y-12577429D01*
X9459643Y-12563143D01*
X9459643Y-12591714D01*
X9731071Y-12391714D02*
X9731071Y-12591714D01*
X9659643Y-12277429D02*
X9588214Y-12491714D01*
X9773928Y-12491714D01*
X9945357Y-12291714D02*
X9973928Y-12291714D01*
X10002500Y-12306000D01*
X10016786Y-12320286D01*
X10031071Y-12348857D01*
X10045357Y-12406000D01*
X10045357Y-12477429D01*
X10031071Y-12534571D01*
X10016786Y-12563143D01*
X10002500Y-12577429D01*
X9973928Y-12591714D01*
X9945357Y-12591714D01*
X9916786Y-12577429D01*
X9902500Y-12563143D01*
X9888214Y-12534571D01*
X9873928Y-12477429D01*
X9873928Y-12406000D01*
X9888214Y-12348857D01*
X9902500Y-12320286D01*
X9916786Y-12306000D01*
X9945357Y-12291714D01*
X10173928Y-12591714D02*
X10173928Y-12391714D01*
X10173928Y-12420286D02*
X10188214Y-12406000D01*
X10216786Y-12391714D01*
X10259643Y-12391714D01*
X10288214Y-12406000D01*
X10302500Y-12434571D01*
X10302500Y-12591714D01*
X10302500Y-12434571D02*
X10316786Y-12406000D01*
X10345357Y-12391714D01*
X10388214Y-12391714D01*
X10416786Y-12406000D01*
X10431071Y-12434571D01*
X10431071Y-12591714D01*
X10573928Y-12591714D02*
X10573928Y-12391714D01*
X10573928Y-12420286D02*
X10588214Y-12406000D01*
X10616786Y-12391714D01*
X10659643Y-12391714D01*
X10688214Y-12406000D01*
X10702500Y-12434571D01*
X10702500Y-12591714D01*
X10702500Y-12434571D02*
X10716786Y-12406000D01*
X10745357Y-12391714D01*
X10788214Y-12391714D01*
X10816786Y-12406000D01*
X10831071Y-12434571D01*
X10831071Y-12591714D01*
X11416786Y-12277429D02*
X11159643Y-12663143D01*
X11802500Y-12291714D02*
X11831071Y-12291714D01*
X11859643Y-12306000D01*
X11873928Y-12320286D01*
X11888214Y-12348857D01*
X11902500Y-12406000D01*
X11902500Y-12477429D01*
X11888214Y-12534571D01*
X11873928Y-12563143D01*
X11859643Y-12577429D01*
X11831071Y-12591714D01*
X11802500Y-12591714D01*
X11773928Y-12577429D01*
X11759643Y-12563143D01*
X11745357Y-12534571D01*
X11731071Y-12477429D01*
X11731071Y-12406000D01*
X11745357Y-12348857D01*
X11759643Y-12320286D01*
X11773928Y-12306000D01*
X11802500Y-12291714D01*
X12031071Y-12563143D02*
X12045357Y-12577429D01*
X12031071Y-12591714D01*
X12016786Y-12577429D01*
X12031071Y-12563143D01*
X12031071Y-12591714D01*
X12231071Y-12291714D02*
X12259643Y-12291714D01*
X12288214Y-12306000D01*
X12302500Y-12320286D01*
X12316786Y-12348857D01*
X12331071Y-12406000D01*
X12331071Y-12477429D01*
X12316786Y-12534571D01*
X12302500Y-12563143D01*
X12288214Y-12577429D01*
X12259643Y-12591714D01*
X12231071Y-12591714D01*
X12202500Y-12577429D01*
X12188214Y-12563143D01*
X12173928Y-12534571D01*
X12159643Y-12477429D01*
X12159643Y-12406000D01*
X12173928Y-12348857D01*
X12188214Y-12320286D01*
X12202500Y-12306000D01*
X12231071Y-12291714D01*
X12616786Y-12591714D02*
X12445357Y-12591714D01*
X12531071Y-12591714D02*
X12531071Y-12291714D01*
X12502500Y-12334571D01*
X12473928Y-12363143D01*
X12445357Y-12377429D01*
X12873928Y-12291714D02*
X12816786Y-12291714D01*
X12788214Y-12306000D01*
X12773928Y-12320286D01*
X12745357Y-12363143D01*
X12731071Y-12420286D01*
X12731071Y-12534571D01*
X12745357Y-12563143D01*
X12759643Y-12577429D01*
X12788214Y-12591714D01*
X12845357Y-12591714D01*
X12873928Y-12577429D01*
X12888214Y-12563143D01*
X12902500Y-12534571D01*
X12902500Y-12463143D01*
X12888214Y-12434571D01*
X12873928Y-12420286D01*
X12845357Y-12406000D01*
X12788214Y-12406000D01*
X12759643Y-12420286D01*
X12745357Y-12434571D01*
X12731071Y-12463143D01*
X13016786Y-12291714D02*
X13016786Y-12348857D01*
X13131071Y-12291714D02*
X13131071Y-12348857D01*
X13573928Y-12706000D02*
X13559643Y-12691714D01*
X13531071Y-12648857D01*
X13516786Y-12620286D01*
X13502500Y-12577429D01*
X13488214Y-12506000D01*
X13488214Y-12448857D01*
X13502500Y-12377429D01*
X13516786Y-12334571D01*
X13531071Y-12306000D01*
X13559643Y-12263143D01*
X13573928Y-12248857D01*
X13845357Y-12591714D02*
X13673928Y-12591714D01*
X13759643Y-12591714D02*
X13759643Y-12291714D01*
X13731071Y-12334571D01*
X13702500Y-12363143D01*
X13673928Y-12377429D01*
X14031071Y-12291714D02*
X14059643Y-12291714D01*
X14088214Y-12306000D01*
X14102500Y-12320286D01*
X14116786Y-12348857D01*
X14131071Y-12406000D01*
X14131071Y-12477429D01*
X14116786Y-12534571D01*
X14102500Y-12563143D01*
X14088214Y-12577429D01*
X14059643Y-12591714D01*
X14031071Y-12591714D01*
X14002500Y-12577429D01*
X13988214Y-12563143D01*
X13973928Y-12534571D01*
X13959643Y-12477429D01*
X13959643Y-12406000D01*
X13973928Y-12348857D01*
X13988214Y-12320286D01*
X14002500Y-12306000D01*
X14031071Y-12291714D01*
X14273928Y-12591714D02*
X14331071Y-12591714D01*
X14359643Y-12577429D01*
X14373928Y-12563143D01*
X14402500Y-12520286D01*
X14416786Y-12463143D01*
X14416786Y-12348857D01*
X14402500Y-12320286D01*
X14388214Y-12306000D01*
X14359643Y-12291714D01*
X14302500Y-12291714D01*
X14273928Y-12306000D01*
X14259643Y-12320286D01*
X14245357Y-12348857D01*
X14245357Y-12420286D01*
X14259643Y-12448857D01*
X14273928Y-12463143D01*
X14302500Y-12477429D01*
X14359643Y-12477429D01*
X14388214Y-12463143D01*
X14402500Y-12448857D01*
X14416786Y-12420286D01*
X14773928Y-12591714D02*
X14773928Y-12291714D01*
X14902500Y-12591714D02*
X14902500Y-12434571D01*
X14888214Y-12406000D01*
X14859643Y-12391714D01*
X14816786Y-12391714D01*
X14788214Y-12406000D01*
X14773928Y-12420286D01*
X15088214Y-12591714D02*
X15059643Y-12577429D01*
X15045357Y-12563143D01*
X15031071Y-12534571D01*
X15031071Y-12448857D01*
X15045357Y-12420286D01*
X15059643Y-12406000D01*
X15088214Y-12391714D01*
X15131071Y-12391714D01*
X15159643Y-12406000D01*
X15173928Y-12420286D01*
X15188214Y-12448857D01*
X15188214Y-12534571D01*
X15173928Y-12563143D01*
X15159643Y-12577429D01*
X15131071Y-12591714D01*
X15088214Y-12591714D01*
X15359643Y-12591714D02*
X15331071Y-12577429D01*
X15316786Y-12548857D01*
X15316786Y-12291714D01*
X15588214Y-12577429D02*
X15559643Y-12591714D01*
X15502500Y-12591714D01*
X15473928Y-12577429D01*
X15459643Y-12548857D01*
X15459643Y-12434571D01*
X15473928Y-12406000D01*
X15502500Y-12391714D01*
X15559643Y-12391714D01*
X15588214Y-12406000D01*
X15602500Y-12434571D01*
X15602500Y-12463143D01*
X15459643Y-12491714D01*
X15716786Y-12577429D02*
X15745357Y-12591714D01*
X15802500Y-12591714D01*
X15831071Y-12577429D01*
X15845357Y-12548857D01*
X15845357Y-12534571D01*
X15831071Y-12506000D01*
X15802500Y-12491714D01*
X15759643Y-12491714D01*
X15731071Y-12477429D01*
X15716786Y-12448857D01*
X15716786Y-12434571D01*
X15731071Y-12406000D01*
X15759643Y-12391714D01*
X15802500Y-12391714D01*
X15831071Y-12406000D01*
X15945357Y-12706000D02*
X15959643Y-12691714D01*
X15988214Y-12648857D01*
X16002500Y-12620286D01*
X16016786Y-12577429D01*
X16031071Y-12506000D01*
X16031071Y-12448857D01*
X16016786Y-12377429D01*
X16002500Y-12334571D01*
X15988214Y-12306000D01*
X15959643Y-12263143D01*
X15945357Y-12248857D01*
X8887500Y-12852000D02*
G75*
G03*
X8887500Y-12852000I-50000J0D01*
G01*
X9331071Y-12987714D02*
X9159643Y-12987714D01*
X9245357Y-12987714D02*
X9245357Y-12687714D01*
X9216786Y-12730571D01*
X9188214Y-12759143D01*
X9159643Y-12773429D01*
X9459643Y-12959143D02*
X9473928Y-12973429D01*
X9459643Y-12987714D01*
X9445357Y-12973429D01*
X9459643Y-12959143D01*
X9459643Y-12987714D01*
X9659643Y-12687714D02*
X9688214Y-12687714D01*
X9716786Y-12702000D01*
X9731071Y-12716286D01*
X9745357Y-12744857D01*
X9759643Y-12802000D01*
X9759643Y-12873429D01*
X9745357Y-12930571D01*
X9731071Y-12959143D01*
X9716786Y-12973429D01*
X9688214Y-12987714D01*
X9659643Y-12987714D01*
X9631071Y-12973429D01*
X9616786Y-12959143D01*
X9602500Y-12930571D01*
X9588214Y-12873429D01*
X9588214Y-12802000D01*
X9602500Y-12744857D01*
X9616786Y-12716286D01*
X9631071Y-12702000D01*
X9659643Y-12687714D01*
X9945357Y-12687714D02*
X9973928Y-12687714D01*
X10002500Y-12702000D01*
X10016786Y-12716286D01*
X10031071Y-12744857D01*
X10045357Y-12802000D01*
X10045357Y-12873429D01*
X10031071Y-12930571D01*
X10016786Y-12959143D01*
X10002500Y-12973429D01*
X9973928Y-12987714D01*
X9945357Y-12987714D01*
X9916786Y-12973429D01*
X9902500Y-12959143D01*
X9888214Y-12930571D01*
X9873928Y-12873429D01*
X9873928Y-12802000D01*
X9888214Y-12744857D01*
X9902500Y-12716286D01*
X9916786Y-12702000D01*
X9945357Y-12687714D01*
X10173928Y-12987714D02*
X10173928Y-12787714D01*
X10173928Y-12816286D02*
X10188214Y-12802000D01*
X10216786Y-12787714D01*
X10259643Y-12787714D01*
X10288214Y-12802000D01*
X10302500Y-12830571D01*
X10302500Y-12987714D01*
X10302500Y-12830571D02*
X10316786Y-12802000D01*
X10345357Y-12787714D01*
X10388214Y-12787714D01*
X10416786Y-12802000D01*
X10431071Y-12830571D01*
X10431071Y-12987714D01*
X10573928Y-12987714D02*
X10573928Y-12787714D01*
X10573928Y-12816286D02*
X10588214Y-12802000D01*
X10616786Y-12787714D01*
X10659643Y-12787714D01*
X10688214Y-12802000D01*
X10702500Y-12830571D01*
X10702500Y-12987714D01*
X10702500Y-12830571D02*
X10716786Y-12802000D01*
X10745357Y-12787714D01*
X10788214Y-12787714D01*
X10816786Y-12802000D01*
X10831071Y-12830571D01*
X10831071Y-12987714D01*
X11416786Y-12673429D02*
X11159643Y-13059143D01*
X11802500Y-12687714D02*
X11831071Y-12687714D01*
X11859643Y-12702000D01*
X11873928Y-12716286D01*
X11888214Y-12744857D01*
X11902500Y-12802000D01*
X11902500Y-12873429D01*
X11888214Y-12930571D01*
X11873928Y-12959143D01*
X11859643Y-12973429D01*
X11831071Y-12987714D01*
X11802500Y-12987714D01*
X11773928Y-12973429D01*
X11759643Y-12959143D01*
X11745357Y-12930571D01*
X11731071Y-12873429D01*
X11731071Y-12802000D01*
X11745357Y-12744857D01*
X11759643Y-12716286D01*
X11773928Y-12702000D01*
X11802500Y-12687714D01*
X12031071Y-12959143D02*
X12045357Y-12973429D01*
X12031071Y-12987714D01*
X12016786Y-12973429D01*
X12031071Y-12959143D01*
X12031071Y-12987714D01*
X12231071Y-12687714D02*
X12259643Y-12687714D01*
X12288214Y-12702000D01*
X12302500Y-12716286D01*
X12316786Y-12744857D01*
X12331071Y-12802000D01*
X12331071Y-12873429D01*
X12316786Y-12930571D01*
X12302500Y-12959143D01*
X12288214Y-12973429D01*
X12259643Y-12987714D01*
X12231071Y-12987714D01*
X12202500Y-12973429D01*
X12188214Y-12959143D01*
X12173928Y-12930571D01*
X12159643Y-12873429D01*
X12159643Y-12802000D01*
X12173928Y-12744857D01*
X12188214Y-12716286D01*
X12202500Y-12702000D01*
X12231071Y-12687714D01*
X12431071Y-12687714D02*
X12616786Y-12687714D01*
X12516786Y-12802000D01*
X12559643Y-12802000D01*
X12588214Y-12816286D01*
X12602500Y-12830571D01*
X12616786Y-12859143D01*
X12616786Y-12930571D01*
X12602500Y-12959143D01*
X12588214Y-12973429D01*
X12559643Y-12987714D01*
X12473928Y-12987714D01*
X12445357Y-12973429D01*
X12431071Y-12959143D01*
X12759643Y-12987714D02*
X12816786Y-12987714D01*
X12845357Y-12973429D01*
X12859643Y-12959143D01*
X12888214Y-12916286D01*
X12902500Y-12859143D01*
X12902500Y-12744857D01*
X12888214Y-12716286D01*
X12873928Y-12702000D01*
X12845357Y-12687714D01*
X12788214Y-12687714D01*
X12759643Y-12702000D01*
X12745357Y-12716286D01*
X12731071Y-12744857D01*
X12731071Y-12816286D01*
X12745357Y-12844857D01*
X12759643Y-12859143D01*
X12788214Y-12873429D01*
X12845357Y-12873429D01*
X12873928Y-12859143D01*
X12888214Y-12844857D01*
X12902500Y-12816286D01*
X13016786Y-12687714D02*
X13016786Y-12744857D01*
X13131071Y-12687714D02*
X13131071Y-12744857D01*
X13573928Y-13102000D02*
X13559643Y-13087714D01*
X13531071Y-13044857D01*
X13516786Y-13016286D01*
X13502500Y-12973429D01*
X13488214Y-12902000D01*
X13488214Y-12844857D01*
X13502500Y-12773429D01*
X13516786Y-12730571D01*
X13531071Y-12702000D01*
X13559643Y-12659143D01*
X13573928Y-12644857D01*
X13845357Y-12987714D02*
X13673928Y-12987714D01*
X13759643Y-12987714D02*
X13759643Y-12687714D01*
X13731071Y-12730571D01*
X13702500Y-12759143D01*
X13673928Y-12773429D01*
X13945357Y-12687714D02*
X14131071Y-12687714D01*
X14031071Y-12802000D01*
X14073928Y-12802000D01*
X14102500Y-12816286D01*
X14116786Y-12830571D01*
X14131071Y-12859143D01*
X14131071Y-12930571D01*
X14116786Y-12959143D01*
X14102500Y-12973429D01*
X14073928Y-12987714D01*
X13988214Y-12987714D01*
X13959643Y-12973429D01*
X13945357Y-12959143D01*
X14488214Y-12987714D02*
X14488214Y-12687714D01*
X14616786Y-12987714D02*
X14616786Y-12830571D01*
X14602500Y-12802000D01*
X14573928Y-12787714D01*
X14531071Y-12787714D01*
X14502500Y-12802000D01*
X14488214Y-12816286D01*
X14802500Y-12987714D02*
X14773928Y-12973429D01*
X14759643Y-12959143D01*
X14745357Y-12930571D01*
X14745357Y-12844857D01*
X14759643Y-12816286D01*
X14773928Y-12802000D01*
X14802500Y-12787714D01*
X14845357Y-12787714D01*
X14873928Y-12802000D01*
X14888214Y-12816286D01*
X14902500Y-12844857D01*
X14902500Y-12930571D01*
X14888214Y-12959143D01*
X14873928Y-12973429D01*
X14845357Y-12987714D01*
X14802500Y-12987714D01*
X15073928Y-12987714D02*
X15045357Y-12973429D01*
X15031071Y-12944857D01*
X15031071Y-12687714D01*
X15302500Y-12973429D02*
X15273928Y-12987714D01*
X15216786Y-12987714D01*
X15188214Y-12973429D01*
X15173928Y-12944857D01*
X15173928Y-12830571D01*
X15188214Y-12802000D01*
X15216786Y-12787714D01*
X15273928Y-12787714D01*
X15302500Y-12802000D01*
X15316786Y-12830571D01*
X15316786Y-12859143D01*
X15173928Y-12887714D01*
X15431071Y-12973429D02*
X15459643Y-12987714D01*
X15516786Y-12987714D01*
X15545357Y-12973429D01*
X15559643Y-12944857D01*
X15559643Y-12930571D01*
X15545357Y-12902000D01*
X15516786Y-12887714D01*
X15473928Y-12887714D01*
X15445357Y-12873429D01*
X15431071Y-12844857D01*
X15431071Y-12830571D01*
X15445357Y-12802000D01*
X15473928Y-12787714D01*
X15516786Y-12787714D01*
X15545357Y-12802000D01*
X15659643Y-13102000D02*
X15673928Y-13087714D01*
X15702500Y-13044857D01*
X15716786Y-13016286D01*
X15731071Y-12973429D01*
X15745357Y-12902000D01*
X15745357Y-12844857D01*
X15731071Y-12773429D01*
X15716786Y-12730571D01*
X15702500Y-12702000D01*
X15673928Y-12659143D01*
X15659643Y-12644857D01*
X8836500Y-13197000D02*
X8836500Y-13299000D01*
X8785500Y-13248000D02*
X8887500Y-13248000D01*
X9331071Y-13383714D02*
X9159643Y-13383714D01*
X9245357Y-13383714D02*
X9245357Y-13083714D01*
X9216786Y-13126571D01*
X9188214Y-13155143D01*
X9159643Y-13169429D01*
X9459643Y-13355143D02*
X9473928Y-13369429D01*
X9459643Y-13383714D01*
X9445357Y-13369429D01*
X9459643Y-13355143D01*
X9459643Y-13383714D01*
X9659643Y-13083714D02*
X9688214Y-13083714D01*
X9716786Y-13098000D01*
X9731071Y-13112286D01*
X9745357Y-13140857D01*
X9759643Y-13198000D01*
X9759643Y-13269429D01*
X9745357Y-13326571D01*
X9731071Y-13355143D01*
X9716786Y-13369429D01*
X9688214Y-13383714D01*
X9659643Y-13383714D01*
X9631071Y-13369429D01*
X9616786Y-13355143D01*
X9602500Y-13326571D01*
X9588214Y-13269429D01*
X9588214Y-13198000D01*
X9602500Y-13140857D01*
X9616786Y-13112286D01*
X9631071Y-13098000D01*
X9659643Y-13083714D01*
X9873928Y-13112286D02*
X9888214Y-13098000D01*
X9916786Y-13083714D01*
X9988214Y-13083714D01*
X10016786Y-13098000D01*
X10031071Y-13112286D01*
X10045357Y-13140857D01*
X10045357Y-13169429D01*
X10031071Y-13212286D01*
X9859643Y-13383714D01*
X10045357Y-13383714D01*
X10173928Y-13383714D02*
X10173928Y-13183714D01*
X10173928Y-13212286D02*
X10188214Y-13198000D01*
X10216786Y-13183714D01*
X10259643Y-13183714D01*
X10288214Y-13198000D01*
X10302500Y-13226571D01*
X10302500Y-13383714D01*
X10302500Y-13226571D02*
X10316786Y-13198000D01*
X10345357Y-13183714D01*
X10388214Y-13183714D01*
X10416786Y-13198000D01*
X10431071Y-13226571D01*
X10431071Y-13383714D01*
X10573928Y-13383714D02*
X10573928Y-13183714D01*
X10573928Y-13212286D02*
X10588214Y-13198000D01*
X10616786Y-13183714D01*
X10659643Y-13183714D01*
X10688214Y-13198000D01*
X10702500Y-13226571D01*
X10702500Y-13383714D01*
X10702500Y-13226571D02*
X10716786Y-13198000D01*
X10745357Y-13183714D01*
X10788214Y-13183714D01*
X10816786Y-13198000D01*
X10831071Y-13226571D01*
X10831071Y-13383714D01*
X11416786Y-13069429D02*
X11159643Y-13455143D01*
X11802500Y-13083714D02*
X11831071Y-13083714D01*
X11859643Y-13098000D01*
X11873928Y-13112286D01*
X11888214Y-13140857D01*
X11902500Y-13198000D01*
X11902500Y-13269429D01*
X11888214Y-13326571D01*
X11873928Y-13355143D01*
X11859643Y-13369429D01*
X11831071Y-13383714D01*
X11802500Y-13383714D01*
X11773928Y-13369429D01*
X11759643Y-13355143D01*
X11745357Y-13326571D01*
X11731071Y-13269429D01*
X11731071Y-13198000D01*
X11745357Y-13140857D01*
X11759643Y-13112286D01*
X11773928Y-13098000D01*
X11802500Y-13083714D01*
X12031071Y-13355143D02*
X12045357Y-13369429D01*
X12031071Y-13383714D01*
X12016786Y-13369429D01*
X12031071Y-13355143D01*
X12031071Y-13383714D01*
X12231071Y-13083714D02*
X12259643Y-13083714D01*
X12288214Y-13098000D01*
X12302500Y-13112286D01*
X12316786Y-13140857D01*
X12331071Y-13198000D01*
X12331071Y-13269429D01*
X12316786Y-13326571D01*
X12302500Y-13355143D01*
X12288214Y-13369429D01*
X12259643Y-13383714D01*
X12231071Y-13383714D01*
X12202500Y-13369429D01*
X12188214Y-13355143D01*
X12173928Y-13326571D01*
X12159643Y-13269429D01*
X12159643Y-13198000D01*
X12173928Y-13140857D01*
X12188214Y-13112286D01*
X12202500Y-13098000D01*
X12231071Y-13083714D01*
X12588214Y-13183714D02*
X12588214Y-13383714D01*
X12516786Y-13069429D02*
X12445357Y-13283714D01*
X12631071Y-13283714D01*
X12802500Y-13083714D02*
X12831071Y-13083714D01*
X12859643Y-13098000D01*
X12873928Y-13112286D01*
X12888214Y-13140857D01*
X12902500Y-13198000D01*
X12902500Y-13269429D01*
X12888214Y-13326571D01*
X12873928Y-13355143D01*
X12859643Y-13369429D01*
X12831071Y-13383714D01*
X12802500Y-13383714D01*
X12773928Y-13369429D01*
X12759643Y-13355143D01*
X12745357Y-13326571D01*
X12731071Y-13269429D01*
X12731071Y-13198000D01*
X12745357Y-13140857D01*
X12759643Y-13112286D01*
X12773928Y-13098000D01*
X12802500Y-13083714D01*
X13016786Y-13083714D02*
X13016786Y-13140857D01*
X13131071Y-13083714D02*
X13131071Y-13140857D01*
X13573928Y-13498000D02*
X13559643Y-13483714D01*
X13531071Y-13440857D01*
X13516786Y-13412286D01*
X13502500Y-13369429D01*
X13488214Y-13298000D01*
X13488214Y-13240857D01*
X13502500Y-13169429D01*
X13516786Y-13126571D01*
X13531071Y-13098000D01*
X13559643Y-13055143D01*
X13573928Y-13040857D01*
X13845357Y-13383714D02*
X13673928Y-13383714D01*
X13759643Y-13383714D02*
X13759643Y-13083714D01*
X13731071Y-13126571D01*
X13702500Y-13155143D01*
X13673928Y-13169429D01*
X14016786Y-13212286D02*
X13988214Y-13198000D01*
X13973928Y-13183714D01*
X13959643Y-13155143D01*
X13959643Y-13140857D01*
X13973928Y-13112286D01*
X13988214Y-13098000D01*
X14016786Y-13083714D01*
X14073928Y-13083714D01*
X14102500Y-13098000D01*
X14116786Y-13112286D01*
X14131071Y-13140857D01*
X14131071Y-13155143D01*
X14116786Y-13183714D01*
X14102500Y-13198000D01*
X14073928Y-13212286D01*
X14016786Y-13212286D01*
X13988214Y-13226571D01*
X13973928Y-13240857D01*
X13959643Y-13269429D01*
X13959643Y-13326571D01*
X13973928Y-13355143D01*
X13988214Y-13369429D01*
X14016786Y-13383714D01*
X14073928Y-13383714D01*
X14102500Y-13369429D01*
X14116786Y-13355143D01*
X14131071Y-13326571D01*
X14131071Y-13269429D01*
X14116786Y-13240857D01*
X14102500Y-13226571D01*
X14073928Y-13212286D01*
X14488214Y-13383714D02*
X14488214Y-13083714D01*
X14616786Y-13383714D02*
X14616786Y-13226571D01*
X14602500Y-13198000D01*
X14573928Y-13183714D01*
X14531071Y-13183714D01*
X14502500Y-13198000D01*
X14488214Y-13212286D01*
X14802500Y-13383714D02*
X14773928Y-13369429D01*
X14759643Y-13355143D01*
X14745357Y-13326571D01*
X14745357Y-13240857D01*
X14759643Y-13212286D01*
X14773928Y-13198000D01*
X14802500Y-13183714D01*
X14845357Y-13183714D01*
X14873928Y-13198000D01*
X14888214Y-13212286D01*
X14902500Y-13240857D01*
X14902500Y-13326571D01*
X14888214Y-13355143D01*
X14873928Y-13369429D01*
X14845357Y-13383714D01*
X14802500Y-13383714D01*
X15073928Y-13383714D02*
X15045357Y-13369429D01*
X15031071Y-13340857D01*
X15031071Y-13083714D01*
X15302500Y-13369429D02*
X15273928Y-13383714D01*
X15216786Y-13383714D01*
X15188214Y-13369429D01*
X15173928Y-13340857D01*
X15173928Y-13226571D01*
X15188214Y-13198000D01*
X15216786Y-13183714D01*
X15273928Y-13183714D01*
X15302500Y-13198000D01*
X15316786Y-13226571D01*
X15316786Y-13255143D01*
X15173928Y-13283714D01*
X15431071Y-13369429D02*
X15459643Y-13383714D01*
X15516786Y-13383714D01*
X15545357Y-13369429D01*
X15559643Y-13340857D01*
X15559643Y-13326571D01*
X15545357Y-13298000D01*
X15516786Y-13283714D01*
X15473928Y-13283714D01*
X15445357Y-13269429D01*
X15431071Y-13240857D01*
X15431071Y-13226571D01*
X15445357Y-13198000D01*
X15473928Y-13183714D01*
X15516786Y-13183714D01*
X15545357Y-13198000D01*
X15659643Y-13498000D02*
X15673928Y-13483714D01*
X15702500Y-13440857D01*
X15716786Y-13412286D01*
X15731071Y-13369429D01*
X15745357Y-13298000D01*
X15745357Y-13240857D01*
X15731071Y-13169429D01*
X15716786Y-13126571D01*
X15702500Y-13098000D01*
X15673928Y-13055143D01*
X15659643Y-13040857D01*
M02*
