M48
; DRILL file {KiCad (5.1.6)-1} date 05/10/21 23:03:10
; FORMAT={-:-/ absolute / metric / decimal}
; #@! TF.CreationDate,2021-05-10T23:03:10+02:00
; #@! TF.GenerationSoftware,Kicad,Pcbnew,(5.1.6)-1
; #@! TF.FileFunction,Plated,1,2,PTH
FMAT,2
METRIC
T1C0.400
T2C1.000
T3C1.020
%
G90
G05
T1
X91.44Y-92.964
X92.71Y-62.23
X93.98Y-81.28
X95.555Y-92.939
X96.203Y-62.674
X97.79Y-81.915
X97.79Y-113.03
X98.9Y-105.57
X99.847Y-84.861
X104.521Y-62.293
X104.775Y-57.213
X109.41Y-59.055
X109.855Y-61.849
X110.744Y-66.548
X114.3Y-113.03
X117.538Y-61.15
X117.729Y-80.645
X118.11Y-71.591
X118.11Y-88.9
X118.173Y-73.787
X118.872Y-82.995
X120.301Y-55.721
X120.65Y-83.82
X121.92Y-57.15
X122.11Y-75.311
X122.555Y-66.23
X122.682Y-78.041
X123.19Y-71.12
X124.46Y-97.79
X124.46Y-107.95
X125.666Y-68.453
X125.73Y-80.01
X127.127Y-101.092
X127.254Y-98.361
X128.079Y-88.837
X128.27Y-97.346
X128.27Y-106.68
X129.667Y-93.027
X130.302Y-92.011
X130.81Y-53.34
X132.143Y-104.077
X132.593Y-75.179
X133.159Y-96.901
X134.62Y-68.58
X138.176Y-72.935
X139.097Y-75.025
X139.636Y-90.424
X139.847Y-71.183
X140.017Y-72.072
X140.017Y-104.203
X140.208Y-75.617
X141.359Y-66.992
X142.113Y-100.584
X142.811Y-89.281
X143.32Y-104.712
X143.701Y-88.646
X145.669Y-101.219
X145.732Y-108.394
X145.859Y-93.98
X145.987Y-67.754
X145.987Y-82.575
X146.812Y-79.756
X147.066Y-75.311
X147.248Y-85.372
X147.701Y-70.395
X147.955Y-68.008
X148.082Y-84.025
X148.59Y-100.33
X149.86Y-57.15
X153.924Y-79.756
X154.432Y-81.026
X155.13Y-75.819
X155.499Y-72.06
X155.892Y-68.199
X156.083Y-92.011
X156.21Y-86.36
X156.909Y-69.088
X156.972Y-71.882
X157.48Y-109.22
X157.543Y-61.277
X158.75Y-54.61
X160.02Y-86.614
X160.528Y-91.796
X160.579Y-97.511
X161.2Y-64.808
X162.56Y-87.63
X163.195Y-75.565
X163.195Y-77.343
X163.449Y-67.31
X163.703Y-65.659
X165.1Y-80.01
X165.354Y-74.168
X166.37Y-66.04
X168.91Y-87.63
X172.371Y-85.63
X172.974Y-80.772
X173.9Y-90.57
X174.752Y-74.422
X174.752Y-83.248
X174.815Y-63.754
X178.9Y-85.57
X178.9Y-110.57
X182.118Y-73.66
X183.134Y-72.644
X183.134Y-75.184
X183.9Y-90.57
X183.9Y-105.57
X184.658Y-67.788
X185.42Y-62.23
T2
X142.291Y-113.03
X144.831Y-113.03
X147.371Y-113.03
X149.911Y-113.03
X152.451Y-113.03
X154.991Y-113.03
X102.413Y-54.889
X104.953Y-54.889
X101.981Y-112.827
X104.521Y-112.827
X107.061Y-112.827
X138.049Y-99.314
X138.049Y-101.854
T3
X95.328Y-99.516
X95.328Y-102.516
X164.253Y-58.039
X167.253Y-58.039
X170.253Y-58.039
X173.253Y-58.039
X176.253Y-58.039
X135.89Y-58.191
X138.89Y-58.191
X141.89Y-58.191
X144.89Y-58.191
X112.875Y-58.42
X115.875Y-58.42
X95.633Y-75.113
X95.633Y-78.113
X95.633Y-81.113
X95.633Y-84.113
X95.633Y-87.113
T0
M30
