%TF.GenerationSoftware,KiCad,Pcbnew,(5.1.6)-1*%
%TF.CreationDate,2021-05-10T23:00:48+02:00*%
%TF.ProjectId,karta_stm,6b617274-615f-4737-946d-2e6b69636164,rev?*%
%TF.SameCoordinates,Original*%
%TF.FileFunction,Legend,Bot*%
%TF.FilePolarity,Positive*%
%FSLAX46Y46*%
G04 Gerber Fmt 4.6, Leading zero omitted, Abs format (unit mm)*
G04 Created by KiCad (PCBNEW (5.1.6)-1) date 2021-05-10 23:00:48*
%MOMM*%
%LPD*%
G01*
G04 APERTURE LIST*
%ADD10C,0.010000*%
%ADD11C,0.120000*%
%ADD12C,0.150000*%
%ADD13O,1.800000X1.800000*%
%ADD14R,1.800000X1.800000*%
%ADD15O,1.600000X2.120000*%
%ADD16C,3.100000*%
%ADD17O,2.120000X1.600000*%
%ADD18C,3.300000*%
%ADD19R,9.500000X10.900000*%
%ADD20R,4.700000X1.200000*%
%ADD21R,2.100000X1.600000*%
%ADD22R,2.100000X3.900000*%
%ADD23R,0.750000X0.500000*%
%ADD24R,1.000000X0.900000*%
%ADD25R,2.600000X2.400000*%
%ADD26R,5.500000X3.000000*%
%ADD27R,0.900000X1.000000*%
G04 APERTURE END LIST*
D10*
%TO.C,G\u002A\u002A\u002A*%
G36*
X158952623Y-101592535D02*
G01*
X159073849Y-101592335D01*
X159179471Y-101591992D01*
X159270154Y-101591496D01*
X159346563Y-101590838D01*
X159409361Y-101590011D01*
X159459214Y-101589005D01*
X159496787Y-101587812D01*
X159522743Y-101586422D01*
X159537747Y-101584828D01*
X159542466Y-101583061D01*
X159539732Y-101573304D01*
X159531912Y-101549265D01*
X159519581Y-101512620D01*
X159503316Y-101465047D01*
X159483692Y-101408221D01*
X159461284Y-101343821D01*
X159436667Y-101273522D01*
X159419700Y-101225306D01*
X159393976Y-101152203D01*
X159370082Y-101084031D01*
X159348590Y-101022445D01*
X159330076Y-100969104D01*
X159315113Y-100925662D01*
X159304274Y-100893778D01*
X159298133Y-100875108D01*
X159296933Y-100870830D01*
X159305339Y-100870543D01*
X159330315Y-100870255D01*
X159371496Y-100869965D01*
X159428520Y-100869673D01*
X159501022Y-100869381D01*
X159588639Y-100869089D01*
X159691007Y-100868796D01*
X159807763Y-100868503D01*
X159938541Y-100868212D01*
X160082980Y-100867921D01*
X160240715Y-100867632D01*
X160411382Y-100867344D01*
X160594618Y-100867059D01*
X160790059Y-100866777D01*
X160997341Y-100866497D01*
X161216101Y-100866221D01*
X161445975Y-100865949D01*
X161686599Y-100865681D01*
X161937609Y-100865418D01*
X162198642Y-100865160D01*
X162469333Y-100864907D01*
X162749320Y-100864660D01*
X163038239Y-100864419D01*
X163335725Y-100864184D01*
X163641416Y-100863957D01*
X163954947Y-100863736D01*
X164275954Y-100863524D01*
X164604074Y-100863320D01*
X164938944Y-100863124D01*
X165280199Y-100862937D01*
X165627476Y-100862759D01*
X165980411Y-100862591D01*
X166338640Y-100862433D01*
X166701800Y-100862286D01*
X167069527Y-100862149D01*
X167441457Y-100862024D01*
X167520183Y-100861999D01*
X175743433Y-100859428D01*
X175850513Y-100841323D01*
X176023796Y-100806156D01*
X176184853Y-100760912D01*
X176335727Y-100704632D01*
X176478460Y-100636359D01*
X176615097Y-100555133D01*
X176747678Y-100459996D01*
X176856747Y-100369213D01*
X176985283Y-100244698D01*
X177103045Y-100108461D01*
X177209019Y-99962185D01*
X177302193Y-99807552D01*
X177381550Y-99646244D01*
X177446078Y-99479944D01*
X177494645Y-99310833D01*
X177527767Y-99136447D01*
X177546213Y-98955630D01*
X177549817Y-98770686D01*
X177543407Y-98639862D01*
X177525234Y-98467142D01*
X177498135Y-98307084D01*
X177461609Y-98157663D01*
X177415160Y-98016856D01*
X177358288Y-97882639D01*
X177355422Y-97876611D01*
X177302618Y-97772254D01*
X177249276Y-97680417D01*
X177192483Y-97596855D01*
X177129326Y-97517322D01*
X177056894Y-97437572D01*
X177047827Y-97428184D01*
X176935290Y-97321317D01*
X176817001Y-97227228D01*
X176689530Y-97143439D01*
X176549448Y-97067470D01*
X176547767Y-97066640D01*
X176440394Y-97016905D01*
X176332649Y-96973798D01*
X176221190Y-96936292D01*
X176102677Y-96903355D01*
X175973768Y-96873958D01*
X175840800Y-96848750D01*
X175734967Y-96830297D01*
X166072383Y-96828049D01*
X165668139Y-96827960D01*
X165267994Y-96827884D01*
X164872283Y-96827819D01*
X164481341Y-96827766D01*
X164095504Y-96827725D01*
X163715108Y-96827695D01*
X163340488Y-96827676D01*
X162971980Y-96827669D01*
X162609919Y-96827672D01*
X162254641Y-96827687D01*
X161906482Y-96827712D01*
X161565776Y-96827747D01*
X161232859Y-96827793D01*
X160908068Y-96827849D01*
X160591737Y-96827916D01*
X160284202Y-96827992D01*
X159985799Y-96828078D01*
X159696862Y-96828174D01*
X159417729Y-96828279D01*
X159148733Y-96828394D01*
X158890211Y-96828518D01*
X158642499Y-96828651D01*
X158405931Y-96828793D01*
X158180843Y-96828944D01*
X157967572Y-96829103D01*
X157766452Y-96829271D01*
X157577818Y-96829448D01*
X157402007Y-96829632D01*
X157239355Y-96829825D01*
X157090195Y-96830026D01*
X156954865Y-96830234D01*
X156833700Y-96830450D01*
X156727034Y-96830673D01*
X156635204Y-96830904D01*
X156558546Y-96831142D01*
X156497394Y-96831388D01*
X156452085Y-96831640D01*
X156422953Y-96831898D01*
X156410335Y-96832164D01*
X156409800Y-96832232D01*
X156412555Y-96841008D01*
X156420546Y-96864578D01*
X156433365Y-96901769D01*
X156450601Y-96951412D01*
X156471846Y-97012334D01*
X156496690Y-97083365D01*
X156524722Y-97163334D01*
X156555535Y-97251068D01*
X156588718Y-97345398D01*
X156623862Y-97445153D01*
X156650329Y-97520182D01*
X156890858Y-98201700D01*
X166274812Y-98205933D01*
X175658767Y-98210166D01*
X175722267Y-98228356D01*
X175815371Y-98261261D01*
X175895341Y-98303177D01*
X175962520Y-98354657D01*
X176017249Y-98416253D01*
X176059872Y-98488519D01*
X176090732Y-98572008D01*
X176110170Y-98667272D01*
X176118531Y-98774866D01*
X176117640Y-98866333D01*
X176106494Y-98982445D01*
X176083326Y-99086635D01*
X176048128Y-99178913D01*
X176000893Y-99259289D01*
X175941616Y-99327773D01*
X175870288Y-99384374D01*
X175786902Y-99429101D01*
X175696702Y-99460552D01*
X175624900Y-99480166D01*
X158803370Y-99480166D01*
X158661490Y-99078000D01*
X158519610Y-98675833D01*
X157790671Y-98673669D01*
X157658169Y-98673368D01*
X157537331Y-98673281D01*
X157428754Y-98673403D01*
X157333030Y-98673730D01*
X157250754Y-98674257D01*
X157182521Y-98674979D01*
X157128923Y-98675892D01*
X157090555Y-98676990D01*
X157068012Y-98678269D01*
X157061733Y-98679518D01*
X157064510Y-98688220D01*
X157072650Y-98712077D01*
X157085870Y-98750282D01*
X157103886Y-98802025D01*
X157126414Y-98866500D01*
X157153170Y-98942897D01*
X157183869Y-99030409D01*
X157218229Y-99128227D01*
X157255964Y-99235542D01*
X157296792Y-99351548D01*
X157340427Y-99475435D01*
X157386587Y-99606396D01*
X157434987Y-99743621D01*
X157485343Y-99886304D01*
X157537371Y-100033635D01*
X157562259Y-100104082D01*
X157615161Y-100253804D01*
X157666650Y-100399536D01*
X157716435Y-100540449D01*
X157764222Y-100675713D01*
X157809717Y-100804497D01*
X157852628Y-100925973D01*
X157892661Y-101039310D01*
X157929525Y-101143679D01*
X157962925Y-101238250D01*
X157992568Y-101322193D01*
X158018162Y-101394679D01*
X158039413Y-101454878D01*
X158056029Y-101501961D01*
X158067716Y-101535097D01*
X158074181Y-101553457D01*
X158075288Y-101556617D01*
X158087792Y-101592600D01*
X158815129Y-101592600D01*
X158952623Y-101592535D01*
G37*
X158952623Y-101592535D02*
X159073849Y-101592335D01*
X159179471Y-101591992D01*
X159270154Y-101591496D01*
X159346563Y-101590838D01*
X159409361Y-101590011D01*
X159459214Y-101589005D01*
X159496787Y-101587812D01*
X159522743Y-101586422D01*
X159537747Y-101584828D01*
X159542466Y-101583061D01*
X159539732Y-101573304D01*
X159531912Y-101549265D01*
X159519581Y-101512620D01*
X159503316Y-101465047D01*
X159483692Y-101408221D01*
X159461284Y-101343821D01*
X159436667Y-101273522D01*
X159419700Y-101225306D01*
X159393976Y-101152203D01*
X159370082Y-101084031D01*
X159348590Y-101022445D01*
X159330076Y-100969104D01*
X159315113Y-100925662D01*
X159304274Y-100893778D01*
X159298133Y-100875108D01*
X159296933Y-100870830D01*
X159305339Y-100870543D01*
X159330315Y-100870255D01*
X159371496Y-100869965D01*
X159428520Y-100869673D01*
X159501022Y-100869381D01*
X159588639Y-100869089D01*
X159691007Y-100868796D01*
X159807763Y-100868503D01*
X159938541Y-100868212D01*
X160082980Y-100867921D01*
X160240715Y-100867632D01*
X160411382Y-100867344D01*
X160594618Y-100867059D01*
X160790059Y-100866777D01*
X160997341Y-100866497D01*
X161216101Y-100866221D01*
X161445975Y-100865949D01*
X161686599Y-100865681D01*
X161937609Y-100865418D01*
X162198642Y-100865160D01*
X162469333Y-100864907D01*
X162749320Y-100864660D01*
X163038239Y-100864419D01*
X163335725Y-100864184D01*
X163641416Y-100863957D01*
X163954947Y-100863736D01*
X164275954Y-100863524D01*
X164604074Y-100863320D01*
X164938944Y-100863124D01*
X165280199Y-100862937D01*
X165627476Y-100862759D01*
X165980411Y-100862591D01*
X166338640Y-100862433D01*
X166701800Y-100862286D01*
X167069527Y-100862149D01*
X167441457Y-100862024D01*
X167520183Y-100861999D01*
X175743433Y-100859428D01*
X175850513Y-100841323D01*
X176023796Y-100806156D01*
X176184853Y-100760912D01*
X176335727Y-100704632D01*
X176478460Y-100636359D01*
X176615097Y-100555133D01*
X176747678Y-100459996D01*
X176856747Y-100369213D01*
X176985283Y-100244698D01*
X177103045Y-100108461D01*
X177209019Y-99962185D01*
X177302193Y-99807552D01*
X177381550Y-99646244D01*
X177446078Y-99479944D01*
X177494645Y-99310833D01*
X177527767Y-99136447D01*
X177546213Y-98955630D01*
X177549817Y-98770686D01*
X177543407Y-98639862D01*
X177525234Y-98467142D01*
X177498135Y-98307084D01*
X177461609Y-98157663D01*
X177415160Y-98016856D01*
X177358288Y-97882639D01*
X177355422Y-97876611D01*
X177302618Y-97772254D01*
X177249276Y-97680417D01*
X177192483Y-97596855D01*
X177129326Y-97517322D01*
X177056894Y-97437572D01*
X177047827Y-97428184D01*
X176935290Y-97321317D01*
X176817001Y-97227228D01*
X176689530Y-97143439D01*
X176549448Y-97067470D01*
X176547767Y-97066640D01*
X176440394Y-97016905D01*
X176332649Y-96973798D01*
X176221190Y-96936292D01*
X176102677Y-96903355D01*
X175973768Y-96873958D01*
X175840800Y-96848750D01*
X175734967Y-96830297D01*
X166072383Y-96828049D01*
X165668139Y-96827960D01*
X165267994Y-96827884D01*
X164872283Y-96827819D01*
X164481341Y-96827766D01*
X164095504Y-96827725D01*
X163715108Y-96827695D01*
X163340488Y-96827676D01*
X162971980Y-96827669D01*
X162609919Y-96827672D01*
X162254641Y-96827687D01*
X161906482Y-96827712D01*
X161565776Y-96827747D01*
X161232859Y-96827793D01*
X160908068Y-96827849D01*
X160591737Y-96827916D01*
X160284202Y-96827992D01*
X159985799Y-96828078D01*
X159696862Y-96828174D01*
X159417729Y-96828279D01*
X159148733Y-96828394D01*
X158890211Y-96828518D01*
X158642499Y-96828651D01*
X158405931Y-96828793D01*
X158180843Y-96828944D01*
X157967572Y-96829103D01*
X157766452Y-96829271D01*
X157577818Y-96829448D01*
X157402007Y-96829632D01*
X157239355Y-96829825D01*
X157090195Y-96830026D01*
X156954865Y-96830234D01*
X156833700Y-96830450D01*
X156727034Y-96830673D01*
X156635204Y-96830904D01*
X156558546Y-96831142D01*
X156497394Y-96831388D01*
X156452085Y-96831640D01*
X156422953Y-96831898D01*
X156410335Y-96832164D01*
X156409800Y-96832232D01*
X156412555Y-96841008D01*
X156420546Y-96864578D01*
X156433365Y-96901769D01*
X156450601Y-96951412D01*
X156471846Y-97012334D01*
X156496690Y-97083365D01*
X156524722Y-97163334D01*
X156555535Y-97251068D01*
X156588718Y-97345398D01*
X156623862Y-97445153D01*
X156650329Y-97520182D01*
X156890858Y-98201700D01*
X166274812Y-98205933D01*
X175658767Y-98210166D01*
X175722267Y-98228356D01*
X175815371Y-98261261D01*
X175895341Y-98303177D01*
X175962520Y-98354657D01*
X176017249Y-98416253D01*
X176059872Y-98488519D01*
X176090732Y-98572008D01*
X176110170Y-98667272D01*
X176118531Y-98774866D01*
X176117640Y-98866333D01*
X176106494Y-98982445D01*
X176083326Y-99086635D01*
X176048128Y-99178913D01*
X176000893Y-99259289D01*
X175941616Y-99327773D01*
X175870288Y-99384374D01*
X175786902Y-99429101D01*
X175696702Y-99460552D01*
X175624900Y-99480166D01*
X158803370Y-99480166D01*
X158661490Y-99078000D01*
X158519610Y-98675833D01*
X157790671Y-98673669D01*
X157658169Y-98673368D01*
X157537331Y-98673281D01*
X157428754Y-98673403D01*
X157333030Y-98673730D01*
X157250754Y-98674257D01*
X157182521Y-98674979D01*
X157128923Y-98675892D01*
X157090555Y-98676990D01*
X157068012Y-98678269D01*
X157061733Y-98679518D01*
X157064510Y-98688220D01*
X157072650Y-98712077D01*
X157085870Y-98750282D01*
X157103886Y-98802025D01*
X157126414Y-98866500D01*
X157153170Y-98942897D01*
X157183869Y-99030409D01*
X157218229Y-99128227D01*
X157255964Y-99235542D01*
X157296792Y-99351548D01*
X157340427Y-99475435D01*
X157386587Y-99606396D01*
X157434987Y-99743621D01*
X157485343Y-99886304D01*
X157537371Y-100033635D01*
X157562259Y-100104082D01*
X157615161Y-100253804D01*
X157666650Y-100399536D01*
X157716435Y-100540449D01*
X157764222Y-100675713D01*
X157809717Y-100804497D01*
X157852628Y-100925973D01*
X157892661Y-101039310D01*
X157929525Y-101143679D01*
X157962925Y-101238250D01*
X157992568Y-101322193D01*
X158018162Y-101394679D01*
X158039413Y-101454878D01*
X158056029Y-101501961D01*
X158067716Y-101535097D01*
X158074181Y-101553457D01*
X158075288Y-101556617D01*
X158087792Y-101592600D01*
X158815129Y-101592600D01*
X158952623Y-101592535D01*
G36*
X171114164Y-103437305D02*
G01*
X171470356Y-103437285D01*
X171811264Y-103437245D01*
X172137053Y-103437186D01*
X172447888Y-103437108D01*
X172743933Y-103437010D01*
X173025355Y-103436893D01*
X173292317Y-103436756D01*
X173544985Y-103436600D01*
X173783523Y-103436423D01*
X174008098Y-103436226D01*
X174218872Y-103436009D01*
X174416012Y-103435772D01*
X174599683Y-103435514D01*
X174770048Y-103435236D01*
X174927274Y-103434937D01*
X175071525Y-103434617D01*
X175202967Y-103434276D01*
X175321763Y-103433914D01*
X175428079Y-103433531D01*
X175522080Y-103433127D01*
X175603932Y-103432701D01*
X175673798Y-103432253D01*
X175731843Y-103431784D01*
X175778234Y-103431292D01*
X175813134Y-103430779D01*
X175836708Y-103430244D01*
X175845033Y-103429934D01*
X176123540Y-103411220D01*
X176389480Y-103381985D01*
X176643853Y-103341842D01*
X176887659Y-103290404D01*
X177121898Y-103227285D01*
X177347569Y-103152098D01*
X177565671Y-103064455D01*
X177777205Y-102963970D01*
X177983169Y-102850257D01*
X178184564Y-102722928D01*
X178382389Y-102581596D01*
X178577643Y-102425875D01*
X178689833Y-102329054D01*
X178745325Y-102278218D01*
X178808260Y-102217825D01*
X178875548Y-102151052D01*
X178944101Y-102081075D01*
X179010826Y-102011072D01*
X179072636Y-101944219D01*
X179126438Y-101883692D01*
X179150489Y-101855458D01*
X179322359Y-101636755D01*
X179479706Y-101409571D01*
X179622393Y-101174361D01*
X179750283Y-100931578D01*
X179863238Y-100681674D01*
X179961120Y-100425104D01*
X180043793Y-100162320D01*
X180111118Y-99893775D01*
X180162959Y-99619924D01*
X180199178Y-99341219D01*
X180219638Y-99058114D01*
X180224201Y-98771062D01*
X180212729Y-98480515D01*
X180204855Y-98377549D01*
X180172123Y-98091310D01*
X180123755Y-97811528D01*
X180059758Y-97538226D01*
X179980139Y-97271431D01*
X179884905Y-97011166D01*
X179774062Y-96757454D01*
X179718282Y-96643833D01*
X179592153Y-96412257D01*
X179454802Y-96192189D01*
X179305068Y-95982038D01*
X179141788Y-95780213D01*
X178963800Y-95585123D01*
X178891538Y-95511899D01*
X178790362Y-95413716D01*
X178695086Y-95326253D01*
X178601876Y-95246376D01*
X178506895Y-95170951D01*
X178406310Y-95096842D01*
X178296284Y-95020916D01*
X178266500Y-95001048D01*
X178072334Y-94879207D01*
X177878732Y-94771959D01*
X177682002Y-94677508D01*
X177478456Y-94594056D01*
X177305533Y-94533119D01*
X177166507Y-94488678D01*
X177035360Y-94449626D01*
X176909264Y-94415399D01*
X176785385Y-94385434D01*
X176660893Y-94359165D01*
X176532957Y-94336028D01*
X176398745Y-94315459D01*
X176255427Y-94296894D01*
X176100171Y-94279768D01*
X175972033Y-94267329D01*
X175962397Y-94266782D01*
X175945339Y-94266250D01*
X175920628Y-94265731D01*
X175888033Y-94265225D01*
X175847324Y-94264733D01*
X175798270Y-94264254D01*
X175740641Y-94263787D01*
X175674205Y-94263333D01*
X175598733Y-94262890D01*
X175513993Y-94262458D01*
X175419754Y-94262038D01*
X175315787Y-94261628D01*
X175201859Y-94261229D01*
X175077742Y-94260839D01*
X174943203Y-94260460D01*
X174798013Y-94260089D01*
X174641940Y-94259727D01*
X174474755Y-94259374D01*
X174296225Y-94259029D01*
X174106122Y-94258692D01*
X173904213Y-94258362D01*
X173690268Y-94258039D01*
X173464057Y-94257724D01*
X173225348Y-94257414D01*
X172973912Y-94257111D01*
X172709517Y-94256813D01*
X172431934Y-94256520D01*
X172140930Y-94256233D01*
X171836276Y-94255950D01*
X171517740Y-94255671D01*
X171185093Y-94255396D01*
X170838103Y-94255125D01*
X170476540Y-94254856D01*
X170100172Y-94254591D01*
X169708771Y-94254328D01*
X169302103Y-94254067D01*
X168879940Y-94253808D01*
X168442050Y-94253550D01*
X167988203Y-94253293D01*
X167518168Y-94253037D01*
X167031714Y-94252781D01*
X166528611Y-94252525D01*
X166410047Y-94252466D01*
X156958128Y-94247767D01*
X156572672Y-93155567D01*
X155839448Y-93153403D01*
X155106223Y-93151240D01*
X155138370Y-93242303D01*
X155144969Y-93260997D01*
X155156856Y-93294671D01*
X155173683Y-93342337D01*
X155195101Y-93403009D01*
X155220761Y-93475699D01*
X155250315Y-93559420D01*
X155283415Y-93653183D01*
X155319711Y-93756002D01*
X155358855Y-93866889D01*
X155400499Y-93984857D01*
X155444294Y-94108918D01*
X155489891Y-94238085D01*
X155536942Y-94371371D01*
X155576227Y-94482656D01*
X155981938Y-95631946D01*
X165972752Y-95634348D01*
X166469181Y-95634468D01*
X166948964Y-95634586D01*
X167412388Y-95634703D01*
X167859740Y-95634818D01*
X168291306Y-95634933D01*
X168707374Y-95635048D01*
X169108231Y-95635164D01*
X169494165Y-95635280D01*
X169865461Y-95635398D01*
X170222407Y-95635517D01*
X170565291Y-95635639D01*
X170894399Y-95635764D01*
X171210018Y-95635892D01*
X171512435Y-95636024D01*
X171801937Y-95636160D01*
X172078812Y-95636302D01*
X172343347Y-95636448D01*
X172595828Y-95636600D01*
X172836542Y-95636758D01*
X173065777Y-95636923D01*
X173283820Y-95637096D01*
X173490957Y-95637276D01*
X173687476Y-95637464D01*
X173873664Y-95637661D01*
X174049807Y-95637867D01*
X174216194Y-95638083D01*
X174373110Y-95638309D01*
X174520844Y-95638545D01*
X174659681Y-95638793D01*
X174789909Y-95639052D01*
X174911816Y-95639324D01*
X175025688Y-95639608D01*
X175131811Y-95639905D01*
X175230475Y-95640215D01*
X175321964Y-95640540D01*
X175406567Y-95640879D01*
X175484570Y-95641233D01*
X175556261Y-95641603D01*
X175621926Y-95641988D01*
X175681852Y-95642390D01*
X175736327Y-95642809D01*
X175785638Y-95643246D01*
X175830072Y-95643700D01*
X175869915Y-95644173D01*
X175905455Y-95644665D01*
X175936979Y-95645176D01*
X175964774Y-95645707D01*
X175989126Y-95646258D01*
X176010324Y-95646830D01*
X176028653Y-95647424D01*
X176044402Y-95648039D01*
X176057857Y-95648677D01*
X176069305Y-95649337D01*
X176079033Y-95650021D01*
X176087329Y-95650728D01*
X176094478Y-95651460D01*
X176094800Y-95651496D01*
X176226395Y-95667857D01*
X176345120Y-95686137D01*
X176455004Y-95707116D01*
X176560071Y-95731574D01*
X176664348Y-95760290D01*
X176679000Y-95764660D01*
X176890549Y-95835744D01*
X177090063Y-95918233D01*
X177278528Y-96012705D01*
X177456928Y-96119739D01*
X177626248Y-96239912D01*
X177787473Y-96373803D01*
X177903065Y-96482966D01*
X177967719Y-96548332D01*
X178022545Y-96606373D01*
X178070585Y-96660771D01*
X178114883Y-96715205D01*
X178158481Y-96773354D01*
X178204421Y-96838900D01*
X178235621Y-96885174D01*
X178343869Y-97062581D01*
X178439421Y-97250982D01*
X178522208Y-97450089D01*
X178592162Y-97659614D01*
X178649213Y-97879269D01*
X178693292Y-98108765D01*
X178724330Y-98347813D01*
X178742258Y-98596125D01*
X178747006Y-98853413D01*
X178743716Y-99006033D01*
X178727816Y-99254537D01*
X178698256Y-99494838D01*
X178655171Y-99726579D01*
X178598698Y-99949407D01*
X178528973Y-100162967D01*
X178446132Y-100366903D01*
X178350312Y-100560860D01*
X178241650Y-100744485D01*
X178120281Y-100917420D01*
X177986342Y-101079313D01*
X177919684Y-101150869D01*
X177783287Y-101283322D01*
X177642209Y-101402901D01*
X177493655Y-101511626D01*
X177334830Y-101611515D01*
X177162941Y-101704587D01*
X177131967Y-101720001D01*
X176957737Y-101799803D01*
X176782311Y-101868081D01*
X176602912Y-101925629D01*
X176416764Y-101973245D01*
X176221090Y-102011723D01*
X176013113Y-102041859D01*
X176005900Y-102042734D01*
X175997635Y-102043299D01*
X175982201Y-102043847D01*
X175959353Y-102044378D01*
X175928849Y-102044893D01*
X175890447Y-102045392D01*
X175843903Y-102045875D01*
X175788976Y-102046342D01*
X175725422Y-102046795D01*
X175652999Y-102047233D01*
X175571464Y-102047657D01*
X175480574Y-102048067D01*
X175380086Y-102048464D01*
X175269759Y-102048847D01*
X175149349Y-102049217D01*
X175018613Y-102049575D01*
X174877309Y-102049920D01*
X174725194Y-102050254D01*
X174562025Y-102050577D01*
X174387561Y-102050888D01*
X174201557Y-102051188D01*
X174003771Y-102051479D01*
X173793961Y-102051759D01*
X173571883Y-102052029D01*
X173337296Y-102052290D01*
X173089957Y-102052542D01*
X172829622Y-102052785D01*
X172556049Y-102053020D01*
X172268995Y-102053248D01*
X171968218Y-102053467D01*
X171653475Y-102053680D01*
X171324524Y-102053885D01*
X170981120Y-102054084D01*
X170623023Y-102054277D01*
X170249989Y-102054464D01*
X169861775Y-102054645D01*
X169458138Y-102054822D01*
X169038837Y-102054993D01*
X168603628Y-102055160D01*
X168152269Y-102055324D01*
X167684517Y-102055483D01*
X167200129Y-102055639D01*
X167088383Y-102055674D01*
X166701973Y-102055800D01*
X166319676Y-102055936D01*
X165941845Y-102056083D01*
X165568829Y-102056239D01*
X165200980Y-102056405D01*
X164838648Y-102056580D01*
X164482185Y-102056764D01*
X164131942Y-102056956D01*
X163788269Y-102057157D01*
X163451518Y-102057365D01*
X163122039Y-102057581D01*
X162800184Y-102057803D01*
X162486303Y-102058032D01*
X162180746Y-102058268D01*
X161883867Y-102058509D01*
X161596014Y-102058756D01*
X161317539Y-102059008D01*
X161048793Y-102059265D01*
X160790128Y-102059527D01*
X160541893Y-102059792D01*
X160304440Y-102060062D01*
X160078119Y-102060335D01*
X159863283Y-102060610D01*
X159660281Y-102060889D01*
X159469465Y-102061170D01*
X159291185Y-102061452D01*
X159125793Y-102061737D01*
X158973639Y-102062022D01*
X158835074Y-102062309D01*
X158710450Y-102062596D01*
X158600117Y-102062883D01*
X158504427Y-102063170D01*
X158423729Y-102063457D01*
X158358376Y-102063742D01*
X158308717Y-102064026D01*
X158275105Y-102064309D01*
X158257889Y-102064589D01*
X158255533Y-102064737D01*
X158258288Y-102073497D01*
X158266279Y-102097051D01*
X158279097Y-102134227D01*
X158296333Y-102183855D01*
X158317578Y-102244764D01*
X158342420Y-102315783D01*
X158370453Y-102395740D01*
X158401265Y-102483466D01*
X158434447Y-102577789D01*
X158469590Y-102677538D01*
X158496062Y-102752582D01*
X158736591Y-103434100D01*
X167193445Y-103436655D01*
X167694615Y-103436800D01*
X168179016Y-103436927D01*
X168646814Y-103437036D01*
X169098173Y-103437127D01*
X169533259Y-103437200D01*
X169952236Y-103437254D01*
X170355269Y-103437290D01*
X170742523Y-103437307D01*
X171114164Y-103437305D01*
G37*
X171114164Y-103437305D02*
X171470356Y-103437285D01*
X171811264Y-103437245D01*
X172137053Y-103437186D01*
X172447888Y-103437108D01*
X172743933Y-103437010D01*
X173025355Y-103436893D01*
X173292317Y-103436756D01*
X173544985Y-103436600D01*
X173783523Y-103436423D01*
X174008098Y-103436226D01*
X174218872Y-103436009D01*
X174416012Y-103435772D01*
X174599683Y-103435514D01*
X174770048Y-103435236D01*
X174927274Y-103434937D01*
X175071525Y-103434617D01*
X175202967Y-103434276D01*
X175321763Y-103433914D01*
X175428079Y-103433531D01*
X175522080Y-103433127D01*
X175603932Y-103432701D01*
X175673798Y-103432253D01*
X175731843Y-103431784D01*
X175778234Y-103431292D01*
X175813134Y-103430779D01*
X175836708Y-103430244D01*
X175845033Y-103429934D01*
X176123540Y-103411220D01*
X176389480Y-103381985D01*
X176643853Y-103341842D01*
X176887659Y-103290404D01*
X177121898Y-103227285D01*
X177347569Y-103152098D01*
X177565671Y-103064455D01*
X177777205Y-102963970D01*
X177983169Y-102850257D01*
X178184564Y-102722928D01*
X178382389Y-102581596D01*
X178577643Y-102425875D01*
X178689833Y-102329054D01*
X178745325Y-102278218D01*
X178808260Y-102217825D01*
X178875548Y-102151052D01*
X178944101Y-102081075D01*
X179010826Y-102011072D01*
X179072636Y-101944219D01*
X179126438Y-101883692D01*
X179150489Y-101855458D01*
X179322359Y-101636755D01*
X179479706Y-101409571D01*
X179622393Y-101174361D01*
X179750283Y-100931578D01*
X179863238Y-100681674D01*
X179961120Y-100425104D01*
X180043793Y-100162320D01*
X180111118Y-99893775D01*
X180162959Y-99619924D01*
X180199178Y-99341219D01*
X180219638Y-99058114D01*
X180224201Y-98771062D01*
X180212729Y-98480515D01*
X180204855Y-98377549D01*
X180172123Y-98091310D01*
X180123755Y-97811528D01*
X180059758Y-97538226D01*
X179980139Y-97271431D01*
X179884905Y-97011166D01*
X179774062Y-96757454D01*
X179718282Y-96643833D01*
X179592153Y-96412257D01*
X179454802Y-96192189D01*
X179305068Y-95982038D01*
X179141788Y-95780213D01*
X178963800Y-95585123D01*
X178891538Y-95511899D01*
X178790362Y-95413716D01*
X178695086Y-95326253D01*
X178601876Y-95246376D01*
X178506895Y-95170951D01*
X178406310Y-95096842D01*
X178296284Y-95020916D01*
X178266500Y-95001048D01*
X178072334Y-94879207D01*
X177878732Y-94771959D01*
X177682002Y-94677508D01*
X177478456Y-94594056D01*
X177305533Y-94533119D01*
X177166507Y-94488678D01*
X177035360Y-94449626D01*
X176909264Y-94415399D01*
X176785385Y-94385434D01*
X176660893Y-94359165D01*
X176532957Y-94336028D01*
X176398745Y-94315459D01*
X176255427Y-94296894D01*
X176100171Y-94279768D01*
X175972033Y-94267329D01*
X175962397Y-94266782D01*
X175945339Y-94266250D01*
X175920628Y-94265731D01*
X175888033Y-94265225D01*
X175847324Y-94264733D01*
X175798270Y-94264254D01*
X175740641Y-94263787D01*
X175674205Y-94263333D01*
X175598733Y-94262890D01*
X175513993Y-94262458D01*
X175419754Y-94262038D01*
X175315787Y-94261628D01*
X175201859Y-94261229D01*
X175077742Y-94260839D01*
X174943203Y-94260460D01*
X174798013Y-94260089D01*
X174641940Y-94259727D01*
X174474755Y-94259374D01*
X174296225Y-94259029D01*
X174106122Y-94258692D01*
X173904213Y-94258362D01*
X173690268Y-94258039D01*
X173464057Y-94257724D01*
X173225348Y-94257414D01*
X172973912Y-94257111D01*
X172709517Y-94256813D01*
X172431934Y-94256520D01*
X172140930Y-94256233D01*
X171836276Y-94255950D01*
X171517740Y-94255671D01*
X171185093Y-94255396D01*
X170838103Y-94255125D01*
X170476540Y-94254856D01*
X170100172Y-94254591D01*
X169708771Y-94254328D01*
X169302103Y-94254067D01*
X168879940Y-94253808D01*
X168442050Y-94253550D01*
X167988203Y-94253293D01*
X167518168Y-94253037D01*
X167031714Y-94252781D01*
X166528611Y-94252525D01*
X166410047Y-94252466D01*
X156958128Y-94247767D01*
X156572672Y-93155567D01*
X155839448Y-93153403D01*
X155106223Y-93151240D01*
X155138370Y-93242303D01*
X155144969Y-93260997D01*
X155156856Y-93294671D01*
X155173683Y-93342337D01*
X155195101Y-93403009D01*
X155220761Y-93475699D01*
X155250315Y-93559420D01*
X155283415Y-93653183D01*
X155319711Y-93756002D01*
X155358855Y-93866889D01*
X155400499Y-93984857D01*
X155444294Y-94108918D01*
X155489891Y-94238085D01*
X155536942Y-94371371D01*
X155576227Y-94482656D01*
X155981938Y-95631946D01*
X165972752Y-95634348D01*
X166469181Y-95634468D01*
X166948964Y-95634586D01*
X167412388Y-95634703D01*
X167859740Y-95634818D01*
X168291306Y-95634933D01*
X168707374Y-95635048D01*
X169108231Y-95635164D01*
X169494165Y-95635280D01*
X169865461Y-95635398D01*
X170222407Y-95635517D01*
X170565291Y-95635639D01*
X170894399Y-95635764D01*
X171210018Y-95635892D01*
X171512435Y-95636024D01*
X171801937Y-95636160D01*
X172078812Y-95636302D01*
X172343347Y-95636448D01*
X172595828Y-95636600D01*
X172836542Y-95636758D01*
X173065777Y-95636923D01*
X173283820Y-95637096D01*
X173490957Y-95637276D01*
X173687476Y-95637464D01*
X173873664Y-95637661D01*
X174049807Y-95637867D01*
X174216194Y-95638083D01*
X174373110Y-95638309D01*
X174520844Y-95638545D01*
X174659681Y-95638793D01*
X174789909Y-95639052D01*
X174911816Y-95639324D01*
X175025688Y-95639608D01*
X175131811Y-95639905D01*
X175230475Y-95640215D01*
X175321964Y-95640540D01*
X175406567Y-95640879D01*
X175484570Y-95641233D01*
X175556261Y-95641603D01*
X175621926Y-95641988D01*
X175681852Y-95642390D01*
X175736327Y-95642809D01*
X175785638Y-95643246D01*
X175830072Y-95643700D01*
X175869915Y-95644173D01*
X175905455Y-95644665D01*
X175936979Y-95645176D01*
X175964774Y-95645707D01*
X175989126Y-95646258D01*
X176010324Y-95646830D01*
X176028653Y-95647424D01*
X176044402Y-95648039D01*
X176057857Y-95648677D01*
X176069305Y-95649337D01*
X176079033Y-95650021D01*
X176087329Y-95650728D01*
X176094478Y-95651460D01*
X176094800Y-95651496D01*
X176226395Y-95667857D01*
X176345120Y-95686137D01*
X176455004Y-95707116D01*
X176560071Y-95731574D01*
X176664348Y-95760290D01*
X176679000Y-95764660D01*
X176890549Y-95835744D01*
X177090063Y-95918233D01*
X177278528Y-96012705D01*
X177456928Y-96119739D01*
X177626248Y-96239912D01*
X177787473Y-96373803D01*
X177903065Y-96482966D01*
X177967719Y-96548332D01*
X178022545Y-96606373D01*
X178070585Y-96660771D01*
X178114883Y-96715205D01*
X178158481Y-96773354D01*
X178204421Y-96838900D01*
X178235621Y-96885174D01*
X178343869Y-97062581D01*
X178439421Y-97250982D01*
X178522208Y-97450089D01*
X178592162Y-97659614D01*
X178649213Y-97879269D01*
X178693292Y-98108765D01*
X178724330Y-98347813D01*
X178742258Y-98596125D01*
X178747006Y-98853413D01*
X178743716Y-99006033D01*
X178727816Y-99254537D01*
X178698256Y-99494838D01*
X178655171Y-99726579D01*
X178598698Y-99949407D01*
X178528973Y-100162967D01*
X178446132Y-100366903D01*
X178350312Y-100560860D01*
X178241650Y-100744485D01*
X178120281Y-100917420D01*
X177986342Y-101079313D01*
X177919684Y-101150869D01*
X177783287Y-101283322D01*
X177642209Y-101402901D01*
X177493655Y-101511626D01*
X177334830Y-101611515D01*
X177162941Y-101704587D01*
X177131967Y-101720001D01*
X176957737Y-101799803D01*
X176782311Y-101868081D01*
X176602912Y-101925629D01*
X176416764Y-101973245D01*
X176221090Y-102011723D01*
X176013113Y-102041859D01*
X176005900Y-102042734D01*
X175997635Y-102043299D01*
X175982201Y-102043847D01*
X175959353Y-102044378D01*
X175928849Y-102044893D01*
X175890447Y-102045392D01*
X175843903Y-102045875D01*
X175788976Y-102046342D01*
X175725422Y-102046795D01*
X175652999Y-102047233D01*
X175571464Y-102047657D01*
X175480574Y-102048067D01*
X175380086Y-102048464D01*
X175269759Y-102048847D01*
X175149349Y-102049217D01*
X175018613Y-102049575D01*
X174877309Y-102049920D01*
X174725194Y-102050254D01*
X174562025Y-102050577D01*
X174387561Y-102050888D01*
X174201557Y-102051188D01*
X174003771Y-102051479D01*
X173793961Y-102051759D01*
X173571883Y-102052029D01*
X173337296Y-102052290D01*
X173089957Y-102052542D01*
X172829622Y-102052785D01*
X172556049Y-102053020D01*
X172268995Y-102053248D01*
X171968218Y-102053467D01*
X171653475Y-102053680D01*
X171324524Y-102053885D01*
X170981120Y-102054084D01*
X170623023Y-102054277D01*
X170249989Y-102054464D01*
X169861775Y-102054645D01*
X169458138Y-102054822D01*
X169038837Y-102054993D01*
X168603628Y-102055160D01*
X168152269Y-102055324D01*
X167684517Y-102055483D01*
X167200129Y-102055639D01*
X167088383Y-102055674D01*
X166701973Y-102055800D01*
X166319676Y-102055936D01*
X165941845Y-102056083D01*
X165568829Y-102056239D01*
X165200980Y-102056405D01*
X164838648Y-102056580D01*
X164482185Y-102056764D01*
X164131942Y-102056956D01*
X163788269Y-102057157D01*
X163451518Y-102057365D01*
X163122039Y-102057581D01*
X162800184Y-102057803D01*
X162486303Y-102058032D01*
X162180746Y-102058268D01*
X161883867Y-102058509D01*
X161596014Y-102058756D01*
X161317539Y-102059008D01*
X161048793Y-102059265D01*
X160790128Y-102059527D01*
X160541893Y-102059792D01*
X160304440Y-102060062D01*
X160078119Y-102060335D01*
X159863283Y-102060610D01*
X159660281Y-102060889D01*
X159469465Y-102061170D01*
X159291185Y-102061452D01*
X159125793Y-102061737D01*
X158973639Y-102062022D01*
X158835074Y-102062309D01*
X158710450Y-102062596D01*
X158600117Y-102062883D01*
X158504427Y-102063170D01*
X158423729Y-102063457D01*
X158358376Y-102063742D01*
X158308717Y-102064026D01*
X158275105Y-102064309D01*
X158257889Y-102064589D01*
X158255533Y-102064737D01*
X158258288Y-102073497D01*
X158266279Y-102097051D01*
X158279097Y-102134227D01*
X158296333Y-102183855D01*
X158317578Y-102244764D01*
X158342420Y-102315783D01*
X158370453Y-102395740D01*
X158401265Y-102483466D01*
X158434447Y-102577789D01*
X158469590Y-102677538D01*
X158496062Y-102752582D01*
X158736591Y-103434100D01*
X167193445Y-103436655D01*
X167694615Y-103436800D01*
X168179016Y-103436927D01*
X168646814Y-103437036D01*
X169098173Y-103437127D01*
X169533259Y-103437200D01*
X169952236Y-103437254D01*
X170355269Y-103437290D01*
X170742523Y-103437307D01*
X171114164Y-103437305D01*
D11*
%TO.C,L3*%
X106015200Y-92432264D02*
X106015200Y-91228136D01*
X104195200Y-92432264D02*
X104195200Y-91228136D01*
%TO.C,J3*%
X96723000Y-84764767D02*
X96723000Y-86461233D01*
X96723000Y-81764767D02*
X96723000Y-83461233D01*
X96723000Y-78764767D02*
X96723000Y-80461233D01*
X96723000Y-76123000D02*
X96723000Y-77461233D01*
X96723000Y-90548000D02*
X96723000Y-87764767D01*
X96723000Y-71678000D02*
X96723000Y-74103000D01*
X87603000Y-90548000D02*
X96723000Y-90548000D01*
X86603000Y-89548000D02*
X87603000Y-90548000D01*
X86603000Y-72678000D02*
X86603000Y-89548000D01*
X87603000Y-71678000D02*
X86603000Y-72678000D01*
X96723000Y-71678000D02*
X87603000Y-71678000D01*
%TO.C,J1*%
X114864800Y-59510000D02*
X113526567Y-59510000D01*
X109439800Y-59510000D02*
X112223033Y-59510000D01*
X119309800Y-59510000D02*
X116884800Y-59510000D01*
X109439800Y-50390000D02*
X109439800Y-59510000D01*
X110439800Y-49390000D02*
X109439800Y-50390000D01*
X118309800Y-49390000D02*
X110439800Y-49390000D01*
X119309800Y-50390000D02*
X118309800Y-49390000D01*
X119309800Y-59510000D02*
X119309800Y-50390000D01*
%TO.C,C24*%
X104643600Y-85568064D02*
X104643600Y-84363936D01*
X102823600Y-85568064D02*
X102823600Y-84363936D01*
%TO.C,C23*%
X107310600Y-85536664D02*
X107310600Y-84332536D01*
X105490600Y-85536664D02*
X105490600Y-84332536D01*
%TO.C,U3*%
X110921500Y-107837500D02*
X112021500Y-107837500D01*
X110921500Y-108787500D02*
X110921500Y-107837500D01*
X109421500Y-108787500D02*
X110921500Y-108787500D01*
X110921500Y-99337500D02*
X116046500Y-99337500D01*
X110921500Y-98387500D02*
X110921500Y-99337500D01*
X109421500Y-98387500D02*
X110921500Y-98387500D01*
%TO.C,R21*%
X158819436Y-73075000D02*
X160023564Y-73075000D01*
X158819436Y-74895000D02*
X160023564Y-74895000D01*
%TO.C,C16*%
X128964936Y-93895500D02*
X130169064Y-93895500D01*
X128964936Y-95715500D02*
X130169064Y-95715500D01*
%TO.C,R23*%
X159937564Y-79848000D02*
X158733436Y-79848000D01*
X159937564Y-78028000D02*
X158733436Y-78028000D01*
%TO.C,U4*%
X137537900Y-85121300D02*
X131527900Y-85121300D01*
X135287900Y-91941300D02*
X131527900Y-91941300D01*
X131527900Y-85121300D02*
X131527900Y-86381300D01*
X131527900Y-91941300D02*
X131527900Y-90681300D01*
%TO.C,U2*%
X117561500Y-73286000D02*
X117561500Y-76736000D01*
X117561500Y-73286000D02*
X117561500Y-71336000D01*
X112441500Y-73286000D02*
X112441500Y-75236000D01*
X112441500Y-73286000D02*
X112441500Y-71336000D01*
%TO.C,R17*%
X168271436Y-72694000D02*
X169475564Y-72694000D01*
X168271436Y-74514000D02*
X169475564Y-74514000D01*
%TO.C,R13*%
X178679564Y-80102000D02*
X177475436Y-80102000D01*
X178679564Y-78282000D02*
X177475436Y-78282000D01*
%TO.C,R8*%
X182266000Y-69719436D02*
X182266000Y-70923564D01*
X180446000Y-69719436D02*
X180446000Y-70923564D01*
%TO.C,R14*%
X142640936Y-79552000D02*
X143845064Y-79552000D01*
X142640936Y-81372000D02*
X143845064Y-81372000D01*
%TO.C,R12*%
X177475436Y-75742000D02*
X178679564Y-75742000D01*
X177475436Y-77562000D02*
X178679564Y-77562000D01*
%TO.C,R16*%
X173630000Y-69538436D02*
X173630000Y-70742564D01*
X171810000Y-69538436D02*
X171810000Y-70742564D01*
%TO.C,R11*%
X142640936Y-77012000D02*
X143845064Y-77012000D01*
X142640936Y-78832000D02*
X143845064Y-78832000D01*
%TO.C,R19*%
X169535564Y-79467000D02*
X168331436Y-79467000D01*
X169535564Y-77647000D02*
X168331436Y-77647000D01*
%TO.C,R10*%
X145944000Y-70989436D02*
X145944000Y-72193564D01*
X144124000Y-70989436D02*
X144124000Y-72193564D01*
%TO.C,R15*%
X143627564Y-83912000D02*
X142423436Y-83912000D01*
X143627564Y-82092000D02*
X142423436Y-82092000D01*
%TO.C,R6*%
X149589436Y-75234000D02*
X150793564Y-75234000D01*
X149589436Y-77054000D02*
X150793564Y-77054000D01*
%TO.C,R5*%
X149589436Y-72694000D02*
X150793564Y-72694000D01*
X149589436Y-74514000D02*
X150793564Y-74514000D01*
%TO.C,R7*%
X150793564Y-79594000D02*
X149589436Y-79594000D01*
X150793564Y-77774000D02*
X149589436Y-77774000D01*
%TO.C,R18*%
X168258436Y-75107000D02*
X169462564Y-75107000D01*
X168258436Y-76927000D02*
X169462564Y-76927000D01*
%TO.C,R22*%
X158806436Y-75488000D02*
X160010564Y-75488000D01*
X158806436Y-77308000D02*
X160010564Y-77308000D01*
%TO.C,R9*%
X177475436Y-73329000D02*
X178679564Y-73329000D01*
X177475436Y-75149000D02*
X178679564Y-75149000D01*
%TO.C,R20*%
X164105000Y-69919436D02*
X164105000Y-71123564D01*
X162285000Y-69919436D02*
X162285000Y-71123564D01*
%TO.C,U6*%
X177288000Y-68675000D02*
X178688000Y-68675000D01*
X178688000Y-70995000D02*
X176788000Y-70995000D01*
%TO.C,U5*%
X150176000Y-68817000D02*
X151576000Y-68817000D01*
X151576000Y-71137000D02*
X149676000Y-71137000D01*
%TO.C,D7*%
X143909000Y-66538000D02*
X145369000Y-66538000D01*
X143909000Y-63378000D02*
X146069000Y-63378000D01*
X143909000Y-63378000D02*
X143909000Y-64308000D01*
X143909000Y-66538000D02*
X143909000Y-65608000D01*
%TO.C,D6*%
X177139000Y-67384000D02*
X178599000Y-67384000D01*
X177139000Y-64224000D02*
X179299000Y-64224000D01*
X177139000Y-64224000D02*
X177139000Y-65154000D01*
X177139000Y-67384000D02*
X177139000Y-66454000D01*
%TO.C,D9*%
X158339000Y-67940000D02*
X159799000Y-67940000D01*
X158339000Y-64780000D02*
X160499000Y-64780000D01*
X158339000Y-64780000D02*
X158339000Y-65710000D01*
X158339000Y-67940000D02*
X158339000Y-67010000D01*
%TO.C,D8*%
X168389000Y-67634000D02*
X169849000Y-67634000D01*
X168389000Y-64474000D02*
X170549000Y-64474000D01*
X168389000Y-64474000D02*
X168389000Y-65404000D01*
X168389000Y-67634000D02*
X168389000Y-66704000D01*
%TO.C,U9*%
X158939000Y-68944000D02*
X160339000Y-68944000D01*
X160339000Y-71264000D02*
X158439000Y-71264000D01*
%TO.C,U8*%
X168845000Y-69198000D02*
X170245000Y-69198000D01*
X170245000Y-71518000D02*
X168345000Y-71518000D01*
%TO.C,U7*%
X141474000Y-70356000D02*
X142874000Y-70356000D01*
X142874000Y-72676000D02*
X140974000Y-72676000D01*
%TO.C,D3*%
X115119500Y-92528500D02*
X109419500Y-92528500D01*
X115119500Y-96828500D02*
X109419500Y-96828500D01*
X115119500Y-92528500D02*
X115119500Y-96828500D01*
%TO.C,D2*%
X108137500Y-91748500D02*
X113837500Y-91748500D01*
X108137500Y-87448500D02*
X113837500Y-87448500D01*
X108137500Y-91748500D02*
X108137500Y-87448500D01*
%TO.C,C22*%
X159974064Y-82388000D02*
X158769936Y-82388000D01*
X159974064Y-80568000D02*
X158769936Y-80568000D01*
%TO.C,C21*%
X169535564Y-82007000D02*
X168331436Y-82007000D01*
X169535564Y-80187000D02*
X168331436Y-80187000D01*
%TO.C,C20*%
X143627564Y-86452000D02*
X142423436Y-86452000D01*
X143627564Y-84632000D02*
X142423436Y-84632000D01*
%TO.C,D4*%
X128784000Y-101210000D02*
X134484000Y-101210000D01*
X128784000Y-96910000D02*
X134484000Y-96910000D01*
X128784000Y-101210000D02*
X128784000Y-96910000D01*
%TO.C,R3*%
X114910064Y-64673000D02*
X113705936Y-64673000D01*
X114910064Y-62853000D02*
X113705936Y-62853000D01*
%TO.C,R4*%
X154834000Y-69792436D02*
X154834000Y-70996564D01*
X153014000Y-69792436D02*
X153014000Y-70996564D01*
%TO.C,C19*%
X178679564Y-82642000D02*
X177475436Y-82642000D01*
X178679564Y-80822000D02*
X177475436Y-80822000D01*
%TO.C,C12*%
X113978936Y-78211000D02*
X115183064Y-78211000D01*
X113978936Y-80031000D02*
X115183064Y-80031000D01*
%TO.C,C14*%
X118804936Y-99102500D02*
X120009064Y-99102500D01*
X118804936Y-100922500D02*
X120009064Y-100922500D01*
%TO.C,C13*%
X123469500Y-97238500D02*
X122469500Y-97238500D01*
X122969500Y-97738500D02*
X122969500Y-96738500D01*
X117163937Y-96498500D02*
X116099500Y-95434063D01*
X123755063Y-96498500D02*
X124819500Y-95434063D01*
X123755063Y-96498500D02*
X121969500Y-96498500D01*
X117163937Y-96498500D02*
X118949500Y-96498500D01*
X116099500Y-95434063D02*
X116099500Y-87778500D01*
X124819500Y-95434063D02*
X124819500Y-87778500D01*
X124819500Y-87778500D02*
X121969500Y-87778500D01*
X116099500Y-87778500D02*
X118949500Y-87778500D01*
%TO.C,C18*%
X150793564Y-82134000D02*
X149589436Y-82134000D01*
X150793564Y-80314000D02*
X149589436Y-80314000D01*
%TO.C,C17*%
X138201500Y-113240500D02*
X137201500Y-113240500D01*
X137701500Y-113740500D02*
X137701500Y-112740500D01*
X131895937Y-112500500D02*
X130831500Y-111436063D01*
X138487063Y-112500500D02*
X139551500Y-111436063D01*
X138487063Y-112500500D02*
X136701500Y-112500500D01*
X131895937Y-112500500D02*
X133681500Y-112500500D01*
X130831500Y-111436063D02*
X130831500Y-103780500D01*
X139551500Y-111436063D02*
X139551500Y-103780500D01*
X139551500Y-103780500D02*
X136701500Y-103780500D01*
X130831500Y-103780500D02*
X133681500Y-103780500D01*
%TO.C,C15*%
X135285564Y-95715500D02*
X134081436Y-95715500D01*
X135285564Y-93895500D02*
X134081436Y-93895500D01*
%TO.C,D5*%
X149289000Y-67427000D02*
X150749000Y-67427000D01*
X149289000Y-64267000D02*
X151449000Y-64267000D01*
X149289000Y-64267000D02*
X149289000Y-65197000D01*
X149289000Y-67427000D02*
X149289000Y-66497000D01*
%TO.C,F1*%
X102238000Y-90633248D02*
X102238000Y-95040752D01*
X96898000Y-90633248D02*
X96898000Y-95040752D01*
%TO.C,JP2*%
X101082800Y-53559400D02*
X101082800Y-54889400D01*
X102412800Y-53559400D02*
X101082800Y-53559400D01*
X103682800Y-53559400D02*
X103682800Y-56219400D01*
X103682800Y-56219400D02*
X106282800Y-56219400D01*
X103682800Y-53559400D02*
X106282800Y-53559400D01*
X106282800Y-53559400D02*
X106282800Y-56219400D01*
%TO.C,F2*%
X101283748Y-58607500D02*
X105691252Y-58607500D01*
X101283748Y-63947500D02*
X105691252Y-63947500D01*
%TO.C,L2*%
X129871000Y-101904000D02*
X126871000Y-101904000D01*
X129871000Y-114504000D02*
X129871000Y-101904000D01*
X126871000Y-114504000D02*
X129871000Y-114504000D01*
X117271000Y-114504000D02*
X120271000Y-114504000D01*
X117271000Y-101904000D02*
X117271000Y-114504000D01*
X120271000Y-101904000D02*
X117271000Y-101904000D01*
%TO.C,D1*%
X112340500Y-66603000D02*
X112340500Y-68063000D01*
X115500500Y-66603000D02*
X115500500Y-68763000D01*
X115500500Y-66603000D02*
X114570500Y-66603000D01*
X112340500Y-66603000D02*
X113270500Y-66603000D01*
%TO.C,L3*%
D12*
X107377580Y-91663533D02*
X107377580Y-91187342D01*
X106377580Y-91187342D01*
X106377580Y-91901628D02*
X106377580Y-92520676D01*
X106758533Y-92187342D01*
X106758533Y-92330200D01*
X106806152Y-92425438D01*
X106853771Y-92473057D01*
X106949009Y-92520676D01*
X107187104Y-92520676D01*
X107282342Y-92473057D01*
X107329961Y-92425438D01*
X107377580Y-92330200D01*
X107377580Y-92044485D01*
X107329961Y-91949247D01*
X107282342Y-91901628D01*
%TO.C,J3*%
X84965380Y-80779666D02*
X85679666Y-80779666D01*
X85822523Y-80732047D01*
X85917761Y-80636809D01*
X85965380Y-80493952D01*
X85965380Y-80398714D01*
X84965380Y-81160619D02*
X84965380Y-81779666D01*
X85346333Y-81446333D01*
X85346333Y-81589190D01*
X85393952Y-81684428D01*
X85441571Y-81732047D01*
X85536809Y-81779666D01*
X85774904Y-81779666D01*
X85870142Y-81732047D01*
X85917761Y-81684428D01*
X85965380Y-81589190D01*
X85965380Y-81303476D01*
X85917761Y-81208238D01*
X85870142Y-81160619D01*
%TO.C,J1*%
X114708133Y-47752380D02*
X114708133Y-48466666D01*
X114755752Y-48609523D01*
X114850990Y-48704761D01*
X114993847Y-48752380D01*
X115089085Y-48752380D01*
X113708133Y-48752380D02*
X114279561Y-48752380D01*
X113993847Y-48752380D02*
X113993847Y-47752380D01*
X114089085Y-47895238D01*
X114184323Y-47990476D01*
X114279561Y-48038095D01*
%TO.C,C24*%
X101830142Y-84193142D02*
X101877761Y-84145523D01*
X101925380Y-84002666D01*
X101925380Y-83907428D01*
X101877761Y-83764571D01*
X101782523Y-83669333D01*
X101687285Y-83621714D01*
X101496809Y-83574095D01*
X101353952Y-83574095D01*
X101163476Y-83621714D01*
X101068238Y-83669333D01*
X100973000Y-83764571D01*
X100925380Y-83907428D01*
X100925380Y-84002666D01*
X100973000Y-84145523D01*
X101020619Y-84193142D01*
X101020619Y-84574095D02*
X100973000Y-84621714D01*
X100925380Y-84716952D01*
X100925380Y-84955047D01*
X100973000Y-85050285D01*
X101020619Y-85097904D01*
X101115857Y-85145523D01*
X101211095Y-85145523D01*
X101353952Y-85097904D01*
X101925380Y-84526476D01*
X101925380Y-85145523D01*
X101258714Y-86002666D02*
X101925380Y-86002666D01*
X100877761Y-85764571D02*
X101592047Y-85526476D01*
X101592047Y-86145523D01*
%TO.C,C23*%
X108577742Y-84291742D02*
X108625361Y-84244123D01*
X108672980Y-84101266D01*
X108672980Y-84006028D01*
X108625361Y-83863171D01*
X108530123Y-83767933D01*
X108434885Y-83720314D01*
X108244409Y-83672695D01*
X108101552Y-83672695D01*
X107911076Y-83720314D01*
X107815838Y-83767933D01*
X107720600Y-83863171D01*
X107672980Y-84006028D01*
X107672980Y-84101266D01*
X107720600Y-84244123D01*
X107768219Y-84291742D01*
X107768219Y-84672695D02*
X107720600Y-84720314D01*
X107672980Y-84815552D01*
X107672980Y-85053647D01*
X107720600Y-85148885D01*
X107768219Y-85196504D01*
X107863457Y-85244123D01*
X107958695Y-85244123D01*
X108101552Y-85196504D01*
X108672980Y-84625076D01*
X108672980Y-85244123D01*
X107672980Y-85577457D02*
X107672980Y-86196504D01*
X108053933Y-85863171D01*
X108053933Y-86006028D01*
X108101552Y-86101266D01*
X108149171Y-86148885D01*
X108244409Y-86196504D01*
X108482504Y-86196504D01*
X108577742Y-86148885D01*
X108625361Y-86101266D01*
X108672980Y-86006028D01*
X108672980Y-85720314D01*
X108625361Y-85625076D01*
X108577742Y-85577457D01*
%TO.C,U3*%
X107060904Y-96607380D02*
X107060904Y-97416904D01*
X107013285Y-97512142D01*
X106965666Y-97559761D01*
X106870428Y-97607380D01*
X106679952Y-97607380D01*
X106584714Y-97559761D01*
X106537095Y-97512142D01*
X106489476Y-97416904D01*
X106489476Y-96607380D01*
X106108523Y-96607380D02*
X105489476Y-96607380D01*
X105822809Y-96988333D01*
X105679952Y-96988333D01*
X105584714Y-97035952D01*
X105537095Y-97083571D01*
X105489476Y-97178809D01*
X105489476Y-97416904D01*
X105537095Y-97512142D01*
X105584714Y-97559761D01*
X105679952Y-97607380D01*
X105965666Y-97607380D01*
X106060904Y-97559761D01*
X106108523Y-97512142D01*
%TO.C,R21*%
X163837857Y-74493380D02*
X164171190Y-74017190D01*
X164409285Y-74493380D02*
X164409285Y-73493380D01*
X164028333Y-73493380D01*
X163933095Y-73541000D01*
X163885476Y-73588619D01*
X163837857Y-73683857D01*
X163837857Y-73826714D01*
X163885476Y-73921952D01*
X163933095Y-73969571D01*
X164028333Y-74017190D01*
X164409285Y-74017190D01*
X163456904Y-73588619D02*
X163409285Y-73541000D01*
X163314047Y-73493380D01*
X163075952Y-73493380D01*
X162980714Y-73541000D01*
X162933095Y-73588619D01*
X162885476Y-73683857D01*
X162885476Y-73779095D01*
X162933095Y-73921952D01*
X163504523Y-74493380D01*
X162885476Y-74493380D01*
X161933095Y-74493380D02*
X162504523Y-74493380D01*
X162218809Y-74493380D02*
X162218809Y-73493380D01*
X162314047Y-73636238D01*
X162409285Y-73731476D01*
X162504523Y-73779095D01*
%TO.C,C16*%
X130436857Y-93321142D02*
X130484476Y-93368761D01*
X130627333Y-93416380D01*
X130722571Y-93416380D01*
X130865428Y-93368761D01*
X130960666Y-93273523D01*
X131008285Y-93178285D01*
X131055904Y-92987809D01*
X131055904Y-92844952D01*
X131008285Y-92654476D01*
X130960666Y-92559238D01*
X130865428Y-92464000D01*
X130722571Y-92416380D01*
X130627333Y-92416380D01*
X130484476Y-92464000D01*
X130436857Y-92511619D01*
X129484476Y-93416380D02*
X130055904Y-93416380D01*
X129770190Y-93416380D02*
X129770190Y-92416380D01*
X129865428Y-92559238D01*
X129960666Y-92654476D01*
X130055904Y-92702095D01*
X128627333Y-92416380D02*
X128817809Y-92416380D01*
X128913047Y-92464000D01*
X128960666Y-92511619D01*
X129055904Y-92654476D01*
X129103523Y-92844952D01*
X129103523Y-93225904D01*
X129055904Y-93321142D01*
X129008285Y-93368761D01*
X128913047Y-93416380D01*
X128722571Y-93416380D01*
X128627333Y-93368761D01*
X128579714Y-93321142D01*
X128532095Y-93225904D01*
X128532095Y-92987809D01*
X128579714Y-92892571D01*
X128627333Y-92844952D01*
X128722571Y-92797333D01*
X128913047Y-92797333D01*
X129008285Y-92844952D01*
X129055904Y-92892571D01*
X129103523Y-92987809D01*
%TO.C,R23*%
X163964857Y-79446380D02*
X164298190Y-78970190D01*
X164536285Y-79446380D02*
X164536285Y-78446380D01*
X164155333Y-78446380D01*
X164060095Y-78494000D01*
X164012476Y-78541619D01*
X163964857Y-78636857D01*
X163964857Y-78779714D01*
X164012476Y-78874952D01*
X164060095Y-78922571D01*
X164155333Y-78970190D01*
X164536285Y-78970190D01*
X163583904Y-78541619D02*
X163536285Y-78494000D01*
X163441047Y-78446380D01*
X163202952Y-78446380D01*
X163107714Y-78494000D01*
X163060095Y-78541619D01*
X163012476Y-78636857D01*
X163012476Y-78732095D01*
X163060095Y-78874952D01*
X163631523Y-79446380D01*
X163012476Y-79446380D01*
X162679142Y-78446380D02*
X162060095Y-78446380D01*
X162393428Y-78827333D01*
X162250571Y-78827333D01*
X162155333Y-78874952D01*
X162107714Y-78922571D01*
X162060095Y-79017809D01*
X162060095Y-79255904D01*
X162107714Y-79351142D01*
X162155333Y-79398761D01*
X162250571Y-79446380D01*
X162536285Y-79446380D01*
X162631523Y-79398761D01*
X162679142Y-79351142D01*
%TO.C,U4*%
X134199804Y-83483680D02*
X134199804Y-84293204D01*
X134152185Y-84388442D01*
X134104566Y-84436061D01*
X134009328Y-84483680D01*
X133818852Y-84483680D01*
X133723614Y-84436061D01*
X133675995Y-84388442D01*
X133628376Y-84293204D01*
X133628376Y-83483680D01*
X132723614Y-83817014D02*
X132723614Y-84483680D01*
X132961709Y-83436061D02*
X133199804Y-84150347D01*
X132580757Y-84150347D01*
%TO.C,U2*%
X117853880Y-72524095D02*
X118663404Y-72524095D01*
X118758642Y-72571714D01*
X118806261Y-72619333D01*
X118853880Y-72714571D01*
X118853880Y-72905047D01*
X118806261Y-73000285D01*
X118758642Y-73047904D01*
X118663404Y-73095523D01*
X117853880Y-73095523D01*
X117949119Y-73524095D02*
X117901500Y-73571714D01*
X117853880Y-73666952D01*
X117853880Y-73905047D01*
X117901500Y-74000285D01*
X117949119Y-74047904D01*
X118044357Y-74095523D01*
X118139595Y-74095523D01*
X118282452Y-74047904D01*
X118853880Y-73476476D01*
X118853880Y-74095523D01*
%TO.C,R17*%
X173362857Y-74112380D02*
X173696190Y-73636190D01*
X173934285Y-74112380D02*
X173934285Y-73112380D01*
X173553333Y-73112380D01*
X173458095Y-73160000D01*
X173410476Y-73207619D01*
X173362857Y-73302857D01*
X173362857Y-73445714D01*
X173410476Y-73540952D01*
X173458095Y-73588571D01*
X173553333Y-73636190D01*
X173934285Y-73636190D01*
X172410476Y-74112380D02*
X172981904Y-74112380D01*
X172696190Y-74112380D02*
X172696190Y-73112380D01*
X172791428Y-73255238D01*
X172886666Y-73350476D01*
X172981904Y-73398095D01*
X172077142Y-73112380D02*
X171410476Y-73112380D01*
X171839047Y-74112380D01*
%TO.C,R13*%
X182633857Y-79573380D02*
X182967190Y-79097190D01*
X183205285Y-79573380D02*
X183205285Y-78573380D01*
X182824333Y-78573380D01*
X182729095Y-78621000D01*
X182681476Y-78668619D01*
X182633857Y-78763857D01*
X182633857Y-78906714D01*
X182681476Y-79001952D01*
X182729095Y-79049571D01*
X182824333Y-79097190D01*
X183205285Y-79097190D01*
X181681476Y-79573380D02*
X182252904Y-79573380D01*
X181967190Y-79573380D02*
X181967190Y-78573380D01*
X182062428Y-78716238D01*
X182157666Y-78811476D01*
X182252904Y-78859095D01*
X181348142Y-78573380D02*
X180729095Y-78573380D01*
X181062428Y-78954333D01*
X180919571Y-78954333D01*
X180824333Y-79001952D01*
X180776714Y-79049571D01*
X180729095Y-79144809D01*
X180729095Y-79382904D01*
X180776714Y-79478142D01*
X180824333Y-79525761D01*
X180919571Y-79573380D01*
X181205285Y-79573380D01*
X181300523Y-79525761D01*
X181348142Y-79478142D01*
%TO.C,R8*%
X183840380Y-70191333D02*
X183364190Y-69858000D01*
X183840380Y-69619904D02*
X182840380Y-69619904D01*
X182840380Y-70000857D01*
X182888000Y-70096095D01*
X182935619Y-70143714D01*
X183030857Y-70191333D01*
X183173714Y-70191333D01*
X183268952Y-70143714D01*
X183316571Y-70096095D01*
X183364190Y-70000857D01*
X183364190Y-69619904D01*
X183268952Y-70762761D02*
X183221333Y-70667523D01*
X183173714Y-70619904D01*
X183078476Y-70572285D01*
X183030857Y-70572285D01*
X182935619Y-70619904D01*
X182888000Y-70667523D01*
X182840380Y-70762761D01*
X182840380Y-70953238D01*
X182888000Y-71048476D01*
X182935619Y-71096095D01*
X183030857Y-71143714D01*
X183078476Y-71143714D01*
X183173714Y-71096095D01*
X183221333Y-71048476D01*
X183268952Y-70953238D01*
X183268952Y-70762761D01*
X183316571Y-70667523D01*
X183364190Y-70619904D01*
X183459428Y-70572285D01*
X183649904Y-70572285D01*
X183745142Y-70619904D01*
X183792761Y-70667523D01*
X183840380Y-70762761D01*
X183840380Y-70953238D01*
X183792761Y-71048476D01*
X183745142Y-71096095D01*
X183649904Y-71143714D01*
X183459428Y-71143714D01*
X183364190Y-71096095D01*
X183316571Y-71048476D01*
X183268952Y-70953238D01*
%TO.C,R14*%
X139834857Y-80970380D02*
X140168190Y-80494190D01*
X140406285Y-80970380D02*
X140406285Y-79970380D01*
X140025333Y-79970380D01*
X139930095Y-80018000D01*
X139882476Y-80065619D01*
X139834857Y-80160857D01*
X139834857Y-80303714D01*
X139882476Y-80398952D01*
X139930095Y-80446571D01*
X140025333Y-80494190D01*
X140406285Y-80494190D01*
X138882476Y-80970380D02*
X139453904Y-80970380D01*
X139168190Y-80970380D02*
X139168190Y-79970380D01*
X139263428Y-80113238D01*
X139358666Y-80208476D01*
X139453904Y-80256095D01*
X138025333Y-80303714D02*
X138025333Y-80970380D01*
X138263428Y-79922761D02*
X138501523Y-80637047D01*
X137882476Y-80637047D01*
%TO.C,R12*%
X182633857Y-77160380D02*
X182967190Y-76684190D01*
X183205285Y-77160380D02*
X183205285Y-76160380D01*
X182824333Y-76160380D01*
X182729095Y-76208000D01*
X182681476Y-76255619D01*
X182633857Y-76350857D01*
X182633857Y-76493714D01*
X182681476Y-76588952D01*
X182729095Y-76636571D01*
X182824333Y-76684190D01*
X183205285Y-76684190D01*
X181681476Y-77160380D02*
X182252904Y-77160380D01*
X181967190Y-77160380D02*
X181967190Y-76160380D01*
X182062428Y-76303238D01*
X182157666Y-76398476D01*
X182252904Y-76446095D01*
X181300523Y-76255619D02*
X181252904Y-76208000D01*
X181157666Y-76160380D01*
X180919571Y-76160380D01*
X180824333Y-76208000D01*
X180776714Y-76255619D01*
X180729095Y-76350857D01*
X180729095Y-76446095D01*
X180776714Y-76588952D01*
X181348142Y-77160380D01*
X180729095Y-77160380D01*
%TO.C,R16*%
X175077380Y-69588142D02*
X174601190Y-69254809D01*
X175077380Y-69016714D02*
X174077380Y-69016714D01*
X174077380Y-69397666D01*
X174125000Y-69492904D01*
X174172619Y-69540523D01*
X174267857Y-69588142D01*
X174410714Y-69588142D01*
X174505952Y-69540523D01*
X174553571Y-69492904D01*
X174601190Y-69397666D01*
X174601190Y-69016714D01*
X175077380Y-70540523D02*
X175077380Y-69969095D01*
X175077380Y-70254809D02*
X174077380Y-70254809D01*
X174220238Y-70159571D01*
X174315476Y-70064333D01*
X174363095Y-69969095D01*
X174077380Y-71397666D02*
X174077380Y-71207190D01*
X174125000Y-71111952D01*
X174172619Y-71064333D01*
X174315476Y-70969095D01*
X174505952Y-70921476D01*
X174886904Y-70921476D01*
X174982142Y-70969095D01*
X175029761Y-71016714D01*
X175077380Y-71111952D01*
X175077380Y-71302428D01*
X175029761Y-71397666D01*
X174982142Y-71445285D01*
X174886904Y-71492904D01*
X174648809Y-71492904D01*
X174553571Y-71445285D01*
X174505952Y-71397666D01*
X174458333Y-71302428D01*
X174458333Y-71111952D01*
X174505952Y-71016714D01*
X174553571Y-70969095D01*
X174648809Y-70921476D01*
%TO.C,R11*%
X139961857Y-78303380D02*
X140295190Y-77827190D01*
X140533285Y-78303380D02*
X140533285Y-77303380D01*
X140152333Y-77303380D01*
X140057095Y-77351000D01*
X140009476Y-77398619D01*
X139961857Y-77493857D01*
X139961857Y-77636714D01*
X140009476Y-77731952D01*
X140057095Y-77779571D01*
X140152333Y-77827190D01*
X140533285Y-77827190D01*
X139009476Y-78303380D02*
X139580904Y-78303380D01*
X139295190Y-78303380D02*
X139295190Y-77303380D01*
X139390428Y-77446238D01*
X139485666Y-77541476D01*
X139580904Y-77589095D01*
X138057095Y-78303380D02*
X138628523Y-78303380D01*
X138342809Y-78303380D02*
X138342809Y-77303380D01*
X138438047Y-77446238D01*
X138533285Y-77541476D01*
X138628523Y-77589095D01*
%TO.C,R19*%
X173489857Y-79065380D02*
X173823190Y-78589190D01*
X174061285Y-79065380D02*
X174061285Y-78065380D01*
X173680333Y-78065380D01*
X173585095Y-78113000D01*
X173537476Y-78160619D01*
X173489857Y-78255857D01*
X173489857Y-78398714D01*
X173537476Y-78493952D01*
X173585095Y-78541571D01*
X173680333Y-78589190D01*
X174061285Y-78589190D01*
X172537476Y-79065380D02*
X173108904Y-79065380D01*
X172823190Y-79065380D02*
X172823190Y-78065380D01*
X172918428Y-78208238D01*
X173013666Y-78303476D01*
X173108904Y-78351095D01*
X172061285Y-79065380D02*
X171870809Y-79065380D01*
X171775571Y-79017761D01*
X171727952Y-78970142D01*
X171632714Y-78827285D01*
X171585095Y-78636809D01*
X171585095Y-78255857D01*
X171632714Y-78160619D01*
X171680333Y-78113000D01*
X171775571Y-78065380D01*
X171966047Y-78065380D01*
X172061285Y-78113000D01*
X172108904Y-78160619D01*
X172156523Y-78255857D01*
X172156523Y-78493952D01*
X172108904Y-78589190D01*
X172061285Y-78636809D01*
X171966047Y-78684428D01*
X171775571Y-78684428D01*
X171680333Y-78636809D01*
X171632714Y-78589190D01*
X171585095Y-78493952D01*
%TO.C,R10*%
X147391380Y-70985142D02*
X146915190Y-70651809D01*
X147391380Y-70413714D02*
X146391380Y-70413714D01*
X146391380Y-70794666D01*
X146439000Y-70889904D01*
X146486619Y-70937523D01*
X146581857Y-70985142D01*
X146724714Y-70985142D01*
X146819952Y-70937523D01*
X146867571Y-70889904D01*
X146915190Y-70794666D01*
X146915190Y-70413714D01*
X147391380Y-71937523D02*
X147391380Y-71366095D01*
X147391380Y-71651809D02*
X146391380Y-71651809D01*
X146534238Y-71556571D01*
X146629476Y-71461333D01*
X146677095Y-71366095D01*
X146391380Y-72556571D02*
X146391380Y-72651809D01*
X146439000Y-72747047D01*
X146486619Y-72794666D01*
X146581857Y-72842285D01*
X146772333Y-72889904D01*
X147010428Y-72889904D01*
X147200904Y-72842285D01*
X147296142Y-72794666D01*
X147343761Y-72747047D01*
X147391380Y-72651809D01*
X147391380Y-72556571D01*
X147343761Y-72461333D01*
X147296142Y-72413714D01*
X147200904Y-72366095D01*
X147010428Y-72318476D01*
X146772333Y-72318476D01*
X146581857Y-72366095D01*
X146486619Y-72413714D01*
X146439000Y-72461333D01*
X146391380Y-72556571D01*
%TO.C,R15*%
X139834857Y-83383380D02*
X140168190Y-82907190D01*
X140406285Y-83383380D02*
X140406285Y-82383380D01*
X140025333Y-82383380D01*
X139930095Y-82431000D01*
X139882476Y-82478619D01*
X139834857Y-82573857D01*
X139834857Y-82716714D01*
X139882476Y-82811952D01*
X139930095Y-82859571D01*
X140025333Y-82907190D01*
X140406285Y-82907190D01*
X138882476Y-83383380D02*
X139453904Y-83383380D01*
X139168190Y-83383380D02*
X139168190Y-82383380D01*
X139263428Y-82526238D01*
X139358666Y-82621476D01*
X139453904Y-82669095D01*
X137977714Y-82383380D02*
X138453904Y-82383380D01*
X138501523Y-82859571D01*
X138453904Y-82811952D01*
X138358666Y-82764333D01*
X138120571Y-82764333D01*
X138025333Y-82811952D01*
X137977714Y-82859571D01*
X137930095Y-82954809D01*
X137930095Y-83192904D01*
X137977714Y-83288142D01*
X138025333Y-83335761D01*
X138120571Y-83383380D01*
X138358666Y-83383380D01*
X138453904Y-83335761D01*
X138501523Y-83288142D01*
%TO.C,R6*%
X153836666Y-76652380D02*
X154170000Y-76176190D01*
X154408095Y-76652380D02*
X154408095Y-75652380D01*
X154027142Y-75652380D01*
X153931904Y-75700000D01*
X153884285Y-75747619D01*
X153836666Y-75842857D01*
X153836666Y-75985714D01*
X153884285Y-76080952D01*
X153931904Y-76128571D01*
X154027142Y-76176190D01*
X154408095Y-76176190D01*
X152979523Y-75652380D02*
X153170000Y-75652380D01*
X153265238Y-75700000D01*
X153312857Y-75747619D01*
X153408095Y-75890476D01*
X153455714Y-76080952D01*
X153455714Y-76461904D01*
X153408095Y-76557142D01*
X153360476Y-76604761D01*
X153265238Y-76652380D01*
X153074761Y-76652380D01*
X152979523Y-76604761D01*
X152931904Y-76557142D01*
X152884285Y-76461904D01*
X152884285Y-76223809D01*
X152931904Y-76128571D01*
X152979523Y-76080952D01*
X153074761Y-76033333D01*
X153265238Y-76033333D01*
X153360476Y-76080952D01*
X153408095Y-76128571D01*
X153455714Y-76223809D01*
%TO.C,R5*%
X153836666Y-74239380D02*
X154170000Y-73763190D01*
X154408095Y-74239380D02*
X154408095Y-73239380D01*
X154027142Y-73239380D01*
X153931904Y-73287000D01*
X153884285Y-73334619D01*
X153836666Y-73429857D01*
X153836666Y-73572714D01*
X153884285Y-73667952D01*
X153931904Y-73715571D01*
X154027142Y-73763190D01*
X154408095Y-73763190D01*
X152931904Y-73239380D02*
X153408095Y-73239380D01*
X153455714Y-73715571D01*
X153408095Y-73667952D01*
X153312857Y-73620333D01*
X153074761Y-73620333D01*
X152979523Y-73667952D01*
X152931904Y-73715571D01*
X152884285Y-73810809D01*
X152884285Y-74048904D01*
X152931904Y-74144142D01*
X152979523Y-74191761D01*
X153074761Y-74239380D01*
X153312857Y-74239380D01*
X153408095Y-74191761D01*
X153455714Y-74144142D01*
%TO.C,R7*%
X153836666Y-79319380D02*
X154170000Y-78843190D01*
X154408095Y-79319380D02*
X154408095Y-78319380D01*
X154027142Y-78319380D01*
X153931904Y-78367000D01*
X153884285Y-78414619D01*
X153836666Y-78509857D01*
X153836666Y-78652714D01*
X153884285Y-78747952D01*
X153931904Y-78795571D01*
X154027142Y-78843190D01*
X154408095Y-78843190D01*
X153503333Y-78319380D02*
X152836666Y-78319380D01*
X153265238Y-79319380D01*
%TO.C,R18*%
X173362857Y-76525380D02*
X173696190Y-76049190D01*
X173934285Y-76525380D02*
X173934285Y-75525380D01*
X173553333Y-75525380D01*
X173458095Y-75573000D01*
X173410476Y-75620619D01*
X173362857Y-75715857D01*
X173362857Y-75858714D01*
X173410476Y-75953952D01*
X173458095Y-76001571D01*
X173553333Y-76049190D01*
X173934285Y-76049190D01*
X172410476Y-76525380D02*
X172981904Y-76525380D01*
X172696190Y-76525380D02*
X172696190Y-75525380D01*
X172791428Y-75668238D01*
X172886666Y-75763476D01*
X172981904Y-75811095D01*
X171839047Y-75953952D02*
X171934285Y-75906333D01*
X171981904Y-75858714D01*
X172029523Y-75763476D01*
X172029523Y-75715857D01*
X171981904Y-75620619D01*
X171934285Y-75573000D01*
X171839047Y-75525380D01*
X171648571Y-75525380D01*
X171553333Y-75573000D01*
X171505714Y-75620619D01*
X171458095Y-75715857D01*
X171458095Y-75763476D01*
X171505714Y-75858714D01*
X171553333Y-75906333D01*
X171648571Y-75953952D01*
X171839047Y-75953952D01*
X171934285Y-76001571D01*
X171981904Y-76049190D01*
X172029523Y-76144428D01*
X172029523Y-76334904D01*
X171981904Y-76430142D01*
X171934285Y-76477761D01*
X171839047Y-76525380D01*
X171648571Y-76525380D01*
X171553333Y-76477761D01*
X171505714Y-76430142D01*
X171458095Y-76334904D01*
X171458095Y-76144428D01*
X171505714Y-76049190D01*
X171553333Y-76001571D01*
X171648571Y-75953952D01*
%TO.C,R22*%
X163964857Y-76906380D02*
X164298190Y-76430190D01*
X164536285Y-76906380D02*
X164536285Y-75906380D01*
X164155333Y-75906380D01*
X164060095Y-75954000D01*
X164012476Y-76001619D01*
X163964857Y-76096857D01*
X163964857Y-76239714D01*
X164012476Y-76334952D01*
X164060095Y-76382571D01*
X164155333Y-76430190D01*
X164536285Y-76430190D01*
X163583904Y-76001619D02*
X163536285Y-75954000D01*
X163441047Y-75906380D01*
X163202952Y-75906380D01*
X163107714Y-75954000D01*
X163060095Y-76001619D01*
X163012476Y-76096857D01*
X163012476Y-76192095D01*
X163060095Y-76334952D01*
X163631523Y-76906380D01*
X163012476Y-76906380D01*
X162631523Y-76001619D02*
X162583904Y-75954000D01*
X162488666Y-75906380D01*
X162250571Y-75906380D01*
X162155333Y-75954000D01*
X162107714Y-76001619D01*
X162060095Y-76096857D01*
X162060095Y-76192095D01*
X162107714Y-76334952D01*
X162679142Y-76906380D01*
X162060095Y-76906380D01*
%TO.C,R9*%
X181649666Y-74747380D02*
X181983000Y-74271190D01*
X182221095Y-74747380D02*
X182221095Y-73747380D01*
X181840142Y-73747380D01*
X181744904Y-73795000D01*
X181697285Y-73842619D01*
X181649666Y-73937857D01*
X181649666Y-74080714D01*
X181697285Y-74175952D01*
X181744904Y-74223571D01*
X181840142Y-74271190D01*
X182221095Y-74271190D01*
X181173476Y-74747380D02*
X180983000Y-74747380D01*
X180887761Y-74699761D01*
X180840142Y-74652142D01*
X180744904Y-74509285D01*
X180697285Y-74318809D01*
X180697285Y-73937857D01*
X180744904Y-73842619D01*
X180792523Y-73795000D01*
X180887761Y-73747380D01*
X181078238Y-73747380D01*
X181173476Y-73795000D01*
X181221095Y-73842619D01*
X181268714Y-73937857D01*
X181268714Y-74175952D01*
X181221095Y-74271190D01*
X181173476Y-74318809D01*
X181078238Y-74366428D01*
X180887761Y-74366428D01*
X180792523Y-74318809D01*
X180744904Y-74271190D01*
X180697285Y-74175952D01*
%TO.C,R20*%
X161827380Y-69878642D02*
X161351190Y-69545309D01*
X161827380Y-69307214D02*
X160827380Y-69307214D01*
X160827380Y-69688166D01*
X160875000Y-69783404D01*
X160922619Y-69831023D01*
X161017857Y-69878642D01*
X161160714Y-69878642D01*
X161255952Y-69831023D01*
X161303571Y-69783404D01*
X161351190Y-69688166D01*
X161351190Y-69307214D01*
X160922619Y-70259595D02*
X160875000Y-70307214D01*
X160827380Y-70402452D01*
X160827380Y-70640547D01*
X160875000Y-70735785D01*
X160922619Y-70783404D01*
X161017857Y-70831023D01*
X161113095Y-70831023D01*
X161255952Y-70783404D01*
X161827380Y-70211976D01*
X161827380Y-70831023D01*
X160827380Y-71450071D02*
X160827380Y-71545309D01*
X160875000Y-71640547D01*
X160922619Y-71688166D01*
X161017857Y-71735785D01*
X161208333Y-71783404D01*
X161446428Y-71783404D01*
X161636904Y-71735785D01*
X161732142Y-71688166D01*
X161779761Y-71640547D01*
X161827380Y-71545309D01*
X161827380Y-71450071D01*
X161779761Y-71354833D01*
X161732142Y-71307214D01*
X161636904Y-71259595D01*
X161446428Y-71211976D01*
X161208333Y-71211976D01*
X161017857Y-71259595D01*
X160922619Y-71307214D01*
X160875000Y-71354833D01*
X160827380Y-71450071D01*
%TO.C,U6*%
X178749904Y-71287380D02*
X178749904Y-72096904D01*
X178702285Y-72192142D01*
X178654666Y-72239761D01*
X178559428Y-72287380D01*
X178368952Y-72287380D01*
X178273714Y-72239761D01*
X178226095Y-72192142D01*
X178178476Y-72096904D01*
X178178476Y-71287380D01*
X177273714Y-71287380D02*
X177464190Y-71287380D01*
X177559428Y-71335000D01*
X177607047Y-71382619D01*
X177702285Y-71525476D01*
X177749904Y-71715952D01*
X177749904Y-72096904D01*
X177702285Y-72192142D01*
X177654666Y-72239761D01*
X177559428Y-72287380D01*
X177368952Y-72287380D01*
X177273714Y-72239761D01*
X177226095Y-72192142D01*
X177178476Y-72096904D01*
X177178476Y-71858809D01*
X177226095Y-71763571D01*
X177273714Y-71715952D01*
X177368952Y-71668333D01*
X177559428Y-71668333D01*
X177654666Y-71715952D01*
X177702285Y-71763571D01*
X177749904Y-71858809D01*
%TO.C,U5*%
X151383904Y-71080380D02*
X151383904Y-71889904D01*
X151336285Y-71985142D01*
X151288666Y-72032761D01*
X151193428Y-72080380D01*
X151002952Y-72080380D01*
X150907714Y-72032761D01*
X150860095Y-71985142D01*
X150812476Y-71889904D01*
X150812476Y-71080380D01*
X149860095Y-71080380D02*
X150336285Y-71080380D01*
X150383904Y-71556571D01*
X150336285Y-71508952D01*
X150241047Y-71461333D01*
X150002952Y-71461333D01*
X149907714Y-71508952D01*
X149860095Y-71556571D01*
X149812476Y-71651809D01*
X149812476Y-71889904D01*
X149860095Y-71985142D01*
X149907714Y-72032761D01*
X150002952Y-72080380D01*
X150241047Y-72080380D01*
X150336285Y-72032761D01*
X150383904Y-71985142D01*
%TO.C,D7*%
X145407095Y-62910380D02*
X145407095Y-61910380D01*
X145169000Y-61910380D01*
X145026142Y-61958000D01*
X144930904Y-62053238D01*
X144883285Y-62148476D01*
X144835666Y-62338952D01*
X144835666Y-62481809D01*
X144883285Y-62672285D01*
X144930904Y-62767523D01*
X145026142Y-62862761D01*
X145169000Y-62910380D01*
X145407095Y-62910380D01*
X144502333Y-61910380D02*
X143835666Y-61910380D01*
X144264238Y-62910380D01*
%TO.C,D6*%
X178637095Y-63756380D02*
X178637095Y-62756380D01*
X178399000Y-62756380D01*
X178256142Y-62804000D01*
X178160904Y-62899238D01*
X178113285Y-62994476D01*
X178065666Y-63184952D01*
X178065666Y-63327809D01*
X178113285Y-63518285D01*
X178160904Y-63613523D01*
X178256142Y-63708761D01*
X178399000Y-63756380D01*
X178637095Y-63756380D01*
X177208523Y-62756380D02*
X177399000Y-62756380D01*
X177494238Y-62804000D01*
X177541857Y-62851619D01*
X177637095Y-62994476D01*
X177684714Y-63184952D01*
X177684714Y-63565904D01*
X177637095Y-63661142D01*
X177589476Y-63708761D01*
X177494238Y-63756380D01*
X177303761Y-63756380D01*
X177208523Y-63708761D01*
X177160904Y-63661142D01*
X177113285Y-63565904D01*
X177113285Y-63327809D01*
X177160904Y-63232571D01*
X177208523Y-63184952D01*
X177303761Y-63137333D01*
X177494238Y-63137333D01*
X177589476Y-63184952D01*
X177637095Y-63232571D01*
X177684714Y-63327809D01*
%TO.C,D9*%
X159837095Y-64312380D02*
X159837095Y-63312380D01*
X159599000Y-63312380D01*
X159456142Y-63360000D01*
X159360904Y-63455238D01*
X159313285Y-63550476D01*
X159265666Y-63740952D01*
X159265666Y-63883809D01*
X159313285Y-64074285D01*
X159360904Y-64169523D01*
X159456142Y-64264761D01*
X159599000Y-64312380D01*
X159837095Y-64312380D01*
X158789476Y-64312380D02*
X158599000Y-64312380D01*
X158503761Y-64264761D01*
X158456142Y-64217142D01*
X158360904Y-64074285D01*
X158313285Y-63883809D01*
X158313285Y-63502857D01*
X158360904Y-63407619D01*
X158408523Y-63360000D01*
X158503761Y-63312380D01*
X158694238Y-63312380D01*
X158789476Y-63360000D01*
X158837095Y-63407619D01*
X158884714Y-63502857D01*
X158884714Y-63740952D01*
X158837095Y-63836190D01*
X158789476Y-63883809D01*
X158694238Y-63931428D01*
X158503761Y-63931428D01*
X158408523Y-63883809D01*
X158360904Y-63836190D01*
X158313285Y-63740952D01*
%TO.C,D8*%
X169887095Y-64006380D02*
X169887095Y-63006380D01*
X169649000Y-63006380D01*
X169506142Y-63054000D01*
X169410904Y-63149238D01*
X169363285Y-63244476D01*
X169315666Y-63434952D01*
X169315666Y-63577809D01*
X169363285Y-63768285D01*
X169410904Y-63863523D01*
X169506142Y-63958761D01*
X169649000Y-64006380D01*
X169887095Y-64006380D01*
X168744238Y-63434952D02*
X168839476Y-63387333D01*
X168887095Y-63339714D01*
X168934714Y-63244476D01*
X168934714Y-63196857D01*
X168887095Y-63101619D01*
X168839476Y-63054000D01*
X168744238Y-63006380D01*
X168553761Y-63006380D01*
X168458523Y-63054000D01*
X168410904Y-63101619D01*
X168363285Y-63196857D01*
X168363285Y-63244476D01*
X168410904Y-63339714D01*
X168458523Y-63387333D01*
X168553761Y-63434952D01*
X168744238Y-63434952D01*
X168839476Y-63482571D01*
X168887095Y-63530190D01*
X168934714Y-63625428D01*
X168934714Y-63815904D01*
X168887095Y-63911142D01*
X168839476Y-63958761D01*
X168744238Y-64006380D01*
X168553761Y-64006380D01*
X168458523Y-63958761D01*
X168410904Y-63911142D01*
X168363285Y-63815904D01*
X168363285Y-63625428D01*
X168410904Y-63530190D01*
X168458523Y-63482571D01*
X168553761Y-63434952D01*
%TO.C,U9*%
X160400904Y-71556380D02*
X160400904Y-72365904D01*
X160353285Y-72461142D01*
X160305666Y-72508761D01*
X160210428Y-72556380D01*
X160019952Y-72556380D01*
X159924714Y-72508761D01*
X159877095Y-72461142D01*
X159829476Y-72365904D01*
X159829476Y-71556380D01*
X159305666Y-72556380D02*
X159115190Y-72556380D01*
X159019952Y-72508761D01*
X158972333Y-72461142D01*
X158877095Y-72318285D01*
X158829476Y-72127809D01*
X158829476Y-71746857D01*
X158877095Y-71651619D01*
X158924714Y-71604000D01*
X159019952Y-71556380D01*
X159210428Y-71556380D01*
X159305666Y-71604000D01*
X159353285Y-71651619D01*
X159400904Y-71746857D01*
X159400904Y-71984952D01*
X159353285Y-72080190D01*
X159305666Y-72127809D01*
X159210428Y-72175428D01*
X159019952Y-72175428D01*
X158924714Y-72127809D01*
X158877095Y-72080190D01*
X158829476Y-71984952D01*
%TO.C,U8*%
X169671904Y-71715380D02*
X169671904Y-72524904D01*
X169624285Y-72620142D01*
X169576666Y-72667761D01*
X169481428Y-72715380D01*
X169290952Y-72715380D01*
X169195714Y-72667761D01*
X169148095Y-72620142D01*
X169100476Y-72524904D01*
X169100476Y-71715380D01*
X168481428Y-72143952D02*
X168576666Y-72096333D01*
X168624285Y-72048714D01*
X168671904Y-71953476D01*
X168671904Y-71905857D01*
X168624285Y-71810619D01*
X168576666Y-71763000D01*
X168481428Y-71715380D01*
X168290952Y-71715380D01*
X168195714Y-71763000D01*
X168148095Y-71810619D01*
X168100476Y-71905857D01*
X168100476Y-71953476D01*
X168148095Y-72048714D01*
X168195714Y-72096333D01*
X168290952Y-72143952D01*
X168481428Y-72143952D01*
X168576666Y-72191571D01*
X168624285Y-72239190D01*
X168671904Y-72334428D01*
X168671904Y-72524904D01*
X168624285Y-72620142D01*
X168576666Y-72667761D01*
X168481428Y-72715380D01*
X168290952Y-72715380D01*
X168195714Y-72667761D01*
X168148095Y-72620142D01*
X168100476Y-72524904D01*
X168100476Y-72334428D01*
X168148095Y-72239190D01*
X168195714Y-72191571D01*
X168290952Y-72143952D01*
%TO.C,U7*%
X142935904Y-72968380D02*
X142935904Y-73777904D01*
X142888285Y-73873142D01*
X142840666Y-73920761D01*
X142745428Y-73968380D01*
X142554952Y-73968380D01*
X142459714Y-73920761D01*
X142412095Y-73873142D01*
X142364476Y-73777904D01*
X142364476Y-72968380D01*
X141983523Y-72968380D02*
X141316857Y-72968380D01*
X141745428Y-73968380D01*
%TO.C,D3*%
X112307595Y-87320380D02*
X112307595Y-86320380D01*
X112069500Y-86320380D01*
X111926642Y-86368000D01*
X111831404Y-86463238D01*
X111783785Y-86558476D01*
X111736166Y-86748952D01*
X111736166Y-86891809D01*
X111783785Y-87082285D01*
X111831404Y-87177523D01*
X111926642Y-87272761D01*
X112069500Y-87320380D01*
X112307595Y-87320380D01*
X111402833Y-86320380D02*
X110783785Y-86320380D01*
X111117119Y-86701333D01*
X110974261Y-86701333D01*
X110879023Y-86748952D01*
X110831404Y-86796571D01*
X110783785Y-86891809D01*
X110783785Y-87129904D01*
X110831404Y-87225142D01*
X110879023Y-87272761D01*
X110974261Y-87320380D01*
X111259976Y-87320380D01*
X111355214Y-87272761D01*
X111402833Y-87225142D01*
%TO.C,D2*%
X112244095Y-97607380D02*
X112244095Y-96607380D01*
X112006000Y-96607380D01*
X111863142Y-96655000D01*
X111767904Y-96750238D01*
X111720285Y-96845476D01*
X111672666Y-97035952D01*
X111672666Y-97178809D01*
X111720285Y-97369285D01*
X111767904Y-97464523D01*
X111863142Y-97559761D01*
X112006000Y-97607380D01*
X112244095Y-97607380D01*
X111291714Y-96702619D02*
X111244095Y-96655000D01*
X111148857Y-96607380D01*
X110910761Y-96607380D01*
X110815523Y-96655000D01*
X110767904Y-96702619D01*
X110720285Y-96797857D01*
X110720285Y-96893095D01*
X110767904Y-97035952D01*
X111339333Y-97607380D01*
X110720285Y-97607380D01*
%TO.C,C22*%
X163964857Y-81891142D02*
X164012476Y-81938761D01*
X164155333Y-81986380D01*
X164250571Y-81986380D01*
X164393428Y-81938761D01*
X164488666Y-81843523D01*
X164536285Y-81748285D01*
X164583904Y-81557809D01*
X164583904Y-81414952D01*
X164536285Y-81224476D01*
X164488666Y-81129238D01*
X164393428Y-81034000D01*
X164250571Y-80986380D01*
X164155333Y-80986380D01*
X164012476Y-81034000D01*
X163964857Y-81081619D01*
X163583904Y-81081619D02*
X163536285Y-81034000D01*
X163441047Y-80986380D01*
X163202952Y-80986380D01*
X163107714Y-81034000D01*
X163060095Y-81081619D01*
X163012476Y-81176857D01*
X163012476Y-81272095D01*
X163060095Y-81414952D01*
X163631523Y-81986380D01*
X163012476Y-81986380D01*
X162631523Y-81081619D02*
X162583904Y-81034000D01*
X162488666Y-80986380D01*
X162250571Y-80986380D01*
X162155333Y-81034000D01*
X162107714Y-81081619D01*
X162060095Y-81176857D01*
X162060095Y-81272095D01*
X162107714Y-81414952D01*
X162679142Y-81986380D01*
X162060095Y-81986380D01*
%TO.C,C21*%
X173362857Y-81383142D02*
X173410476Y-81430761D01*
X173553333Y-81478380D01*
X173648571Y-81478380D01*
X173791428Y-81430761D01*
X173886666Y-81335523D01*
X173934285Y-81240285D01*
X173981904Y-81049809D01*
X173981904Y-80906952D01*
X173934285Y-80716476D01*
X173886666Y-80621238D01*
X173791428Y-80526000D01*
X173648571Y-80478380D01*
X173553333Y-80478380D01*
X173410476Y-80526000D01*
X173362857Y-80573619D01*
X172981904Y-80573619D02*
X172934285Y-80526000D01*
X172839047Y-80478380D01*
X172600952Y-80478380D01*
X172505714Y-80526000D01*
X172458095Y-80573619D01*
X172410476Y-80668857D01*
X172410476Y-80764095D01*
X172458095Y-80906952D01*
X173029523Y-81478380D01*
X172410476Y-81478380D01*
X171458095Y-81478380D02*
X172029523Y-81478380D01*
X171743809Y-81478380D02*
X171743809Y-80478380D01*
X171839047Y-80621238D01*
X171934285Y-80716476D01*
X172029523Y-80764095D01*
%TO.C,C20*%
X139834857Y-85955142D02*
X139882476Y-86002761D01*
X140025333Y-86050380D01*
X140120571Y-86050380D01*
X140263428Y-86002761D01*
X140358666Y-85907523D01*
X140406285Y-85812285D01*
X140453904Y-85621809D01*
X140453904Y-85478952D01*
X140406285Y-85288476D01*
X140358666Y-85193238D01*
X140263428Y-85098000D01*
X140120571Y-85050380D01*
X140025333Y-85050380D01*
X139882476Y-85098000D01*
X139834857Y-85145619D01*
X139453904Y-85145619D02*
X139406285Y-85098000D01*
X139311047Y-85050380D01*
X139072952Y-85050380D01*
X138977714Y-85098000D01*
X138930095Y-85145619D01*
X138882476Y-85240857D01*
X138882476Y-85336095D01*
X138930095Y-85478952D01*
X139501523Y-86050380D01*
X138882476Y-86050380D01*
X138263428Y-85050380D02*
X138168190Y-85050380D01*
X138072952Y-85098000D01*
X138025333Y-85145619D01*
X137977714Y-85240857D01*
X137930095Y-85431333D01*
X137930095Y-85669428D01*
X137977714Y-85859904D01*
X138025333Y-85955142D01*
X138072952Y-86002761D01*
X138168190Y-86050380D01*
X138263428Y-86050380D01*
X138358666Y-86002761D01*
X138406285Y-85955142D01*
X138453904Y-85859904D01*
X138501523Y-85669428D01*
X138501523Y-85431333D01*
X138453904Y-85240857D01*
X138406285Y-85145619D01*
X138358666Y-85098000D01*
X138263428Y-85050380D01*
%TO.C,D4*%
X133072095Y-102512380D02*
X133072095Y-101512380D01*
X132834000Y-101512380D01*
X132691142Y-101560000D01*
X132595904Y-101655238D01*
X132548285Y-101750476D01*
X132500666Y-101940952D01*
X132500666Y-102083809D01*
X132548285Y-102274285D01*
X132595904Y-102369523D01*
X132691142Y-102464761D01*
X132834000Y-102512380D01*
X133072095Y-102512380D01*
X131643523Y-101845714D02*
X131643523Y-102512380D01*
X131881619Y-101464761D02*
X132119714Y-102179047D01*
X131500666Y-102179047D01*
%TO.C,R3*%
X114474666Y-62395380D02*
X114808000Y-61919190D01*
X115046095Y-62395380D02*
X115046095Y-61395380D01*
X114665142Y-61395380D01*
X114569904Y-61443000D01*
X114522285Y-61490619D01*
X114474666Y-61585857D01*
X114474666Y-61728714D01*
X114522285Y-61823952D01*
X114569904Y-61871571D01*
X114665142Y-61919190D01*
X115046095Y-61919190D01*
X114141333Y-61395380D02*
X113522285Y-61395380D01*
X113855619Y-61776333D01*
X113712761Y-61776333D01*
X113617523Y-61823952D01*
X113569904Y-61871571D01*
X113522285Y-61966809D01*
X113522285Y-62204904D01*
X113569904Y-62300142D01*
X113617523Y-62347761D01*
X113712761Y-62395380D01*
X113998476Y-62395380D01*
X114093714Y-62347761D01*
X114141333Y-62300142D01*
%TO.C,R4*%
X156154380Y-70227833D02*
X155678190Y-69894500D01*
X156154380Y-69656404D02*
X155154380Y-69656404D01*
X155154380Y-70037357D01*
X155202000Y-70132595D01*
X155249619Y-70180214D01*
X155344857Y-70227833D01*
X155487714Y-70227833D01*
X155582952Y-70180214D01*
X155630571Y-70132595D01*
X155678190Y-70037357D01*
X155678190Y-69656404D01*
X155487714Y-71084976D02*
X156154380Y-71084976D01*
X155106761Y-70846880D02*
X155821047Y-70608785D01*
X155821047Y-71227833D01*
%TO.C,C19*%
X182633857Y-82145142D02*
X182681476Y-82192761D01*
X182824333Y-82240380D01*
X182919571Y-82240380D01*
X183062428Y-82192761D01*
X183157666Y-82097523D01*
X183205285Y-82002285D01*
X183252904Y-81811809D01*
X183252904Y-81668952D01*
X183205285Y-81478476D01*
X183157666Y-81383238D01*
X183062428Y-81288000D01*
X182919571Y-81240380D01*
X182824333Y-81240380D01*
X182681476Y-81288000D01*
X182633857Y-81335619D01*
X181681476Y-82240380D02*
X182252904Y-82240380D01*
X181967190Y-82240380D02*
X181967190Y-81240380D01*
X182062428Y-81383238D01*
X182157666Y-81478476D01*
X182252904Y-81526095D01*
X181205285Y-82240380D02*
X181014809Y-82240380D01*
X180919571Y-82192761D01*
X180871952Y-82145142D01*
X180776714Y-82002285D01*
X180729095Y-81811809D01*
X180729095Y-81430857D01*
X180776714Y-81335619D01*
X180824333Y-81288000D01*
X180919571Y-81240380D01*
X181110047Y-81240380D01*
X181205285Y-81288000D01*
X181252904Y-81335619D01*
X181300523Y-81430857D01*
X181300523Y-81668952D01*
X181252904Y-81764190D01*
X181205285Y-81811809D01*
X181110047Y-81859428D01*
X180919571Y-81859428D01*
X180824333Y-81811809D01*
X180776714Y-81764190D01*
X180729095Y-81668952D01*
%TO.C,C12*%
X115223857Y-81298142D02*
X115271476Y-81345761D01*
X115414333Y-81393380D01*
X115509571Y-81393380D01*
X115652428Y-81345761D01*
X115747666Y-81250523D01*
X115795285Y-81155285D01*
X115842904Y-80964809D01*
X115842904Y-80821952D01*
X115795285Y-80631476D01*
X115747666Y-80536238D01*
X115652428Y-80441000D01*
X115509571Y-80393380D01*
X115414333Y-80393380D01*
X115271476Y-80441000D01*
X115223857Y-80488619D01*
X114271476Y-81393380D02*
X114842904Y-81393380D01*
X114557190Y-81393380D02*
X114557190Y-80393380D01*
X114652428Y-80536238D01*
X114747666Y-80631476D01*
X114842904Y-80679095D01*
X113890523Y-80488619D02*
X113842904Y-80441000D01*
X113747666Y-80393380D01*
X113509571Y-80393380D01*
X113414333Y-80441000D01*
X113366714Y-80488619D01*
X113319095Y-80583857D01*
X113319095Y-80679095D01*
X113366714Y-80821952D01*
X113938142Y-81393380D01*
X113319095Y-81393380D01*
%TO.C,C14*%
X120049857Y-102189642D02*
X120097476Y-102237261D01*
X120240333Y-102284880D01*
X120335571Y-102284880D01*
X120478428Y-102237261D01*
X120573666Y-102142023D01*
X120621285Y-102046785D01*
X120668904Y-101856309D01*
X120668904Y-101713452D01*
X120621285Y-101522976D01*
X120573666Y-101427738D01*
X120478428Y-101332500D01*
X120335571Y-101284880D01*
X120240333Y-101284880D01*
X120097476Y-101332500D01*
X120049857Y-101380119D01*
X119097476Y-102284880D02*
X119668904Y-102284880D01*
X119383190Y-102284880D02*
X119383190Y-101284880D01*
X119478428Y-101427738D01*
X119573666Y-101522976D01*
X119668904Y-101570595D01*
X118240333Y-101618214D02*
X118240333Y-102284880D01*
X118478428Y-101237261D02*
X118716523Y-101951547D01*
X118097476Y-101951547D01*
%TO.C,C13*%
X126116642Y-91495642D02*
X126164261Y-91448023D01*
X126211880Y-91305166D01*
X126211880Y-91209928D01*
X126164261Y-91067071D01*
X126069023Y-90971833D01*
X125973785Y-90924214D01*
X125783309Y-90876595D01*
X125640452Y-90876595D01*
X125449976Y-90924214D01*
X125354738Y-90971833D01*
X125259500Y-91067071D01*
X125211880Y-91209928D01*
X125211880Y-91305166D01*
X125259500Y-91448023D01*
X125307119Y-91495642D01*
X126211880Y-92448023D02*
X126211880Y-91876595D01*
X126211880Y-92162309D02*
X125211880Y-92162309D01*
X125354738Y-92067071D01*
X125449976Y-91971833D01*
X125497595Y-91876595D01*
X125211880Y-92781357D02*
X125211880Y-93400404D01*
X125592833Y-93067071D01*
X125592833Y-93209928D01*
X125640452Y-93305166D01*
X125688071Y-93352785D01*
X125783309Y-93400404D01*
X126021404Y-93400404D01*
X126116642Y-93352785D01*
X126164261Y-93305166D01*
X126211880Y-93209928D01*
X126211880Y-92924214D01*
X126164261Y-92828976D01*
X126116642Y-92781357D01*
%TO.C,C18*%
X154820857Y-81637142D02*
X154868476Y-81684761D01*
X155011333Y-81732380D01*
X155106571Y-81732380D01*
X155249428Y-81684761D01*
X155344666Y-81589523D01*
X155392285Y-81494285D01*
X155439904Y-81303809D01*
X155439904Y-81160952D01*
X155392285Y-80970476D01*
X155344666Y-80875238D01*
X155249428Y-80780000D01*
X155106571Y-80732380D01*
X155011333Y-80732380D01*
X154868476Y-80780000D01*
X154820857Y-80827619D01*
X153868476Y-81732380D02*
X154439904Y-81732380D01*
X154154190Y-81732380D02*
X154154190Y-80732380D01*
X154249428Y-80875238D01*
X154344666Y-80970476D01*
X154439904Y-81018095D01*
X153297047Y-81160952D02*
X153392285Y-81113333D01*
X153439904Y-81065714D01*
X153487523Y-80970476D01*
X153487523Y-80922857D01*
X153439904Y-80827619D01*
X153392285Y-80780000D01*
X153297047Y-80732380D01*
X153106571Y-80732380D01*
X153011333Y-80780000D01*
X152963714Y-80827619D01*
X152916095Y-80922857D01*
X152916095Y-80970476D01*
X152963714Y-81065714D01*
X153011333Y-81113333D01*
X153106571Y-81160952D01*
X153297047Y-81160952D01*
X153392285Y-81208571D01*
X153439904Y-81256190D01*
X153487523Y-81351428D01*
X153487523Y-81541904D01*
X153439904Y-81637142D01*
X153392285Y-81684761D01*
X153297047Y-81732380D01*
X153106571Y-81732380D01*
X153011333Y-81684761D01*
X152963714Y-81637142D01*
X152916095Y-81541904D01*
X152916095Y-81351428D01*
X152963714Y-81256190D01*
X153011333Y-81208571D01*
X153106571Y-81160952D01*
%TO.C,C17*%
X140848642Y-107497642D02*
X140896261Y-107450023D01*
X140943880Y-107307166D01*
X140943880Y-107211928D01*
X140896261Y-107069071D01*
X140801023Y-106973833D01*
X140705785Y-106926214D01*
X140515309Y-106878595D01*
X140372452Y-106878595D01*
X140181976Y-106926214D01*
X140086738Y-106973833D01*
X139991500Y-107069071D01*
X139943880Y-107211928D01*
X139943880Y-107307166D01*
X139991500Y-107450023D01*
X140039119Y-107497642D01*
X140943880Y-108450023D02*
X140943880Y-107878595D01*
X140943880Y-108164309D02*
X139943880Y-108164309D01*
X140086738Y-108069071D01*
X140181976Y-107973833D01*
X140229595Y-107878595D01*
X139943880Y-108783357D02*
X139943880Y-109450023D01*
X140943880Y-109021452D01*
%TO.C,C15*%
X135326357Y-93342642D02*
X135373976Y-93390261D01*
X135516833Y-93437880D01*
X135612071Y-93437880D01*
X135754928Y-93390261D01*
X135850166Y-93295023D01*
X135897785Y-93199785D01*
X135945404Y-93009309D01*
X135945404Y-92866452D01*
X135897785Y-92675976D01*
X135850166Y-92580738D01*
X135754928Y-92485500D01*
X135612071Y-92437880D01*
X135516833Y-92437880D01*
X135373976Y-92485500D01*
X135326357Y-92533119D01*
X134373976Y-93437880D02*
X134945404Y-93437880D01*
X134659690Y-93437880D02*
X134659690Y-92437880D01*
X134754928Y-92580738D01*
X134850166Y-92675976D01*
X134945404Y-92723595D01*
X133469214Y-92437880D02*
X133945404Y-92437880D01*
X133993023Y-92914071D01*
X133945404Y-92866452D01*
X133850166Y-92818833D01*
X133612071Y-92818833D01*
X133516833Y-92866452D01*
X133469214Y-92914071D01*
X133421595Y-93009309D01*
X133421595Y-93247404D01*
X133469214Y-93342642D01*
X133516833Y-93390261D01*
X133612071Y-93437880D01*
X133850166Y-93437880D01*
X133945404Y-93390261D01*
X133993023Y-93342642D01*
%TO.C,D5*%
X150787095Y-63799380D02*
X150787095Y-62799380D01*
X150549000Y-62799380D01*
X150406142Y-62847000D01*
X150310904Y-62942238D01*
X150263285Y-63037476D01*
X150215666Y-63227952D01*
X150215666Y-63370809D01*
X150263285Y-63561285D01*
X150310904Y-63656523D01*
X150406142Y-63751761D01*
X150549000Y-63799380D01*
X150787095Y-63799380D01*
X149310904Y-62799380D02*
X149787095Y-62799380D01*
X149834714Y-63275571D01*
X149787095Y-63227952D01*
X149691857Y-63180333D01*
X149453761Y-63180333D01*
X149358523Y-63227952D01*
X149310904Y-63275571D01*
X149263285Y-63370809D01*
X149263285Y-63608904D01*
X149310904Y-63704142D01*
X149358523Y-63751761D01*
X149453761Y-63799380D01*
X149691857Y-63799380D01*
X149787095Y-63751761D01*
X149834714Y-63704142D01*
%TO.C,F1*%
X95816571Y-92503666D02*
X95816571Y-92170333D01*
X96340380Y-92170333D02*
X95340380Y-92170333D01*
X95340380Y-92646523D01*
X96340380Y-93551285D02*
X96340380Y-92979857D01*
X96340380Y-93265571D02*
X95340380Y-93265571D01*
X95483238Y-93170333D01*
X95578476Y-93075095D01*
X95626095Y-92979857D01*
%TO.C,JP2*%
X99535180Y-54056066D02*
X100249466Y-54056066D01*
X100392323Y-54008447D01*
X100487561Y-53913209D01*
X100535180Y-53770352D01*
X100535180Y-53675114D01*
X100535180Y-54532257D02*
X99535180Y-54532257D01*
X99535180Y-54913209D01*
X99582800Y-55008447D01*
X99630419Y-55056066D01*
X99725657Y-55103685D01*
X99868514Y-55103685D01*
X99963752Y-55056066D01*
X100011371Y-55008447D01*
X100058990Y-54913209D01*
X100058990Y-54532257D01*
X99630419Y-55484638D02*
X99582800Y-55532257D01*
X99535180Y-55627495D01*
X99535180Y-55865590D01*
X99582800Y-55960828D01*
X99630419Y-56008447D01*
X99725657Y-56056066D01*
X99820895Y-56056066D01*
X99963752Y-56008447D01*
X100535180Y-55437019D01*
X100535180Y-56056066D01*
%TO.C,F2*%
X103820833Y-64886071D02*
X104154166Y-64886071D01*
X104154166Y-65409880D02*
X104154166Y-64409880D01*
X103677976Y-64409880D01*
X103344642Y-64505119D02*
X103297023Y-64457500D01*
X103201785Y-64409880D01*
X102963690Y-64409880D01*
X102868452Y-64457500D01*
X102820833Y-64505119D01*
X102773214Y-64600357D01*
X102773214Y-64695595D01*
X102820833Y-64838452D01*
X103392261Y-65409880D01*
X102773214Y-65409880D01*
%TO.C,L2*%
X124023380Y-108037333D02*
X124023380Y-107561142D01*
X123023380Y-107561142D01*
X123118619Y-108323047D02*
X123071000Y-108370666D01*
X123023380Y-108465904D01*
X123023380Y-108704000D01*
X123071000Y-108799238D01*
X123118619Y-108846857D01*
X123213857Y-108894476D01*
X123309095Y-108894476D01*
X123451952Y-108846857D01*
X124023380Y-108275428D01*
X124023380Y-108894476D01*
%TO.C,D1*%
X116872880Y-66624904D02*
X115872880Y-66624904D01*
X115872880Y-66863000D01*
X115920500Y-67005857D01*
X116015738Y-67101095D01*
X116110976Y-67148714D01*
X116301452Y-67196333D01*
X116444309Y-67196333D01*
X116634785Y-67148714D01*
X116730023Y-67101095D01*
X116825261Y-67005857D01*
X116872880Y-66863000D01*
X116872880Y-66624904D01*
X116872880Y-68148714D02*
X116872880Y-67577285D01*
X116872880Y-67863000D02*
X115872880Y-67863000D01*
X116015738Y-67767761D01*
X116110976Y-67672523D01*
X116158595Y-67577285D01*
%TD*%
%LPC*%
%TO.C,L3*%
G36*
G01*
X105760200Y-91105200D02*
X104450200Y-91105200D01*
G75*
G02*
X104180200Y-90835200I0J270000D01*
G01*
X104180200Y-90025200D01*
G75*
G02*
X104450200Y-89755200I270000J0D01*
G01*
X105760200Y-89755200D01*
G75*
G02*
X106030200Y-90025200I0J-270000D01*
G01*
X106030200Y-90835200D01*
G75*
G02*
X105760200Y-91105200I-270000J0D01*
G01*
G37*
G36*
G01*
X105760200Y-93905200D02*
X104450200Y-93905200D01*
G75*
G02*
X104180200Y-93635200I0J270000D01*
G01*
X104180200Y-92825200D01*
G75*
G02*
X104450200Y-92555200I270000J0D01*
G01*
X105760200Y-92555200D01*
G75*
G02*
X106030200Y-92825200I0J-270000D01*
G01*
X106030200Y-93635200D01*
G75*
G02*
X105760200Y-93905200I-270000J0D01*
G01*
G37*
%TD*%
D13*
%TO.C,J2*%
X154990800Y-113030000D03*
X152450800Y-113030000D03*
X149910800Y-113030000D03*
X147370800Y-113030000D03*
X144830800Y-113030000D03*
D14*
X142290800Y-113030000D03*
%TD*%
D15*
%TO.C,J6*%
X144890000Y-58191400D03*
X141890000Y-58191400D03*
X138890000Y-58191400D03*
G36*
G01*
X135090000Y-58984733D02*
X135090000Y-57398067D01*
G75*
G02*
X135356667Y-57131400I266667J0D01*
G01*
X136423333Y-57131400D01*
G75*
G02*
X136690000Y-57398067I0J-266667D01*
G01*
X136690000Y-58984733D01*
G75*
G02*
X136423333Y-59251400I-266667J0D01*
G01*
X135356667Y-59251400D01*
G75*
G02*
X135090000Y-58984733I0J266667D01*
G01*
G37*
D16*
X142740000Y-53871400D03*
X138040000Y-53871400D03*
%TD*%
D15*
%TO.C,J5*%
X176253400Y-58039000D03*
X173253400Y-58039000D03*
X170253400Y-58039000D03*
X167253400Y-58039000D03*
G36*
G01*
X163453400Y-58832333D02*
X163453400Y-57245667D01*
G75*
G02*
X163720067Y-56979000I266667J0D01*
G01*
X164786733Y-56979000D01*
G75*
G02*
X165053400Y-57245667I0J-266667D01*
G01*
X165053400Y-58832333D01*
G75*
G02*
X164786733Y-59099000I-266667J0D01*
G01*
X163720067Y-59099000D01*
G75*
G02*
X163453400Y-58832333I0J266667D01*
G01*
G37*
D16*
X174103400Y-53719000D03*
X166403400Y-53719000D03*
%TD*%
D17*
%TO.C,J4*%
X95328200Y-99515800D03*
G36*
G01*
X96121533Y-103315800D02*
X94534867Y-103315800D01*
G75*
G02*
X94268200Y-103049133I0J266667D01*
G01*
X94268200Y-101982467D01*
G75*
G02*
X94534867Y-101715800I266667J0D01*
G01*
X96121533Y-101715800D01*
G75*
G02*
X96388200Y-101982467I0J-266667D01*
G01*
X96388200Y-103049133D01*
G75*
G02*
X96121533Y-103315800I-266667J0D01*
G01*
G37*
D16*
X91008200Y-101015800D03*
%TD*%
D17*
%TO.C,J3*%
X95633000Y-87113000D03*
X95633000Y-84113000D03*
X95633000Y-81113000D03*
X95633000Y-78113000D03*
G36*
G01*
X94839667Y-74313000D02*
X96426333Y-74313000D01*
G75*
G02*
X96693000Y-74579667I0J-266667D01*
G01*
X96693000Y-75646333D01*
G75*
G02*
X96426333Y-75913000I-266667J0D01*
G01*
X94839667Y-75913000D01*
G75*
G02*
X94573000Y-75646333I0J266667D01*
G01*
X94573000Y-74579667D01*
G75*
G02*
X94839667Y-74313000I266667J0D01*
G01*
G37*
D16*
X91313000Y-84963000D03*
X91313000Y-77263000D03*
%TD*%
D15*
%TO.C,J1*%
X112874800Y-58420000D03*
G36*
G01*
X116674800Y-57626667D02*
X116674800Y-59213333D01*
G75*
G02*
X116408133Y-59480000I-266667J0D01*
G01*
X115341467Y-59480000D01*
G75*
G02*
X115074800Y-59213333I0J266667D01*
G01*
X115074800Y-57626667D01*
G75*
G02*
X115341467Y-57360000I266667J0D01*
G01*
X116408133Y-57360000D01*
G75*
G02*
X116674800Y-57626667I0J-266667D01*
G01*
G37*
D16*
X114374800Y-54100000D03*
%TD*%
D18*
%TO.C,H4*%
X93980000Y-109982000D03*
%TD*%
D13*
%TO.C,J7*%
X107061000Y-112826800D03*
X104521000Y-112826800D03*
D14*
X101981000Y-112826800D03*
%TD*%
%TO.C,C24*%
G36*
G01*
X104388600Y-84241000D02*
X103078600Y-84241000D01*
G75*
G02*
X102808600Y-83971000I0J270000D01*
G01*
X102808600Y-83161000D01*
G75*
G02*
X103078600Y-82891000I270000J0D01*
G01*
X104388600Y-82891000D01*
G75*
G02*
X104658600Y-83161000I0J-270000D01*
G01*
X104658600Y-83971000D01*
G75*
G02*
X104388600Y-84241000I-270000J0D01*
G01*
G37*
G36*
G01*
X104388600Y-87041000D02*
X103078600Y-87041000D01*
G75*
G02*
X102808600Y-86771000I0J270000D01*
G01*
X102808600Y-85961000D01*
G75*
G02*
X103078600Y-85691000I270000J0D01*
G01*
X104388600Y-85691000D01*
G75*
G02*
X104658600Y-85961000I0J-270000D01*
G01*
X104658600Y-86771000D01*
G75*
G02*
X104388600Y-87041000I-270000J0D01*
G01*
G37*
%TD*%
%TO.C,C23*%
G36*
G01*
X107055600Y-84209600D02*
X105745600Y-84209600D01*
G75*
G02*
X105475600Y-83939600I0J270000D01*
G01*
X105475600Y-83129600D01*
G75*
G02*
X105745600Y-82859600I270000J0D01*
G01*
X107055600Y-82859600D01*
G75*
G02*
X107325600Y-83129600I0J-270000D01*
G01*
X107325600Y-83939600D01*
G75*
G02*
X107055600Y-84209600I-270000J0D01*
G01*
G37*
G36*
G01*
X107055600Y-87009600D02*
X105745600Y-87009600D01*
G75*
G02*
X105475600Y-86739600I0J270000D01*
G01*
X105475600Y-85929600D01*
G75*
G02*
X105745600Y-85659600I270000J0D01*
G01*
X107055600Y-85659600D01*
G75*
G02*
X107325600Y-85929600I0J-270000D01*
G01*
X107325600Y-86739600D01*
G75*
G02*
X107055600Y-87009600I-270000J0D01*
G01*
G37*
%TD*%
D19*
%TO.C,U3*%
X104596500Y-103587500D03*
D20*
X113746500Y-106987500D03*
X113746500Y-105287500D03*
X113746500Y-103587500D03*
X113746500Y-101887500D03*
X113746500Y-100187500D03*
%TD*%
%TO.C,R21*%
G36*
G01*
X160146500Y-74642456D02*
X160146500Y-73327544D01*
G75*
G02*
X160414044Y-73060000I267544J0D01*
G01*
X161403956Y-73060000D01*
G75*
G02*
X161671500Y-73327544I0J-267544D01*
G01*
X161671500Y-74642456D01*
G75*
G02*
X161403956Y-74910000I-267544J0D01*
G01*
X160414044Y-74910000D01*
G75*
G02*
X160146500Y-74642456I0J267544D01*
G01*
G37*
G36*
G01*
X157171500Y-74642456D02*
X157171500Y-73327544D01*
G75*
G02*
X157439044Y-73060000I267544J0D01*
G01*
X158428956Y-73060000D01*
G75*
G02*
X158696500Y-73327544I0J-267544D01*
G01*
X158696500Y-74642456D01*
G75*
G02*
X158428956Y-74910000I-267544J0D01*
G01*
X157439044Y-74910000D01*
G75*
G02*
X157171500Y-74642456I0J267544D01*
G01*
G37*
%TD*%
%TO.C,C16*%
G36*
G01*
X130292000Y-95462956D02*
X130292000Y-94148044D01*
G75*
G02*
X130559544Y-93880500I267544J0D01*
G01*
X131549456Y-93880500D01*
G75*
G02*
X131817000Y-94148044I0J-267544D01*
G01*
X131817000Y-95462956D01*
G75*
G02*
X131549456Y-95730500I-267544J0D01*
G01*
X130559544Y-95730500D01*
G75*
G02*
X130292000Y-95462956I0J267544D01*
G01*
G37*
G36*
G01*
X127317000Y-95462956D02*
X127317000Y-94148044D01*
G75*
G02*
X127584544Y-93880500I267544J0D01*
G01*
X128574456Y-93880500D01*
G75*
G02*
X128842000Y-94148044I0J-267544D01*
G01*
X128842000Y-95462956D01*
G75*
G02*
X128574456Y-95730500I-267544J0D01*
G01*
X127584544Y-95730500D01*
G75*
G02*
X127317000Y-95462956I0J267544D01*
G01*
G37*
%TD*%
%TO.C,R23*%
G36*
G01*
X158610500Y-78280544D02*
X158610500Y-79595456D01*
G75*
G02*
X158342956Y-79863000I-267544J0D01*
G01*
X157353044Y-79863000D01*
G75*
G02*
X157085500Y-79595456I0J267544D01*
G01*
X157085500Y-78280544D01*
G75*
G02*
X157353044Y-78013000I267544J0D01*
G01*
X158342956Y-78013000D01*
G75*
G02*
X158610500Y-78280544I0J-267544D01*
G01*
G37*
G36*
G01*
X161585500Y-78280544D02*
X161585500Y-79595456D01*
G75*
G02*
X161317956Y-79863000I-267544J0D01*
G01*
X160328044Y-79863000D01*
G75*
G02*
X160060500Y-79595456I0J267544D01*
G01*
X160060500Y-78280544D01*
G75*
G02*
X160328044Y-78013000I267544J0D01*
G01*
X161317956Y-78013000D01*
G75*
G02*
X161585500Y-78280544I0J-267544D01*
G01*
G37*
%TD*%
D21*
%TO.C,U4*%
X136587900Y-86231300D03*
X136587900Y-90831300D03*
X136587900Y-88531300D03*
D22*
X130287900Y-88531300D03*
%TD*%
%TO.C,U2*%
G36*
G01*
X117081500Y-71836000D02*
X116731500Y-71836000D01*
G75*
G02*
X116556500Y-71661000I0J175000D01*
G01*
X116556500Y-69961000D01*
G75*
G02*
X116731500Y-69786000I175000J0D01*
G01*
X117081500Y-69786000D01*
G75*
G02*
X117256500Y-69961000I0J-175000D01*
G01*
X117256500Y-71661000D01*
G75*
G02*
X117081500Y-71836000I-175000J0D01*
G01*
G37*
G36*
G01*
X115811500Y-71836000D02*
X115461500Y-71836000D01*
G75*
G02*
X115286500Y-71661000I0J175000D01*
G01*
X115286500Y-69961000D01*
G75*
G02*
X115461500Y-69786000I175000J0D01*
G01*
X115811500Y-69786000D01*
G75*
G02*
X115986500Y-69961000I0J-175000D01*
G01*
X115986500Y-71661000D01*
G75*
G02*
X115811500Y-71836000I-175000J0D01*
G01*
G37*
G36*
G01*
X114541500Y-71836000D02*
X114191500Y-71836000D01*
G75*
G02*
X114016500Y-71661000I0J175000D01*
G01*
X114016500Y-69961000D01*
G75*
G02*
X114191500Y-69786000I175000J0D01*
G01*
X114541500Y-69786000D01*
G75*
G02*
X114716500Y-69961000I0J-175000D01*
G01*
X114716500Y-71661000D01*
G75*
G02*
X114541500Y-71836000I-175000J0D01*
G01*
G37*
G36*
G01*
X113271500Y-71836000D02*
X112921500Y-71836000D01*
G75*
G02*
X112746500Y-71661000I0J175000D01*
G01*
X112746500Y-69961000D01*
G75*
G02*
X112921500Y-69786000I175000J0D01*
G01*
X113271500Y-69786000D01*
G75*
G02*
X113446500Y-69961000I0J-175000D01*
G01*
X113446500Y-71661000D01*
G75*
G02*
X113271500Y-71836000I-175000J0D01*
G01*
G37*
G36*
G01*
X113271500Y-76786000D02*
X112921500Y-76786000D01*
G75*
G02*
X112746500Y-76611000I0J175000D01*
G01*
X112746500Y-74911000D01*
G75*
G02*
X112921500Y-74736000I175000J0D01*
G01*
X113271500Y-74736000D01*
G75*
G02*
X113446500Y-74911000I0J-175000D01*
G01*
X113446500Y-76611000D01*
G75*
G02*
X113271500Y-76786000I-175000J0D01*
G01*
G37*
G36*
G01*
X114541500Y-76786000D02*
X114191500Y-76786000D01*
G75*
G02*
X114016500Y-76611000I0J175000D01*
G01*
X114016500Y-74911000D01*
G75*
G02*
X114191500Y-74736000I175000J0D01*
G01*
X114541500Y-74736000D01*
G75*
G02*
X114716500Y-74911000I0J-175000D01*
G01*
X114716500Y-76611000D01*
G75*
G02*
X114541500Y-76786000I-175000J0D01*
G01*
G37*
G36*
G01*
X115811500Y-76786000D02*
X115461500Y-76786000D01*
G75*
G02*
X115286500Y-76611000I0J175000D01*
G01*
X115286500Y-74911000D01*
G75*
G02*
X115461500Y-74736000I175000J0D01*
G01*
X115811500Y-74736000D01*
G75*
G02*
X115986500Y-74911000I0J-175000D01*
G01*
X115986500Y-76611000D01*
G75*
G02*
X115811500Y-76786000I-175000J0D01*
G01*
G37*
G36*
G01*
X117081500Y-76786000D02*
X116731500Y-76786000D01*
G75*
G02*
X116556500Y-76611000I0J175000D01*
G01*
X116556500Y-74911000D01*
G75*
G02*
X116731500Y-74736000I175000J0D01*
G01*
X117081500Y-74736000D01*
G75*
G02*
X117256500Y-74911000I0J-175000D01*
G01*
X117256500Y-76611000D01*
G75*
G02*
X117081500Y-76786000I-175000J0D01*
G01*
G37*
%TD*%
%TO.C,R17*%
G36*
G01*
X169598500Y-74261456D02*
X169598500Y-72946544D01*
G75*
G02*
X169866044Y-72679000I267544J0D01*
G01*
X170855956Y-72679000D01*
G75*
G02*
X171123500Y-72946544I0J-267544D01*
G01*
X171123500Y-74261456D01*
G75*
G02*
X170855956Y-74529000I-267544J0D01*
G01*
X169866044Y-74529000D01*
G75*
G02*
X169598500Y-74261456I0J267544D01*
G01*
G37*
G36*
G01*
X166623500Y-74261456D02*
X166623500Y-72946544D01*
G75*
G02*
X166891044Y-72679000I267544J0D01*
G01*
X167880956Y-72679000D01*
G75*
G02*
X168148500Y-72946544I0J-267544D01*
G01*
X168148500Y-74261456D01*
G75*
G02*
X167880956Y-74529000I-267544J0D01*
G01*
X166891044Y-74529000D01*
G75*
G02*
X166623500Y-74261456I0J267544D01*
G01*
G37*
%TD*%
%TO.C,R13*%
G36*
G01*
X177352500Y-78534544D02*
X177352500Y-79849456D01*
G75*
G02*
X177084956Y-80117000I-267544J0D01*
G01*
X176095044Y-80117000D01*
G75*
G02*
X175827500Y-79849456I0J267544D01*
G01*
X175827500Y-78534544D01*
G75*
G02*
X176095044Y-78267000I267544J0D01*
G01*
X177084956Y-78267000D01*
G75*
G02*
X177352500Y-78534544I0J-267544D01*
G01*
G37*
G36*
G01*
X180327500Y-78534544D02*
X180327500Y-79849456D01*
G75*
G02*
X180059956Y-80117000I-267544J0D01*
G01*
X179070044Y-80117000D01*
G75*
G02*
X178802500Y-79849456I0J267544D01*
G01*
X178802500Y-78534544D01*
G75*
G02*
X179070044Y-78267000I267544J0D01*
G01*
X180059956Y-78267000D01*
G75*
G02*
X180327500Y-78534544I0J-267544D01*
G01*
G37*
%TD*%
%TO.C,R8*%
G36*
G01*
X180698544Y-71046500D02*
X182013456Y-71046500D01*
G75*
G02*
X182281000Y-71314044I0J-267544D01*
G01*
X182281000Y-72303956D01*
G75*
G02*
X182013456Y-72571500I-267544J0D01*
G01*
X180698544Y-72571500D01*
G75*
G02*
X180431000Y-72303956I0J267544D01*
G01*
X180431000Y-71314044D01*
G75*
G02*
X180698544Y-71046500I267544J0D01*
G01*
G37*
G36*
G01*
X180698544Y-68071500D02*
X182013456Y-68071500D01*
G75*
G02*
X182281000Y-68339044I0J-267544D01*
G01*
X182281000Y-69328956D01*
G75*
G02*
X182013456Y-69596500I-267544J0D01*
G01*
X180698544Y-69596500D01*
G75*
G02*
X180431000Y-69328956I0J267544D01*
G01*
X180431000Y-68339044D01*
G75*
G02*
X180698544Y-68071500I267544J0D01*
G01*
G37*
%TD*%
%TO.C,R14*%
G36*
G01*
X143968000Y-81119456D02*
X143968000Y-79804544D01*
G75*
G02*
X144235544Y-79537000I267544J0D01*
G01*
X145225456Y-79537000D01*
G75*
G02*
X145493000Y-79804544I0J-267544D01*
G01*
X145493000Y-81119456D01*
G75*
G02*
X145225456Y-81387000I-267544J0D01*
G01*
X144235544Y-81387000D01*
G75*
G02*
X143968000Y-81119456I0J267544D01*
G01*
G37*
G36*
G01*
X140993000Y-81119456D02*
X140993000Y-79804544D01*
G75*
G02*
X141260544Y-79537000I267544J0D01*
G01*
X142250456Y-79537000D01*
G75*
G02*
X142518000Y-79804544I0J-267544D01*
G01*
X142518000Y-81119456D01*
G75*
G02*
X142250456Y-81387000I-267544J0D01*
G01*
X141260544Y-81387000D01*
G75*
G02*
X140993000Y-81119456I0J267544D01*
G01*
G37*
%TD*%
%TO.C,R12*%
G36*
G01*
X178802500Y-77309456D02*
X178802500Y-75994544D01*
G75*
G02*
X179070044Y-75727000I267544J0D01*
G01*
X180059956Y-75727000D01*
G75*
G02*
X180327500Y-75994544I0J-267544D01*
G01*
X180327500Y-77309456D01*
G75*
G02*
X180059956Y-77577000I-267544J0D01*
G01*
X179070044Y-77577000D01*
G75*
G02*
X178802500Y-77309456I0J267544D01*
G01*
G37*
G36*
G01*
X175827500Y-77309456D02*
X175827500Y-75994544D01*
G75*
G02*
X176095044Y-75727000I267544J0D01*
G01*
X177084956Y-75727000D01*
G75*
G02*
X177352500Y-75994544I0J-267544D01*
G01*
X177352500Y-77309456D01*
G75*
G02*
X177084956Y-77577000I-267544J0D01*
G01*
X176095044Y-77577000D01*
G75*
G02*
X175827500Y-77309456I0J267544D01*
G01*
G37*
%TD*%
%TO.C,R16*%
G36*
G01*
X172062544Y-70865500D02*
X173377456Y-70865500D01*
G75*
G02*
X173645000Y-71133044I0J-267544D01*
G01*
X173645000Y-72122956D01*
G75*
G02*
X173377456Y-72390500I-267544J0D01*
G01*
X172062544Y-72390500D01*
G75*
G02*
X171795000Y-72122956I0J267544D01*
G01*
X171795000Y-71133044D01*
G75*
G02*
X172062544Y-70865500I267544J0D01*
G01*
G37*
G36*
G01*
X172062544Y-67890500D02*
X173377456Y-67890500D01*
G75*
G02*
X173645000Y-68158044I0J-267544D01*
G01*
X173645000Y-69147956D01*
G75*
G02*
X173377456Y-69415500I-267544J0D01*
G01*
X172062544Y-69415500D01*
G75*
G02*
X171795000Y-69147956I0J267544D01*
G01*
X171795000Y-68158044D01*
G75*
G02*
X172062544Y-67890500I267544J0D01*
G01*
G37*
%TD*%
%TO.C,R11*%
G36*
G01*
X143968000Y-78579456D02*
X143968000Y-77264544D01*
G75*
G02*
X144235544Y-76997000I267544J0D01*
G01*
X145225456Y-76997000D01*
G75*
G02*
X145493000Y-77264544I0J-267544D01*
G01*
X145493000Y-78579456D01*
G75*
G02*
X145225456Y-78847000I-267544J0D01*
G01*
X144235544Y-78847000D01*
G75*
G02*
X143968000Y-78579456I0J267544D01*
G01*
G37*
G36*
G01*
X140993000Y-78579456D02*
X140993000Y-77264544D01*
G75*
G02*
X141260544Y-76997000I267544J0D01*
G01*
X142250456Y-76997000D01*
G75*
G02*
X142518000Y-77264544I0J-267544D01*
G01*
X142518000Y-78579456D01*
G75*
G02*
X142250456Y-78847000I-267544J0D01*
G01*
X141260544Y-78847000D01*
G75*
G02*
X140993000Y-78579456I0J267544D01*
G01*
G37*
%TD*%
%TO.C,R19*%
G36*
G01*
X168208500Y-77899544D02*
X168208500Y-79214456D01*
G75*
G02*
X167940956Y-79482000I-267544J0D01*
G01*
X166951044Y-79482000D01*
G75*
G02*
X166683500Y-79214456I0J267544D01*
G01*
X166683500Y-77899544D01*
G75*
G02*
X166951044Y-77632000I267544J0D01*
G01*
X167940956Y-77632000D01*
G75*
G02*
X168208500Y-77899544I0J-267544D01*
G01*
G37*
G36*
G01*
X171183500Y-77899544D02*
X171183500Y-79214456D01*
G75*
G02*
X170915956Y-79482000I-267544J0D01*
G01*
X169926044Y-79482000D01*
G75*
G02*
X169658500Y-79214456I0J267544D01*
G01*
X169658500Y-77899544D01*
G75*
G02*
X169926044Y-77632000I267544J0D01*
G01*
X170915956Y-77632000D01*
G75*
G02*
X171183500Y-77899544I0J-267544D01*
G01*
G37*
%TD*%
%TO.C,R10*%
G36*
G01*
X144376544Y-72316500D02*
X145691456Y-72316500D01*
G75*
G02*
X145959000Y-72584044I0J-267544D01*
G01*
X145959000Y-73573956D01*
G75*
G02*
X145691456Y-73841500I-267544J0D01*
G01*
X144376544Y-73841500D01*
G75*
G02*
X144109000Y-73573956I0J267544D01*
G01*
X144109000Y-72584044D01*
G75*
G02*
X144376544Y-72316500I267544J0D01*
G01*
G37*
G36*
G01*
X144376544Y-69341500D02*
X145691456Y-69341500D01*
G75*
G02*
X145959000Y-69609044I0J-267544D01*
G01*
X145959000Y-70598956D01*
G75*
G02*
X145691456Y-70866500I-267544J0D01*
G01*
X144376544Y-70866500D01*
G75*
G02*
X144109000Y-70598956I0J267544D01*
G01*
X144109000Y-69609044D01*
G75*
G02*
X144376544Y-69341500I267544J0D01*
G01*
G37*
%TD*%
%TO.C,R15*%
G36*
G01*
X142300500Y-82344544D02*
X142300500Y-83659456D01*
G75*
G02*
X142032956Y-83927000I-267544J0D01*
G01*
X141043044Y-83927000D01*
G75*
G02*
X140775500Y-83659456I0J267544D01*
G01*
X140775500Y-82344544D01*
G75*
G02*
X141043044Y-82077000I267544J0D01*
G01*
X142032956Y-82077000D01*
G75*
G02*
X142300500Y-82344544I0J-267544D01*
G01*
G37*
G36*
G01*
X145275500Y-82344544D02*
X145275500Y-83659456D01*
G75*
G02*
X145007956Y-83927000I-267544J0D01*
G01*
X144018044Y-83927000D01*
G75*
G02*
X143750500Y-83659456I0J267544D01*
G01*
X143750500Y-82344544D01*
G75*
G02*
X144018044Y-82077000I267544J0D01*
G01*
X145007956Y-82077000D01*
G75*
G02*
X145275500Y-82344544I0J-267544D01*
G01*
G37*
%TD*%
%TO.C,R6*%
G36*
G01*
X150916500Y-76801456D02*
X150916500Y-75486544D01*
G75*
G02*
X151184044Y-75219000I267544J0D01*
G01*
X152173956Y-75219000D01*
G75*
G02*
X152441500Y-75486544I0J-267544D01*
G01*
X152441500Y-76801456D01*
G75*
G02*
X152173956Y-77069000I-267544J0D01*
G01*
X151184044Y-77069000D01*
G75*
G02*
X150916500Y-76801456I0J267544D01*
G01*
G37*
G36*
G01*
X147941500Y-76801456D02*
X147941500Y-75486544D01*
G75*
G02*
X148209044Y-75219000I267544J0D01*
G01*
X149198956Y-75219000D01*
G75*
G02*
X149466500Y-75486544I0J-267544D01*
G01*
X149466500Y-76801456D01*
G75*
G02*
X149198956Y-77069000I-267544J0D01*
G01*
X148209044Y-77069000D01*
G75*
G02*
X147941500Y-76801456I0J267544D01*
G01*
G37*
%TD*%
%TO.C,R5*%
G36*
G01*
X150916500Y-74261456D02*
X150916500Y-72946544D01*
G75*
G02*
X151184044Y-72679000I267544J0D01*
G01*
X152173956Y-72679000D01*
G75*
G02*
X152441500Y-72946544I0J-267544D01*
G01*
X152441500Y-74261456D01*
G75*
G02*
X152173956Y-74529000I-267544J0D01*
G01*
X151184044Y-74529000D01*
G75*
G02*
X150916500Y-74261456I0J267544D01*
G01*
G37*
G36*
G01*
X147941500Y-74261456D02*
X147941500Y-72946544D01*
G75*
G02*
X148209044Y-72679000I267544J0D01*
G01*
X149198956Y-72679000D01*
G75*
G02*
X149466500Y-72946544I0J-267544D01*
G01*
X149466500Y-74261456D01*
G75*
G02*
X149198956Y-74529000I-267544J0D01*
G01*
X148209044Y-74529000D01*
G75*
G02*
X147941500Y-74261456I0J267544D01*
G01*
G37*
%TD*%
%TO.C,R7*%
G36*
G01*
X149466500Y-78026544D02*
X149466500Y-79341456D01*
G75*
G02*
X149198956Y-79609000I-267544J0D01*
G01*
X148209044Y-79609000D01*
G75*
G02*
X147941500Y-79341456I0J267544D01*
G01*
X147941500Y-78026544D01*
G75*
G02*
X148209044Y-77759000I267544J0D01*
G01*
X149198956Y-77759000D01*
G75*
G02*
X149466500Y-78026544I0J-267544D01*
G01*
G37*
G36*
G01*
X152441500Y-78026544D02*
X152441500Y-79341456D01*
G75*
G02*
X152173956Y-79609000I-267544J0D01*
G01*
X151184044Y-79609000D01*
G75*
G02*
X150916500Y-79341456I0J267544D01*
G01*
X150916500Y-78026544D01*
G75*
G02*
X151184044Y-77759000I267544J0D01*
G01*
X152173956Y-77759000D01*
G75*
G02*
X152441500Y-78026544I0J-267544D01*
G01*
G37*
%TD*%
%TO.C,R18*%
G36*
G01*
X169585500Y-76674456D02*
X169585500Y-75359544D01*
G75*
G02*
X169853044Y-75092000I267544J0D01*
G01*
X170842956Y-75092000D01*
G75*
G02*
X171110500Y-75359544I0J-267544D01*
G01*
X171110500Y-76674456D01*
G75*
G02*
X170842956Y-76942000I-267544J0D01*
G01*
X169853044Y-76942000D01*
G75*
G02*
X169585500Y-76674456I0J267544D01*
G01*
G37*
G36*
G01*
X166610500Y-76674456D02*
X166610500Y-75359544D01*
G75*
G02*
X166878044Y-75092000I267544J0D01*
G01*
X167867956Y-75092000D01*
G75*
G02*
X168135500Y-75359544I0J-267544D01*
G01*
X168135500Y-76674456D01*
G75*
G02*
X167867956Y-76942000I-267544J0D01*
G01*
X166878044Y-76942000D01*
G75*
G02*
X166610500Y-76674456I0J267544D01*
G01*
G37*
%TD*%
%TO.C,R22*%
G36*
G01*
X160133500Y-77055456D02*
X160133500Y-75740544D01*
G75*
G02*
X160401044Y-75473000I267544J0D01*
G01*
X161390956Y-75473000D01*
G75*
G02*
X161658500Y-75740544I0J-267544D01*
G01*
X161658500Y-77055456D01*
G75*
G02*
X161390956Y-77323000I-267544J0D01*
G01*
X160401044Y-77323000D01*
G75*
G02*
X160133500Y-77055456I0J267544D01*
G01*
G37*
G36*
G01*
X157158500Y-77055456D02*
X157158500Y-75740544D01*
G75*
G02*
X157426044Y-75473000I267544J0D01*
G01*
X158415956Y-75473000D01*
G75*
G02*
X158683500Y-75740544I0J-267544D01*
G01*
X158683500Y-77055456D01*
G75*
G02*
X158415956Y-77323000I-267544J0D01*
G01*
X157426044Y-77323000D01*
G75*
G02*
X157158500Y-77055456I0J267544D01*
G01*
G37*
%TD*%
%TO.C,R9*%
G36*
G01*
X178802500Y-74896456D02*
X178802500Y-73581544D01*
G75*
G02*
X179070044Y-73314000I267544J0D01*
G01*
X180059956Y-73314000D01*
G75*
G02*
X180327500Y-73581544I0J-267544D01*
G01*
X180327500Y-74896456D01*
G75*
G02*
X180059956Y-75164000I-267544J0D01*
G01*
X179070044Y-75164000D01*
G75*
G02*
X178802500Y-74896456I0J267544D01*
G01*
G37*
G36*
G01*
X175827500Y-74896456D02*
X175827500Y-73581544D01*
G75*
G02*
X176095044Y-73314000I267544J0D01*
G01*
X177084956Y-73314000D01*
G75*
G02*
X177352500Y-73581544I0J-267544D01*
G01*
X177352500Y-74896456D01*
G75*
G02*
X177084956Y-75164000I-267544J0D01*
G01*
X176095044Y-75164000D01*
G75*
G02*
X175827500Y-74896456I0J267544D01*
G01*
G37*
%TD*%
%TO.C,R20*%
G36*
G01*
X162537544Y-71246500D02*
X163852456Y-71246500D01*
G75*
G02*
X164120000Y-71514044I0J-267544D01*
G01*
X164120000Y-72503956D01*
G75*
G02*
X163852456Y-72771500I-267544J0D01*
G01*
X162537544Y-72771500D01*
G75*
G02*
X162270000Y-72503956I0J267544D01*
G01*
X162270000Y-71514044D01*
G75*
G02*
X162537544Y-71246500I267544J0D01*
G01*
G37*
G36*
G01*
X162537544Y-68271500D02*
X163852456Y-68271500D01*
G75*
G02*
X164120000Y-68539044I0J-267544D01*
G01*
X164120000Y-69528956D01*
G75*
G02*
X163852456Y-69796500I-267544J0D01*
G01*
X162537544Y-69796500D01*
G75*
G02*
X162270000Y-69528956I0J267544D01*
G01*
X162270000Y-68539044D01*
G75*
G02*
X162537544Y-68271500I267544J0D01*
G01*
G37*
%TD*%
D23*
%TO.C,U6*%
X178938000Y-70485000D03*
X178938000Y-69185000D03*
X177038000Y-69835000D03*
X177038000Y-69185000D03*
X177038000Y-70485000D03*
%TD*%
%TO.C,U5*%
X151826000Y-70627000D03*
X151826000Y-69327000D03*
X149926000Y-69977000D03*
X149926000Y-69327000D03*
X149926000Y-70627000D03*
%TD*%
D24*
%TO.C,D7*%
X143669000Y-64958000D03*
X145669000Y-65908000D03*
X145669000Y-64008000D03*
%TD*%
%TO.C,D6*%
X176899000Y-65804000D03*
X178899000Y-66754000D03*
X178899000Y-64854000D03*
%TD*%
D18*
%TO.C,H3*%
X93900000Y-57070000D03*
%TD*%
%TO.C,H2*%
X184150000Y-57023000D03*
%TD*%
%TO.C,H1*%
X184023000Y-109855000D03*
%TD*%
D24*
%TO.C,D9*%
X158099000Y-66360000D03*
X160099000Y-67310000D03*
X160099000Y-65410000D03*
%TD*%
%TO.C,D8*%
X168149000Y-66054000D03*
X170149000Y-67004000D03*
X170149000Y-65104000D03*
%TD*%
D23*
%TO.C,U9*%
X160589000Y-70754000D03*
X160589000Y-69454000D03*
X158689000Y-70104000D03*
X158689000Y-69454000D03*
X158689000Y-70754000D03*
%TD*%
D13*
%TO.C,JP1*%
X138049000Y-101854000D03*
D14*
X138049000Y-99314000D03*
%TD*%
D23*
%TO.C,U8*%
X170495000Y-71008000D03*
X170495000Y-69708000D03*
X168595000Y-70358000D03*
X168595000Y-69708000D03*
X168595000Y-71008000D03*
%TD*%
%TO.C,U7*%
X143124000Y-72166000D03*
X143124000Y-70866000D03*
X141224000Y-71516000D03*
X141224000Y-70866000D03*
X141224000Y-72166000D03*
%TD*%
D25*
%TO.C,D3*%
X109419500Y-94678500D03*
X113719500Y-94678500D03*
%TD*%
%TO.C,D2*%
X113837500Y-89598500D03*
X109537500Y-89598500D03*
%TD*%
%TO.C,C22*%
G36*
G01*
X158647000Y-80820544D02*
X158647000Y-82135456D01*
G75*
G02*
X158379456Y-82403000I-267544J0D01*
G01*
X157389544Y-82403000D01*
G75*
G02*
X157122000Y-82135456I0J267544D01*
G01*
X157122000Y-80820544D01*
G75*
G02*
X157389544Y-80553000I267544J0D01*
G01*
X158379456Y-80553000D01*
G75*
G02*
X158647000Y-80820544I0J-267544D01*
G01*
G37*
G36*
G01*
X161622000Y-80820544D02*
X161622000Y-82135456D01*
G75*
G02*
X161354456Y-82403000I-267544J0D01*
G01*
X160364544Y-82403000D01*
G75*
G02*
X160097000Y-82135456I0J267544D01*
G01*
X160097000Y-80820544D01*
G75*
G02*
X160364544Y-80553000I267544J0D01*
G01*
X161354456Y-80553000D01*
G75*
G02*
X161622000Y-80820544I0J-267544D01*
G01*
G37*
%TD*%
%TO.C,C21*%
G36*
G01*
X168208500Y-80439544D02*
X168208500Y-81754456D01*
G75*
G02*
X167940956Y-82022000I-267544J0D01*
G01*
X166951044Y-82022000D01*
G75*
G02*
X166683500Y-81754456I0J267544D01*
G01*
X166683500Y-80439544D01*
G75*
G02*
X166951044Y-80172000I267544J0D01*
G01*
X167940956Y-80172000D01*
G75*
G02*
X168208500Y-80439544I0J-267544D01*
G01*
G37*
G36*
G01*
X171183500Y-80439544D02*
X171183500Y-81754456D01*
G75*
G02*
X170915956Y-82022000I-267544J0D01*
G01*
X169926044Y-82022000D01*
G75*
G02*
X169658500Y-81754456I0J267544D01*
G01*
X169658500Y-80439544D01*
G75*
G02*
X169926044Y-80172000I267544J0D01*
G01*
X170915956Y-80172000D01*
G75*
G02*
X171183500Y-80439544I0J-267544D01*
G01*
G37*
%TD*%
%TO.C,C20*%
G36*
G01*
X142300500Y-84884544D02*
X142300500Y-86199456D01*
G75*
G02*
X142032956Y-86467000I-267544J0D01*
G01*
X141043044Y-86467000D01*
G75*
G02*
X140775500Y-86199456I0J267544D01*
G01*
X140775500Y-84884544D01*
G75*
G02*
X141043044Y-84617000I267544J0D01*
G01*
X142032956Y-84617000D01*
G75*
G02*
X142300500Y-84884544I0J-267544D01*
G01*
G37*
G36*
G01*
X145275500Y-84884544D02*
X145275500Y-86199456D01*
G75*
G02*
X145007956Y-86467000I-267544J0D01*
G01*
X144018044Y-86467000D01*
G75*
G02*
X143750500Y-86199456I0J267544D01*
G01*
X143750500Y-84884544D01*
G75*
G02*
X144018044Y-84617000I267544J0D01*
G01*
X145007956Y-84617000D01*
G75*
G02*
X145275500Y-84884544I0J-267544D01*
G01*
G37*
%TD*%
%TO.C,D4*%
X134484000Y-99060000D03*
X130184000Y-99060000D03*
%TD*%
%TO.C,R3*%
G36*
G01*
X113583000Y-63105544D02*
X113583000Y-64420456D01*
G75*
G02*
X113315456Y-64688000I-267544J0D01*
G01*
X112325544Y-64688000D01*
G75*
G02*
X112058000Y-64420456I0J267544D01*
G01*
X112058000Y-63105544D01*
G75*
G02*
X112325544Y-62838000I267544J0D01*
G01*
X113315456Y-62838000D01*
G75*
G02*
X113583000Y-63105544I0J-267544D01*
G01*
G37*
G36*
G01*
X116558000Y-63105544D02*
X116558000Y-64420456D01*
G75*
G02*
X116290456Y-64688000I-267544J0D01*
G01*
X115300544Y-64688000D01*
G75*
G02*
X115033000Y-64420456I0J267544D01*
G01*
X115033000Y-63105544D01*
G75*
G02*
X115300544Y-62838000I267544J0D01*
G01*
X116290456Y-62838000D01*
G75*
G02*
X116558000Y-63105544I0J-267544D01*
G01*
G37*
%TD*%
%TO.C,R4*%
G36*
G01*
X153266544Y-71119500D02*
X154581456Y-71119500D01*
G75*
G02*
X154849000Y-71387044I0J-267544D01*
G01*
X154849000Y-72376956D01*
G75*
G02*
X154581456Y-72644500I-267544J0D01*
G01*
X153266544Y-72644500D01*
G75*
G02*
X152999000Y-72376956I0J267544D01*
G01*
X152999000Y-71387044D01*
G75*
G02*
X153266544Y-71119500I267544J0D01*
G01*
G37*
G36*
G01*
X153266544Y-68144500D02*
X154581456Y-68144500D01*
G75*
G02*
X154849000Y-68412044I0J-267544D01*
G01*
X154849000Y-69401956D01*
G75*
G02*
X154581456Y-69669500I-267544J0D01*
G01*
X153266544Y-69669500D01*
G75*
G02*
X152999000Y-69401956I0J267544D01*
G01*
X152999000Y-68412044D01*
G75*
G02*
X153266544Y-68144500I267544J0D01*
G01*
G37*
%TD*%
%TO.C,C19*%
G36*
G01*
X177352500Y-81074544D02*
X177352500Y-82389456D01*
G75*
G02*
X177084956Y-82657000I-267544J0D01*
G01*
X176095044Y-82657000D01*
G75*
G02*
X175827500Y-82389456I0J267544D01*
G01*
X175827500Y-81074544D01*
G75*
G02*
X176095044Y-80807000I267544J0D01*
G01*
X177084956Y-80807000D01*
G75*
G02*
X177352500Y-81074544I0J-267544D01*
G01*
G37*
G36*
G01*
X180327500Y-81074544D02*
X180327500Y-82389456D01*
G75*
G02*
X180059956Y-82657000I-267544J0D01*
G01*
X179070044Y-82657000D01*
G75*
G02*
X178802500Y-82389456I0J267544D01*
G01*
X178802500Y-81074544D01*
G75*
G02*
X179070044Y-80807000I267544J0D01*
G01*
X180059956Y-80807000D01*
G75*
G02*
X180327500Y-81074544I0J-267544D01*
G01*
G37*
%TD*%
%TO.C,C12*%
G36*
G01*
X115306000Y-79778456D02*
X115306000Y-78463544D01*
G75*
G02*
X115573544Y-78196000I267544J0D01*
G01*
X116563456Y-78196000D01*
G75*
G02*
X116831000Y-78463544I0J-267544D01*
G01*
X116831000Y-79778456D01*
G75*
G02*
X116563456Y-80046000I-267544J0D01*
G01*
X115573544Y-80046000D01*
G75*
G02*
X115306000Y-79778456I0J267544D01*
G01*
G37*
G36*
G01*
X112331000Y-79778456D02*
X112331000Y-78463544D01*
G75*
G02*
X112598544Y-78196000I267544J0D01*
G01*
X113588456Y-78196000D01*
G75*
G02*
X113856000Y-78463544I0J-267544D01*
G01*
X113856000Y-79778456D01*
G75*
G02*
X113588456Y-80046000I-267544J0D01*
G01*
X112598544Y-80046000D01*
G75*
G02*
X112331000Y-79778456I0J267544D01*
G01*
G37*
%TD*%
%TO.C,C14*%
G36*
G01*
X120132000Y-100669956D02*
X120132000Y-99355044D01*
G75*
G02*
X120399544Y-99087500I267544J0D01*
G01*
X121389456Y-99087500D01*
G75*
G02*
X121657000Y-99355044I0J-267544D01*
G01*
X121657000Y-100669956D01*
G75*
G02*
X121389456Y-100937500I-267544J0D01*
G01*
X120399544Y-100937500D01*
G75*
G02*
X120132000Y-100669956I0J267544D01*
G01*
G37*
G36*
G01*
X117157000Y-100669956D02*
X117157000Y-99355044D01*
G75*
G02*
X117424544Y-99087500I267544J0D01*
G01*
X118414456Y-99087500D01*
G75*
G02*
X118682000Y-99355044I0J-267544D01*
G01*
X118682000Y-100669956D01*
G75*
G02*
X118414456Y-100937500I-267544J0D01*
G01*
X117424544Y-100937500D01*
G75*
G02*
X117157000Y-100669956I0J267544D01*
G01*
G37*
%TD*%
%TO.C,C13*%
G36*
G01*
X121499500Y-90688500D02*
X119419500Y-90688500D01*
G75*
G02*
X119159500Y-90428500I0J260000D01*
G01*
X119159500Y-86448500D01*
G75*
G02*
X119419500Y-86188500I260000J0D01*
G01*
X121499500Y-86188500D01*
G75*
G02*
X121759500Y-86448500I0J-260000D01*
G01*
X121759500Y-90428500D01*
G75*
G02*
X121499500Y-90688500I-260000J0D01*
G01*
G37*
G36*
G01*
X121499500Y-98088500D02*
X119419500Y-98088500D01*
G75*
G02*
X119159500Y-97828500I0J260000D01*
G01*
X119159500Y-93848500D01*
G75*
G02*
X119419500Y-93588500I260000J0D01*
G01*
X121499500Y-93588500D01*
G75*
G02*
X121759500Y-93848500I0J-260000D01*
G01*
X121759500Y-97828500D01*
G75*
G02*
X121499500Y-98088500I-260000J0D01*
G01*
G37*
%TD*%
%TO.C,C18*%
G36*
G01*
X149466500Y-80566544D02*
X149466500Y-81881456D01*
G75*
G02*
X149198956Y-82149000I-267544J0D01*
G01*
X148209044Y-82149000D01*
G75*
G02*
X147941500Y-81881456I0J267544D01*
G01*
X147941500Y-80566544D01*
G75*
G02*
X148209044Y-80299000I267544J0D01*
G01*
X149198956Y-80299000D01*
G75*
G02*
X149466500Y-80566544I0J-267544D01*
G01*
G37*
G36*
G01*
X152441500Y-80566544D02*
X152441500Y-81881456D01*
G75*
G02*
X152173956Y-82149000I-267544J0D01*
G01*
X151184044Y-82149000D01*
G75*
G02*
X150916500Y-81881456I0J267544D01*
G01*
X150916500Y-80566544D01*
G75*
G02*
X151184044Y-80299000I267544J0D01*
G01*
X152173956Y-80299000D01*
G75*
G02*
X152441500Y-80566544I0J-267544D01*
G01*
G37*
%TD*%
%TO.C,C17*%
G36*
G01*
X136231500Y-106690500D02*
X134151500Y-106690500D01*
G75*
G02*
X133891500Y-106430500I0J260000D01*
G01*
X133891500Y-102450500D01*
G75*
G02*
X134151500Y-102190500I260000J0D01*
G01*
X136231500Y-102190500D01*
G75*
G02*
X136491500Y-102450500I0J-260000D01*
G01*
X136491500Y-106430500D01*
G75*
G02*
X136231500Y-106690500I-260000J0D01*
G01*
G37*
G36*
G01*
X136231500Y-114090500D02*
X134151500Y-114090500D01*
G75*
G02*
X133891500Y-113830500I0J260000D01*
G01*
X133891500Y-109850500D01*
G75*
G02*
X134151500Y-109590500I260000J0D01*
G01*
X136231500Y-109590500D01*
G75*
G02*
X136491500Y-109850500I0J-260000D01*
G01*
X136491500Y-113830500D01*
G75*
G02*
X136231500Y-114090500I-260000J0D01*
G01*
G37*
%TD*%
%TO.C,C15*%
G36*
G01*
X133958500Y-94148044D02*
X133958500Y-95462956D01*
G75*
G02*
X133690956Y-95730500I-267544J0D01*
G01*
X132701044Y-95730500D01*
G75*
G02*
X132433500Y-95462956I0J267544D01*
G01*
X132433500Y-94148044D01*
G75*
G02*
X132701044Y-93880500I267544J0D01*
G01*
X133690956Y-93880500D01*
G75*
G02*
X133958500Y-94148044I0J-267544D01*
G01*
G37*
G36*
G01*
X136933500Y-94148044D02*
X136933500Y-95462956D01*
G75*
G02*
X136665956Y-95730500I-267544J0D01*
G01*
X135676044Y-95730500D01*
G75*
G02*
X135408500Y-95462956I0J267544D01*
G01*
X135408500Y-94148044D01*
G75*
G02*
X135676044Y-93880500I267544J0D01*
G01*
X136665956Y-93880500D01*
G75*
G02*
X136933500Y-94148044I0J-267544D01*
G01*
G37*
%TD*%
D24*
%TO.C,D5*%
X149049000Y-65847000D03*
X151049000Y-66797000D03*
X151049000Y-64897000D03*
%TD*%
%TO.C,F1*%
G36*
G01*
X97054905Y-95212000D02*
X102081095Y-95212000D01*
G75*
G02*
X102343000Y-95473905I0J-261905D01*
G01*
X102343000Y-97150095D01*
G75*
G02*
X102081095Y-97412000I-261905J0D01*
G01*
X97054905Y-97412000D01*
G75*
G02*
X96793000Y-97150095I0J261905D01*
G01*
X96793000Y-95473905D01*
G75*
G02*
X97054905Y-95212000I261905J0D01*
G01*
G37*
G36*
G01*
X97054905Y-88262000D02*
X102081095Y-88262000D01*
G75*
G02*
X102343000Y-88523905I0J-261905D01*
G01*
X102343000Y-90200095D01*
G75*
G02*
X102081095Y-90462000I-261905J0D01*
G01*
X97054905Y-90462000D01*
G75*
G02*
X96793000Y-90200095I0J261905D01*
G01*
X96793000Y-88523905D01*
G75*
G02*
X97054905Y-88262000I261905J0D01*
G01*
G37*
%TD*%
D13*
%TO.C,JP2*%
X104952800Y-54889400D03*
D14*
X102412800Y-54889400D03*
%TD*%
%TO.C,F2*%
G36*
G01*
X105862500Y-63790595D02*
X105862500Y-58764405D01*
G75*
G02*
X106124405Y-58502500I261905J0D01*
G01*
X107800595Y-58502500D01*
G75*
G02*
X108062500Y-58764405I0J-261905D01*
G01*
X108062500Y-63790595D01*
G75*
G02*
X107800595Y-64052500I-261905J0D01*
G01*
X106124405Y-64052500D01*
G75*
G02*
X105862500Y-63790595I0J261905D01*
G01*
G37*
G36*
G01*
X98912500Y-63790595D02*
X98912500Y-58764405D01*
G75*
G02*
X99174405Y-58502500I261905J0D01*
G01*
X100850595Y-58502500D01*
G75*
G02*
X101112500Y-58764405I0J-261905D01*
G01*
X101112500Y-63790595D01*
G75*
G02*
X100850595Y-64052500I-261905J0D01*
G01*
X99174405Y-64052500D01*
G75*
G02*
X98912500Y-63790595I0J261905D01*
G01*
G37*
%TD*%
D26*
%TO.C,L2*%
X123571000Y-103254000D03*
X123571000Y-113154000D03*
%TD*%
D27*
%TO.C,D1*%
X113920500Y-66363000D03*
X112970500Y-68363000D03*
X114870500Y-68363000D03*
%TD*%
M02*
