%TF.GenerationSoftware,KiCad,Pcbnew,(5.1.6)-1*%
%TF.CreationDate,2021-05-10T23:00:48+02:00*%
%TF.ProjectId,karta_stm,6b617274-615f-4737-946d-2e6b69636164,rev?*%
%TF.SameCoordinates,Original*%
%TF.FileFunction,Soldermask,Bot*%
%TF.FilePolarity,Negative*%
%FSLAX46Y46*%
G04 Gerber Fmt 4.6, Leading zero omitted, Abs format (unit mm)*
G04 Created by KiCad (PCBNEW (5.1.6)-1) date 2021-05-10 23:00:48*
%MOMM*%
%LPD*%
G01*
G04 APERTURE LIST*
%ADD10O,1.800000X1.800000*%
%ADD11R,1.800000X1.800000*%
%ADD12O,1.600000X2.120000*%
%ADD13C,3.100000*%
%ADD14O,2.120000X1.600000*%
%ADD15C,3.300000*%
%ADD16R,9.500000X10.900000*%
%ADD17R,4.700000X1.200000*%
%ADD18R,2.100000X1.600000*%
%ADD19R,2.100000X3.900000*%
%ADD20R,0.750000X0.500000*%
%ADD21R,1.000000X0.900000*%
%ADD22R,2.600000X2.400000*%
%ADD23R,5.500000X3.000000*%
%ADD24R,0.900000X1.000000*%
G04 APERTURE END LIST*
%TO.C,L3*%
G36*
G01*
X105760200Y-91105200D02*
X104450200Y-91105200D01*
G75*
G02*
X104180200Y-90835200I0J270000D01*
G01*
X104180200Y-90025200D01*
G75*
G02*
X104450200Y-89755200I270000J0D01*
G01*
X105760200Y-89755200D01*
G75*
G02*
X106030200Y-90025200I0J-270000D01*
G01*
X106030200Y-90835200D01*
G75*
G02*
X105760200Y-91105200I-270000J0D01*
G01*
G37*
G36*
G01*
X105760200Y-93905200D02*
X104450200Y-93905200D01*
G75*
G02*
X104180200Y-93635200I0J270000D01*
G01*
X104180200Y-92825200D01*
G75*
G02*
X104450200Y-92555200I270000J0D01*
G01*
X105760200Y-92555200D01*
G75*
G02*
X106030200Y-92825200I0J-270000D01*
G01*
X106030200Y-93635200D01*
G75*
G02*
X105760200Y-93905200I-270000J0D01*
G01*
G37*
%TD*%
D10*
%TO.C,J2*%
X154990800Y-113030000D03*
X152450800Y-113030000D03*
X149910800Y-113030000D03*
X147370800Y-113030000D03*
X144830800Y-113030000D03*
D11*
X142290800Y-113030000D03*
%TD*%
D12*
%TO.C,J6*%
X144890000Y-58191400D03*
X141890000Y-58191400D03*
X138890000Y-58191400D03*
G36*
G01*
X135090000Y-58984733D02*
X135090000Y-57398067D01*
G75*
G02*
X135356667Y-57131400I266667J0D01*
G01*
X136423333Y-57131400D01*
G75*
G02*
X136690000Y-57398067I0J-266667D01*
G01*
X136690000Y-58984733D01*
G75*
G02*
X136423333Y-59251400I-266667J0D01*
G01*
X135356667Y-59251400D01*
G75*
G02*
X135090000Y-58984733I0J266667D01*
G01*
G37*
D13*
X142740000Y-53871400D03*
X138040000Y-53871400D03*
%TD*%
D12*
%TO.C,J5*%
X176253400Y-58039000D03*
X173253400Y-58039000D03*
X170253400Y-58039000D03*
X167253400Y-58039000D03*
G36*
G01*
X163453400Y-58832333D02*
X163453400Y-57245667D01*
G75*
G02*
X163720067Y-56979000I266667J0D01*
G01*
X164786733Y-56979000D01*
G75*
G02*
X165053400Y-57245667I0J-266667D01*
G01*
X165053400Y-58832333D01*
G75*
G02*
X164786733Y-59099000I-266667J0D01*
G01*
X163720067Y-59099000D01*
G75*
G02*
X163453400Y-58832333I0J266667D01*
G01*
G37*
D13*
X174103400Y-53719000D03*
X166403400Y-53719000D03*
%TD*%
D14*
%TO.C,J4*%
X95328200Y-99515800D03*
G36*
G01*
X96121533Y-103315800D02*
X94534867Y-103315800D01*
G75*
G02*
X94268200Y-103049133I0J266667D01*
G01*
X94268200Y-101982467D01*
G75*
G02*
X94534867Y-101715800I266667J0D01*
G01*
X96121533Y-101715800D01*
G75*
G02*
X96388200Y-101982467I0J-266667D01*
G01*
X96388200Y-103049133D01*
G75*
G02*
X96121533Y-103315800I-266667J0D01*
G01*
G37*
D13*
X91008200Y-101015800D03*
%TD*%
D14*
%TO.C,J3*%
X95633000Y-87113000D03*
X95633000Y-84113000D03*
X95633000Y-81113000D03*
X95633000Y-78113000D03*
G36*
G01*
X94839667Y-74313000D02*
X96426333Y-74313000D01*
G75*
G02*
X96693000Y-74579667I0J-266667D01*
G01*
X96693000Y-75646333D01*
G75*
G02*
X96426333Y-75913000I-266667J0D01*
G01*
X94839667Y-75913000D01*
G75*
G02*
X94573000Y-75646333I0J266667D01*
G01*
X94573000Y-74579667D01*
G75*
G02*
X94839667Y-74313000I266667J0D01*
G01*
G37*
D13*
X91313000Y-84963000D03*
X91313000Y-77263000D03*
%TD*%
D12*
%TO.C,J1*%
X112874800Y-58420000D03*
G36*
G01*
X116674800Y-57626667D02*
X116674800Y-59213333D01*
G75*
G02*
X116408133Y-59480000I-266667J0D01*
G01*
X115341467Y-59480000D01*
G75*
G02*
X115074800Y-59213333I0J266667D01*
G01*
X115074800Y-57626667D01*
G75*
G02*
X115341467Y-57360000I266667J0D01*
G01*
X116408133Y-57360000D01*
G75*
G02*
X116674800Y-57626667I0J-266667D01*
G01*
G37*
D13*
X114374800Y-54100000D03*
%TD*%
D15*
%TO.C,H4*%
X93980000Y-109982000D03*
%TD*%
D10*
%TO.C,J7*%
X107061000Y-112826800D03*
X104521000Y-112826800D03*
D11*
X101981000Y-112826800D03*
%TD*%
%TO.C,C24*%
G36*
G01*
X104388600Y-84241000D02*
X103078600Y-84241000D01*
G75*
G02*
X102808600Y-83971000I0J270000D01*
G01*
X102808600Y-83161000D01*
G75*
G02*
X103078600Y-82891000I270000J0D01*
G01*
X104388600Y-82891000D01*
G75*
G02*
X104658600Y-83161000I0J-270000D01*
G01*
X104658600Y-83971000D01*
G75*
G02*
X104388600Y-84241000I-270000J0D01*
G01*
G37*
G36*
G01*
X104388600Y-87041000D02*
X103078600Y-87041000D01*
G75*
G02*
X102808600Y-86771000I0J270000D01*
G01*
X102808600Y-85961000D01*
G75*
G02*
X103078600Y-85691000I270000J0D01*
G01*
X104388600Y-85691000D01*
G75*
G02*
X104658600Y-85961000I0J-270000D01*
G01*
X104658600Y-86771000D01*
G75*
G02*
X104388600Y-87041000I-270000J0D01*
G01*
G37*
%TD*%
%TO.C,C23*%
G36*
G01*
X107055600Y-84209600D02*
X105745600Y-84209600D01*
G75*
G02*
X105475600Y-83939600I0J270000D01*
G01*
X105475600Y-83129600D01*
G75*
G02*
X105745600Y-82859600I270000J0D01*
G01*
X107055600Y-82859600D01*
G75*
G02*
X107325600Y-83129600I0J-270000D01*
G01*
X107325600Y-83939600D01*
G75*
G02*
X107055600Y-84209600I-270000J0D01*
G01*
G37*
G36*
G01*
X107055600Y-87009600D02*
X105745600Y-87009600D01*
G75*
G02*
X105475600Y-86739600I0J270000D01*
G01*
X105475600Y-85929600D01*
G75*
G02*
X105745600Y-85659600I270000J0D01*
G01*
X107055600Y-85659600D01*
G75*
G02*
X107325600Y-85929600I0J-270000D01*
G01*
X107325600Y-86739600D01*
G75*
G02*
X107055600Y-87009600I-270000J0D01*
G01*
G37*
%TD*%
D16*
%TO.C,U3*%
X104596500Y-103587500D03*
D17*
X113746500Y-106987500D03*
X113746500Y-105287500D03*
X113746500Y-103587500D03*
X113746500Y-101887500D03*
X113746500Y-100187500D03*
%TD*%
%TO.C,R21*%
G36*
G01*
X160146500Y-74642456D02*
X160146500Y-73327544D01*
G75*
G02*
X160414044Y-73060000I267544J0D01*
G01*
X161403956Y-73060000D01*
G75*
G02*
X161671500Y-73327544I0J-267544D01*
G01*
X161671500Y-74642456D01*
G75*
G02*
X161403956Y-74910000I-267544J0D01*
G01*
X160414044Y-74910000D01*
G75*
G02*
X160146500Y-74642456I0J267544D01*
G01*
G37*
G36*
G01*
X157171500Y-74642456D02*
X157171500Y-73327544D01*
G75*
G02*
X157439044Y-73060000I267544J0D01*
G01*
X158428956Y-73060000D01*
G75*
G02*
X158696500Y-73327544I0J-267544D01*
G01*
X158696500Y-74642456D01*
G75*
G02*
X158428956Y-74910000I-267544J0D01*
G01*
X157439044Y-74910000D01*
G75*
G02*
X157171500Y-74642456I0J267544D01*
G01*
G37*
%TD*%
%TO.C,C16*%
G36*
G01*
X130292000Y-95462956D02*
X130292000Y-94148044D01*
G75*
G02*
X130559544Y-93880500I267544J0D01*
G01*
X131549456Y-93880500D01*
G75*
G02*
X131817000Y-94148044I0J-267544D01*
G01*
X131817000Y-95462956D01*
G75*
G02*
X131549456Y-95730500I-267544J0D01*
G01*
X130559544Y-95730500D01*
G75*
G02*
X130292000Y-95462956I0J267544D01*
G01*
G37*
G36*
G01*
X127317000Y-95462956D02*
X127317000Y-94148044D01*
G75*
G02*
X127584544Y-93880500I267544J0D01*
G01*
X128574456Y-93880500D01*
G75*
G02*
X128842000Y-94148044I0J-267544D01*
G01*
X128842000Y-95462956D01*
G75*
G02*
X128574456Y-95730500I-267544J0D01*
G01*
X127584544Y-95730500D01*
G75*
G02*
X127317000Y-95462956I0J267544D01*
G01*
G37*
%TD*%
%TO.C,R23*%
G36*
G01*
X158610500Y-78280544D02*
X158610500Y-79595456D01*
G75*
G02*
X158342956Y-79863000I-267544J0D01*
G01*
X157353044Y-79863000D01*
G75*
G02*
X157085500Y-79595456I0J267544D01*
G01*
X157085500Y-78280544D01*
G75*
G02*
X157353044Y-78013000I267544J0D01*
G01*
X158342956Y-78013000D01*
G75*
G02*
X158610500Y-78280544I0J-267544D01*
G01*
G37*
G36*
G01*
X161585500Y-78280544D02*
X161585500Y-79595456D01*
G75*
G02*
X161317956Y-79863000I-267544J0D01*
G01*
X160328044Y-79863000D01*
G75*
G02*
X160060500Y-79595456I0J267544D01*
G01*
X160060500Y-78280544D01*
G75*
G02*
X160328044Y-78013000I267544J0D01*
G01*
X161317956Y-78013000D01*
G75*
G02*
X161585500Y-78280544I0J-267544D01*
G01*
G37*
%TD*%
D18*
%TO.C,U4*%
X136587900Y-86231300D03*
X136587900Y-90831300D03*
X136587900Y-88531300D03*
D19*
X130287900Y-88531300D03*
%TD*%
%TO.C,U2*%
G36*
G01*
X117081500Y-71836000D02*
X116731500Y-71836000D01*
G75*
G02*
X116556500Y-71661000I0J175000D01*
G01*
X116556500Y-69961000D01*
G75*
G02*
X116731500Y-69786000I175000J0D01*
G01*
X117081500Y-69786000D01*
G75*
G02*
X117256500Y-69961000I0J-175000D01*
G01*
X117256500Y-71661000D01*
G75*
G02*
X117081500Y-71836000I-175000J0D01*
G01*
G37*
G36*
G01*
X115811500Y-71836000D02*
X115461500Y-71836000D01*
G75*
G02*
X115286500Y-71661000I0J175000D01*
G01*
X115286500Y-69961000D01*
G75*
G02*
X115461500Y-69786000I175000J0D01*
G01*
X115811500Y-69786000D01*
G75*
G02*
X115986500Y-69961000I0J-175000D01*
G01*
X115986500Y-71661000D01*
G75*
G02*
X115811500Y-71836000I-175000J0D01*
G01*
G37*
G36*
G01*
X114541500Y-71836000D02*
X114191500Y-71836000D01*
G75*
G02*
X114016500Y-71661000I0J175000D01*
G01*
X114016500Y-69961000D01*
G75*
G02*
X114191500Y-69786000I175000J0D01*
G01*
X114541500Y-69786000D01*
G75*
G02*
X114716500Y-69961000I0J-175000D01*
G01*
X114716500Y-71661000D01*
G75*
G02*
X114541500Y-71836000I-175000J0D01*
G01*
G37*
G36*
G01*
X113271500Y-71836000D02*
X112921500Y-71836000D01*
G75*
G02*
X112746500Y-71661000I0J175000D01*
G01*
X112746500Y-69961000D01*
G75*
G02*
X112921500Y-69786000I175000J0D01*
G01*
X113271500Y-69786000D01*
G75*
G02*
X113446500Y-69961000I0J-175000D01*
G01*
X113446500Y-71661000D01*
G75*
G02*
X113271500Y-71836000I-175000J0D01*
G01*
G37*
G36*
G01*
X113271500Y-76786000D02*
X112921500Y-76786000D01*
G75*
G02*
X112746500Y-76611000I0J175000D01*
G01*
X112746500Y-74911000D01*
G75*
G02*
X112921500Y-74736000I175000J0D01*
G01*
X113271500Y-74736000D01*
G75*
G02*
X113446500Y-74911000I0J-175000D01*
G01*
X113446500Y-76611000D01*
G75*
G02*
X113271500Y-76786000I-175000J0D01*
G01*
G37*
G36*
G01*
X114541500Y-76786000D02*
X114191500Y-76786000D01*
G75*
G02*
X114016500Y-76611000I0J175000D01*
G01*
X114016500Y-74911000D01*
G75*
G02*
X114191500Y-74736000I175000J0D01*
G01*
X114541500Y-74736000D01*
G75*
G02*
X114716500Y-74911000I0J-175000D01*
G01*
X114716500Y-76611000D01*
G75*
G02*
X114541500Y-76786000I-175000J0D01*
G01*
G37*
G36*
G01*
X115811500Y-76786000D02*
X115461500Y-76786000D01*
G75*
G02*
X115286500Y-76611000I0J175000D01*
G01*
X115286500Y-74911000D01*
G75*
G02*
X115461500Y-74736000I175000J0D01*
G01*
X115811500Y-74736000D01*
G75*
G02*
X115986500Y-74911000I0J-175000D01*
G01*
X115986500Y-76611000D01*
G75*
G02*
X115811500Y-76786000I-175000J0D01*
G01*
G37*
G36*
G01*
X117081500Y-76786000D02*
X116731500Y-76786000D01*
G75*
G02*
X116556500Y-76611000I0J175000D01*
G01*
X116556500Y-74911000D01*
G75*
G02*
X116731500Y-74736000I175000J0D01*
G01*
X117081500Y-74736000D01*
G75*
G02*
X117256500Y-74911000I0J-175000D01*
G01*
X117256500Y-76611000D01*
G75*
G02*
X117081500Y-76786000I-175000J0D01*
G01*
G37*
%TD*%
%TO.C,R17*%
G36*
G01*
X169598500Y-74261456D02*
X169598500Y-72946544D01*
G75*
G02*
X169866044Y-72679000I267544J0D01*
G01*
X170855956Y-72679000D01*
G75*
G02*
X171123500Y-72946544I0J-267544D01*
G01*
X171123500Y-74261456D01*
G75*
G02*
X170855956Y-74529000I-267544J0D01*
G01*
X169866044Y-74529000D01*
G75*
G02*
X169598500Y-74261456I0J267544D01*
G01*
G37*
G36*
G01*
X166623500Y-74261456D02*
X166623500Y-72946544D01*
G75*
G02*
X166891044Y-72679000I267544J0D01*
G01*
X167880956Y-72679000D01*
G75*
G02*
X168148500Y-72946544I0J-267544D01*
G01*
X168148500Y-74261456D01*
G75*
G02*
X167880956Y-74529000I-267544J0D01*
G01*
X166891044Y-74529000D01*
G75*
G02*
X166623500Y-74261456I0J267544D01*
G01*
G37*
%TD*%
%TO.C,R13*%
G36*
G01*
X177352500Y-78534544D02*
X177352500Y-79849456D01*
G75*
G02*
X177084956Y-80117000I-267544J0D01*
G01*
X176095044Y-80117000D01*
G75*
G02*
X175827500Y-79849456I0J267544D01*
G01*
X175827500Y-78534544D01*
G75*
G02*
X176095044Y-78267000I267544J0D01*
G01*
X177084956Y-78267000D01*
G75*
G02*
X177352500Y-78534544I0J-267544D01*
G01*
G37*
G36*
G01*
X180327500Y-78534544D02*
X180327500Y-79849456D01*
G75*
G02*
X180059956Y-80117000I-267544J0D01*
G01*
X179070044Y-80117000D01*
G75*
G02*
X178802500Y-79849456I0J267544D01*
G01*
X178802500Y-78534544D01*
G75*
G02*
X179070044Y-78267000I267544J0D01*
G01*
X180059956Y-78267000D01*
G75*
G02*
X180327500Y-78534544I0J-267544D01*
G01*
G37*
%TD*%
%TO.C,R8*%
G36*
G01*
X180698544Y-71046500D02*
X182013456Y-71046500D01*
G75*
G02*
X182281000Y-71314044I0J-267544D01*
G01*
X182281000Y-72303956D01*
G75*
G02*
X182013456Y-72571500I-267544J0D01*
G01*
X180698544Y-72571500D01*
G75*
G02*
X180431000Y-72303956I0J267544D01*
G01*
X180431000Y-71314044D01*
G75*
G02*
X180698544Y-71046500I267544J0D01*
G01*
G37*
G36*
G01*
X180698544Y-68071500D02*
X182013456Y-68071500D01*
G75*
G02*
X182281000Y-68339044I0J-267544D01*
G01*
X182281000Y-69328956D01*
G75*
G02*
X182013456Y-69596500I-267544J0D01*
G01*
X180698544Y-69596500D01*
G75*
G02*
X180431000Y-69328956I0J267544D01*
G01*
X180431000Y-68339044D01*
G75*
G02*
X180698544Y-68071500I267544J0D01*
G01*
G37*
%TD*%
%TO.C,R14*%
G36*
G01*
X143968000Y-81119456D02*
X143968000Y-79804544D01*
G75*
G02*
X144235544Y-79537000I267544J0D01*
G01*
X145225456Y-79537000D01*
G75*
G02*
X145493000Y-79804544I0J-267544D01*
G01*
X145493000Y-81119456D01*
G75*
G02*
X145225456Y-81387000I-267544J0D01*
G01*
X144235544Y-81387000D01*
G75*
G02*
X143968000Y-81119456I0J267544D01*
G01*
G37*
G36*
G01*
X140993000Y-81119456D02*
X140993000Y-79804544D01*
G75*
G02*
X141260544Y-79537000I267544J0D01*
G01*
X142250456Y-79537000D01*
G75*
G02*
X142518000Y-79804544I0J-267544D01*
G01*
X142518000Y-81119456D01*
G75*
G02*
X142250456Y-81387000I-267544J0D01*
G01*
X141260544Y-81387000D01*
G75*
G02*
X140993000Y-81119456I0J267544D01*
G01*
G37*
%TD*%
%TO.C,R12*%
G36*
G01*
X178802500Y-77309456D02*
X178802500Y-75994544D01*
G75*
G02*
X179070044Y-75727000I267544J0D01*
G01*
X180059956Y-75727000D01*
G75*
G02*
X180327500Y-75994544I0J-267544D01*
G01*
X180327500Y-77309456D01*
G75*
G02*
X180059956Y-77577000I-267544J0D01*
G01*
X179070044Y-77577000D01*
G75*
G02*
X178802500Y-77309456I0J267544D01*
G01*
G37*
G36*
G01*
X175827500Y-77309456D02*
X175827500Y-75994544D01*
G75*
G02*
X176095044Y-75727000I267544J0D01*
G01*
X177084956Y-75727000D01*
G75*
G02*
X177352500Y-75994544I0J-267544D01*
G01*
X177352500Y-77309456D01*
G75*
G02*
X177084956Y-77577000I-267544J0D01*
G01*
X176095044Y-77577000D01*
G75*
G02*
X175827500Y-77309456I0J267544D01*
G01*
G37*
%TD*%
%TO.C,R16*%
G36*
G01*
X172062544Y-70865500D02*
X173377456Y-70865500D01*
G75*
G02*
X173645000Y-71133044I0J-267544D01*
G01*
X173645000Y-72122956D01*
G75*
G02*
X173377456Y-72390500I-267544J0D01*
G01*
X172062544Y-72390500D01*
G75*
G02*
X171795000Y-72122956I0J267544D01*
G01*
X171795000Y-71133044D01*
G75*
G02*
X172062544Y-70865500I267544J0D01*
G01*
G37*
G36*
G01*
X172062544Y-67890500D02*
X173377456Y-67890500D01*
G75*
G02*
X173645000Y-68158044I0J-267544D01*
G01*
X173645000Y-69147956D01*
G75*
G02*
X173377456Y-69415500I-267544J0D01*
G01*
X172062544Y-69415500D01*
G75*
G02*
X171795000Y-69147956I0J267544D01*
G01*
X171795000Y-68158044D01*
G75*
G02*
X172062544Y-67890500I267544J0D01*
G01*
G37*
%TD*%
%TO.C,R11*%
G36*
G01*
X143968000Y-78579456D02*
X143968000Y-77264544D01*
G75*
G02*
X144235544Y-76997000I267544J0D01*
G01*
X145225456Y-76997000D01*
G75*
G02*
X145493000Y-77264544I0J-267544D01*
G01*
X145493000Y-78579456D01*
G75*
G02*
X145225456Y-78847000I-267544J0D01*
G01*
X144235544Y-78847000D01*
G75*
G02*
X143968000Y-78579456I0J267544D01*
G01*
G37*
G36*
G01*
X140993000Y-78579456D02*
X140993000Y-77264544D01*
G75*
G02*
X141260544Y-76997000I267544J0D01*
G01*
X142250456Y-76997000D01*
G75*
G02*
X142518000Y-77264544I0J-267544D01*
G01*
X142518000Y-78579456D01*
G75*
G02*
X142250456Y-78847000I-267544J0D01*
G01*
X141260544Y-78847000D01*
G75*
G02*
X140993000Y-78579456I0J267544D01*
G01*
G37*
%TD*%
%TO.C,R19*%
G36*
G01*
X168208500Y-77899544D02*
X168208500Y-79214456D01*
G75*
G02*
X167940956Y-79482000I-267544J0D01*
G01*
X166951044Y-79482000D01*
G75*
G02*
X166683500Y-79214456I0J267544D01*
G01*
X166683500Y-77899544D01*
G75*
G02*
X166951044Y-77632000I267544J0D01*
G01*
X167940956Y-77632000D01*
G75*
G02*
X168208500Y-77899544I0J-267544D01*
G01*
G37*
G36*
G01*
X171183500Y-77899544D02*
X171183500Y-79214456D01*
G75*
G02*
X170915956Y-79482000I-267544J0D01*
G01*
X169926044Y-79482000D01*
G75*
G02*
X169658500Y-79214456I0J267544D01*
G01*
X169658500Y-77899544D01*
G75*
G02*
X169926044Y-77632000I267544J0D01*
G01*
X170915956Y-77632000D01*
G75*
G02*
X171183500Y-77899544I0J-267544D01*
G01*
G37*
%TD*%
%TO.C,R10*%
G36*
G01*
X144376544Y-72316500D02*
X145691456Y-72316500D01*
G75*
G02*
X145959000Y-72584044I0J-267544D01*
G01*
X145959000Y-73573956D01*
G75*
G02*
X145691456Y-73841500I-267544J0D01*
G01*
X144376544Y-73841500D01*
G75*
G02*
X144109000Y-73573956I0J267544D01*
G01*
X144109000Y-72584044D01*
G75*
G02*
X144376544Y-72316500I267544J0D01*
G01*
G37*
G36*
G01*
X144376544Y-69341500D02*
X145691456Y-69341500D01*
G75*
G02*
X145959000Y-69609044I0J-267544D01*
G01*
X145959000Y-70598956D01*
G75*
G02*
X145691456Y-70866500I-267544J0D01*
G01*
X144376544Y-70866500D01*
G75*
G02*
X144109000Y-70598956I0J267544D01*
G01*
X144109000Y-69609044D01*
G75*
G02*
X144376544Y-69341500I267544J0D01*
G01*
G37*
%TD*%
%TO.C,R15*%
G36*
G01*
X142300500Y-82344544D02*
X142300500Y-83659456D01*
G75*
G02*
X142032956Y-83927000I-267544J0D01*
G01*
X141043044Y-83927000D01*
G75*
G02*
X140775500Y-83659456I0J267544D01*
G01*
X140775500Y-82344544D01*
G75*
G02*
X141043044Y-82077000I267544J0D01*
G01*
X142032956Y-82077000D01*
G75*
G02*
X142300500Y-82344544I0J-267544D01*
G01*
G37*
G36*
G01*
X145275500Y-82344544D02*
X145275500Y-83659456D01*
G75*
G02*
X145007956Y-83927000I-267544J0D01*
G01*
X144018044Y-83927000D01*
G75*
G02*
X143750500Y-83659456I0J267544D01*
G01*
X143750500Y-82344544D01*
G75*
G02*
X144018044Y-82077000I267544J0D01*
G01*
X145007956Y-82077000D01*
G75*
G02*
X145275500Y-82344544I0J-267544D01*
G01*
G37*
%TD*%
%TO.C,R6*%
G36*
G01*
X150916500Y-76801456D02*
X150916500Y-75486544D01*
G75*
G02*
X151184044Y-75219000I267544J0D01*
G01*
X152173956Y-75219000D01*
G75*
G02*
X152441500Y-75486544I0J-267544D01*
G01*
X152441500Y-76801456D01*
G75*
G02*
X152173956Y-77069000I-267544J0D01*
G01*
X151184044Y-77069000D01*
G75*
G02*
X150916500Y-76801456I0J267544D01*
G01*
G37*
G36*
G01*
X147941500Y-76801456D02*
X147941500Y-75486544D01*
G75*
G02*
X148209044Y-75219000I267544J0D01*
G01*
X149198956Y-75219000D01*
G75*
G02*
X149466500Y-75486544I0J-267544D01*
G01*
X149466500Y-76801456D01*
G75*
G02*
X149198956Y-77069000I-267544J0D01*
G01*
X148209044Y-77069000D01*
G75*
G02*
X147941500Y-76801456I0J267544D01*
G01*
G37*
%TD*%
%TO.C,R5*%
G36*
G01*
X150916500Y-74261456D02*
X150916500Y-72946544D01*
G75*
G02*
X151184044Y-72679000I267544J0D01*
G01*
X152173956Y-72679000D01*
G75*
G02*
X152441500Y-72946544I0J-267544D01*
G01*
X152441500Y-74261456D01*
G75*
G02*
X152173956Y-74529000I-267544J0D01*
G01*
X151184044Y-74529000D01*
G75*
G02*
X150916500Y-74261456I0J267544D01*
G01*
G37*
G36*
G01*
X147941500Y-74261456D02*
X147941500Y-72946544D01*
G75*
G02*
X148209044Y-72679000I267544J0D01*
G01*
X149198956Y-72679000D01*
G75*
G02*
X149466500Y-72946544I0J-267544D01*
G01*
X149466500Y-74261456D01*
G75*
G02*
X149198956Y-74529000I-267544J0D01*
G01*
X148209044Y-74529000D01*
G75*
G02*
X147941500Y-74261456I0J267544D01*
G01*
G37*
%TD*%
%TO.C,R7*%
G36*
G01*
X149466500Y-78026544D02*
X149466500Y-79341456D01*
G75*
G02*
X149198956Y-79609000I-267544J0D01*
G01*
X148209044Y-79609000D01*
G75*
G02*
X147941500Y-79341456I0J267544D01*
G01*
X147941500Y-78026544D01*
G75*
G02*
X148209044Y-77759000I267544J0D01*
G01*
X149198956Y-77759000D01*
G75*
G02*
X149466500Y-78026544I0J-267544D01*
G01*
G37*
G36*
G01*
X152441500Y-78026544D02*
X152441500Y-79341456D01*
G75*
G02*
X152173956Y-79609000I-267544J0D01*
G01*
X151184044Y-79609000D01*
G75*
G02*
X150916500Y-79341456I0J267544D01*
G01*
X150916500Y-78026544D01*
G75*
G02*
X151184044Y-77759000I267544J0D01*
G01*
X152173956Y-77759000D01*
G75*
G02*
X152441500Y-78026544I0J-267544D01*
G01*
G37*
%TD*%
%TO.C,R18*%
G36*
G01*
X169585500Y-76674456D02*
X169585500Y-75359544D01*
G75*
G02*
X169853044Y-75092000I267544J0D01*
G01*
X170842956Y-75092000D01*
G75*
G02*
X171110500Y-75359544I0J-267544D01*
G01*
X171110500Y-76674456D01*
G75*
G02*
X170842956Y-76942000I-267544J0D01*
G01*
X169853044Y-76942000D01*
G75*
G02*
X169585500Y-76674456I0J267544D01*
G01*
G37*
G36*
G01*
X166610500Y-76674456D02*
X166610500Y-75359544D01*
G75*
G02*
X166878044Y-75092000I267544J0D01*
G01*
X167867956Y-75092000D01*
G75*
G02*
X168135500Y-75359544I0J-267544D01*
G01*
X168135500Y-76674456D01*
G75*
G02*
X167867956Y-76942000I-267544J0D01*
G01*
X166878044Y-76942000D01*
G75*
G02*
X166610500Y-76674456I0J267544D01*
G01*
G37*
%TD*%
%TO.C,R22*%
G36*
G01*
X160133500Y-77055456D02*
X160133500Y-75740544D01*
G75*
G02*
X160401044Y-75473000I267544J0D01*
G01*
X161390956Y-75473000D01*
G75*
G02*
X161658500Y-75740544I0J-267544D01*
G01*
X161658500Y-77055456D01*
G75*
G02*
X161390956Y-77323000I-267544J0D01*
G01*
X160401044Y-77323000D01*
G75*
G02*
X160133500Y-77055456I0J267544D01*
G01*
G37*
G36*
G01*
X157158500Y-77055456D02*
X157158500Y-75740544D01*
G75*
G02*
X157426044Y-75473000I267544J0D01*
G01*
X158415956Y-75473000D01*
G75*
G02*
X158683500Y-75740544I0J-267544D01*
G01*
X158683500Y-77055456D01*
G75*
G02*
X158415956Y-77323000I-267544J0D01*
G01*
X157426044Y-77323000D01*
G75*
G02*
X157158500Y-77055456I0J267544D01*
G01*
G37*
%TD*%
%TO.C,R9*%
G36*
G01*
X178802500Y-74896456D02*
X178802500Y-73581544D01*
G75*
G02*
X179070044Y-73314000I267544J0D01*
G01*
X180059956Y-73314000D01*
G75*
G02*
X180327500Y-73581544I0J-267544D01*
G01*
X180327500Y-74896456D01*
G75*
G02*
X180059956Y-75164000I-267544J0D01*
G01*
X179070044Y-75164000D01*
G75*
G02*
X178802500Y-74896456I0J267544D01*
G01*
G37*
G36*
G01*
X175827500Y-74896456D02*
X175827500Y-73581544D01*
G75*
G02*
X176095044Y-73314000I267544J0D01*
G01*
X177084956Y-73314000D01*
G75*
G02*
X177352500Y-73581544I0J-267544D01*
G01*
X177352500Y-74896456D01*
G75*
G02*
X177084956Y-75164000I-267544J0D01*
G01*
X176095044Y-75164000D01*
G75*
G02*
X175827500Y-74896456I0J267544D01*
G01*
G37*
%TD*%
%TO.C,R20*%
G36*
G01*
X162537544Y-71246500D02*
X163852456Y-71246500D01*
G75*
G02*
X164120000Y-71514044I0J-267544D01*
G01*
X164120000Y-72503956D01*
G75*
G02*
X163852456Y-72771500I-267544J0D01*
G01*
X162537544Y-72771500D01*
G75*
G02*
X162270000Y-72503956I0J267544D01*
G01*
X162270000Y-71514044D01*
G75*
G02*
X162537544Y-71246500I267544J0D01*
G01*
G37*
G36*
G01*
X162537544Y-68271500D02*
X163852456Y-68271500D01*
G75*
G02*
X164120000Y-68539044I0J-267544D01*
G01*
X164120000Y-69528956D01*
G75*
G02*
X163852456Y-69796500I-267544J0D01*
G01*
X162537544Y-69796500D01*
G75*
G02*
X162270000Y-69528956I0J267544D01*
G01*
X162270000Y-68539044D01*
G75*
G02*
X162537544Y-68271500I267544J0D01*
G01*
G37*
%TD*%
D20*
%TO.C,U6*%
X178938000Y-70485000D03*
X178938000Y-69185000D03*
X177038000Y-69835000D03*
X177038000Y-69185000D03*
X177038000Y-70485000D03*
%TD*%
%TO.C,U5*%
X151826000Y-70627000D03*
X151826000Y-69327000D03*
X149926000Y-69977000D03*
X149926000Y-69327000D03*
X149926000Y-70627000D03*
%TD*%
D21*
%TO.C,D7*%
X143669000Y-64958000D03*
X145669000Y-65908000D03*
X145669000Y-64008000D03*
%TD*%
%TO.C,D6*%
X176899000Y-65804000D03*
X178899000Y-66754000D03*
X178899000Y-64854000D03*
%TD*%
D15*
%TO.C,H3*%
X93900000Y-57070000D03*
%TD*%
%TO.C,H2*%
X184150000Y-57023000D03*
%TD*%
%TO.C,H1*%
X184023000Y-109855000D03*
%TD*%
D21*
%TO.C,D9*%
X158099000Y-66360000D03*
X160099000Y-67310000D03*
X160099000Y-65410000D03*
%TD*%
%TO.C,D8*%
X168149000Y-66054000D03*
X170149000Y-67004000D03*
X170149000Y-65104000D03*
%TD*%
D20*
%TO.C,U9*%
X160589000Y-70754000D03*
X160589000Y-69454000D03*
X158689000Y-70104000D03*
X158689000Y-69454000D03*
X158689000Y-70754000D03*
%TD*%
D10*
%TO.C,JP1*%
X138049000Y-101854000D03*
D11*
X138049000Y-99314000D03*
%TD*%
D20*
%TO.C,U8*%
X170495000Y-71008000D03*
X170495000Y-69708000D03*
X168595000Y-70358000D03*
X168595000Y-69708000D03*
X168595000Y-71008000D03*
%TD*%
%TO.C,U7*%
X143124000Y-72166000D03*
X143124000Y-70866000D03*
X141224000Y-71516000D03*
X141224000Y-70866000D03*
X141224000Y-72166000D03*
%TD*%
D22*
%TO.C,D3*%
X109419500Y-94678500D03*
X113719500Y-94678500D03*
%TD*%
%TO.C,D2*%
X113837500Y-89598500D03*
X109537500Y-89598500D03*
%TD*%
%TO.C,C22*%
G36*
G01*
X158647000Y-80820544D02*
X158647000Y-82135456D01*
G75*
G02*
X158379456Y-82403000I-267544J0D01*
G01*
X157389544Y-82403000D01*
G75*
G02*
X157122000Y-82135456I0J267544D01*
G01*
X157122000Y-80820544D01*
G75*
G02*
X157389544Y-80553000I267544J0D01*
G01*
X158379456Y-80553000D01*
G75*
G02*
X158647000Y-80820544I0J-267544D01*
G01*
G37*
G36*
G01*
X161622000Y-80820544D02*
X161622000Y-82135456D01*
G75*
G02*
X161354456Y-82403000I-267544J0D01*
G01*
X160364544Y-82403000D01*
G75*
G02*
X160097000Y-82135456I0J267544D01*
G01*
X160097000Y-80820544D01*
G75*
G02*
X160364544Y-80553000I267544J0D01*
G01*
X161354456Y-80553000D01*
G75*
G02*
X161622000Y-80820544I0J-267544D01*
G01*
G37*
%TD*%
%TO.C,C21*%
G36*
G01*
X168208500Y-80439544D02*
X168208500Y-81754456D01*
G75*
G02*
X167940956Y-82022000I-267544J0D01*
G01*
X166951044Y-82022000D01*
G75*
G02*
X166683500Y-81754456I0J267544D01*
G01*
X166683500Y-80439544D01*
G75*
G02*
X166951044Y-80172000I267544J0D01*
G01*
X167940956Y-80172000D01*
G75*
G02*
X168208500Y-80439544I0J-267544D01*
G01*
G37*
G36*
G01*
X171183500Y-80439544D02*
X171183500Y-81754456D01*
G75*
G02*
X170915956Y-82022000I-267544J0D01*
G01*
X169926044Y-82022000D01*
G75*
G02*
X169658500Y-81754456I0J267544D01*
G01*
X169658500Y-80439544D01*
G75*
G02*
X169926044Y-80172000I267544J0D01*
G01*
X170915956Y-80172000D01*
G75*
G02*
X171183500Y-80439544I0J-267544D01*
G01*
G37*
%TD*%
%TO.C,C20*%
G36*
G01*
X142300500Y-84884544D02*
X142300500Y-86199456D01*
G75*
G02*
X142032956Y-86467000I-267544J0D01*
G01*
X141043044Y-86467000D01*
G75*
G02*
X140775500Y-86199456I0J267544D01*
G01*
X140775500Y-84884544D01*
G75*
G02*
X141043044Y-84617000I267544J0D01*
G01*
X142032956Y-84617000D01*
G75*
G02*
X142300500Y-84884544I0J-267544D01*
G01*
G37*
G36*
G01*
X145275500Y-84884544D02*
X145275500Y-86199456D01*
G75*
G02*
X145007956Y-86467000I-267544J0D01*
G01*
X144018044Y-86467000D01*
G75*
G02*
X143750500Y-86199456I0J267544D01*
G01*
X143750500Y-84884544D01*
G75*
G02*
X144018044Y-84617000I267544J0D01*
G01*
X145007956Y-84617000D01*
G75*
G02*
X145275500Y-84884544I0J-267544D01*
G01*
G37*
%TD*%
%TO.C,D4*%
X134484000Y-99060000D03*
X130184000Y-99060000D03*
%TD*%
%TO.C,R3*%
G36*
G01*
X113583000Y-63105544D02*
X113583000Y-64420456D01*
G75*
G02*
X113315456Y-64688000I-267544J0D01*
G01*
X112325544Y-64688000D01*
G75*
G02*
X112058000Y-64420456I0J267544D01*
G01*
X112058000Y-63105544D01*
G75*
G02*
X112325544Y-62838000I267544J0D01*
G01*
X113315456Y-62838000D01*
G75*
G02*
X113583000Y-63105544I0J-267544D01*
G01*
G37*
G36*
G01*
X116558000Y-63105544D02*
X116558000Y-64420456D01*
G75*
G02*
X116290456Y-64688000I-267544J0D01*
G01*
X115300544Y-64688000D01*
G75*
G02*
X115033000Y-64420456I0J267544D01*
G01*
X115033000Y-63105544D01*
G75*
G02*
X115300544Y-62838000I267544J0D01*
G01*
X116290456Y-62838000D01*
G75*
G02*
X116558000Y-63105544I0J-267544D01*
G01*
G37*
%TD*%
%TO.C,R4*%
G36*
G01*
X153266544Y-71119500D02*
X154581456Y-71119500D01*
G75*
G02*
X154849000Y-71387044I0J-267544D01*
G01*
X154849000Y-72376956D01*
G75*
G02*
X154581456Y-72644500I-267544J0D01*
G01*
X153266544Y-72644500D01*
G75*
G02*
X152999000Y-72376956I0J267544D01*
G01*
X152999000Y-71387044D01*
G75*
G02*
X153266544Y-71119500I267544J0D01*
G01*
G37*
G36*
G01*
X153266544Y-68144500D02*
X154581456Y-68144500D01*
G75*
G02*
X154849000Y-68412044I0J-267544D01*
G01*
X154849000Y-69401956D01*
G75*
G02*
X154581456Y-69669500I-267544J0D01*
G01*
X153266544Y-69669500D01*
G75*
G02*
X152999000Y-69401956I0J267544D01*
G01*
X152999000Y-68412044D01*
G75*
G02*
X153266544Y-68144500I267544J0D01*
G01*
G37*
%TD*%
%TO.C,C19*%
G36*
G01*
X177352500Y-81074544D02*
X177352500Y-82389456D01*
G75*
G02*
X177084956Y-82657000I-267544J0D01*
G01*
X176095044Y-82657000D01*
G75*
G02*
X175827500Y-82389456I0J267544D01*
G01*
X175827500Y-81074544D01*
G75*
G02*
X176095044Y-80807000I267544J0D01*
G01*
X177084956Y-80807000D01*
G75*
G02*
X177352500Y-81074544I0J-267544D01*
G01*
G37*
G36*
G01*
X180327500Y-81074544D02*
X180327500Y-82389456D01*
G75*
G02*
X180059956Y-82657000I-267544J0D01*
G01*
X179070044Y-82657000D01*
G75*
G02*
X178802500Y-82389456I0J267544D01*
G01*
X178802500Y-81074544D01*
G75*
G02*
X179070044Y-80807000I267544J0D01*
G01*
X180059956Y-80807000D01*
G75*
G02*
X180327500Y-81074544I0J-267544D01*
G01*
G37*
%TD*%
%TO.C,C12*%
G36*
G01*
X115306000Y-79778456D02*
X115306000Y-78463544D01*
G75*
G02*
X115573544Y-78196000I267544J0D01*
G01*
X116563456Y-78196000D01*
G75*
G02*
X116831000Y-78463544I0J-267544D01*
G01*
X116831000Y-79778456D01*
G75*
G02*
X116563456Y-80046000I-267544J0D01*
G01*
X115573544Y-80046000D01*
G75*
G02*
X115306000Y-79778456I0J267544D01*
G01*
G37*
G36*
G01*
X112331000Y-79778456D02*
X112331000Y-78463544D01*
G75*
G02*
X112598544Y-78196000I267544J0D01*
G01*
X113588456Y-78196000D01*
G75*
G02*
X113856000Y-78463544I0J-267544D01*
G01*
X113856000Y-79778456D01*
G75*
G02*
X113588456Y-80046000I-267544J0D01*
G01*
X112598544Y-80046000D01*
G75*
G02*
X112331000Y-79778456I0J267544D01*
G01*
G37*
%TD*%
%TO.C,C14*%
G36*
G01*
X120132000Y-100669956D02*
X120132000Y-99355044D01*
G75*
G02*
X120399544Y-99087500I267544J0D01*
G01*
X121389456Y-99087500D01*
G75*
G02*
X121657000Y-99355044I0J-267544D01*
G01*
X121657000Y-100669956D01*
G75*
G02*
X121389456Y-100937500I-267544J0D01*
G01*
X120399544Y-100937500D01*
G75*
G02*
X120132000Y-100669956I0J267544D01*
G01*
G37*
G36*
G01*
X117157000Y-100669956D02*
X117157000Y-99355044D01*
G75*
G02*
X117424544Y-99087500I267544J0D01*
G01*
X118414456Y-99087500D01*
G75*
G02*
X118682000Y-99355044I0J-267544D01*
G01*
X118682000Y-100669956D01*
G75*
G02*
X118414456Y-100937500I-267544J0D01*
G01*
X117424544Y-100937500D01*
G75*
G02*
X117157000Y-100669956I0J267544D01*
G01*
G37*
%TD*%
%TO.C,C13*%
G36*
G01*
X121499500Y-90688500D02*
X119419500Y-90688500D01*
G75*
G02*
X119159500Y-90428500I0J260000D01*
G01*
X119159500Y-86448500D01*
G75*
G02*
X119419500Y-86188500I260000J0D01*
G01*
X121499500Y-86188500D01*
G75*
G02*
X121759500Y-86448500I0J-260000D01*
G01*
X121759500Y-90428500D01*
G75*
G02*
X121499500Y-90688500I-260000J0D01*
G01*
G37*
G36*
G01*
X121499500Y-98088500D02*
X119419500Y-98088500D01*
G75*
G02*
X119159500Y-97828500I0J260000D01*
G01*
X119159500Y-93848500D01*
G75*
G02*
X119419500Y-93588500I260000J0D01*
G01*
X121499500Y-93588500D01*
G75*
G02*
X121759500Y-93848500I0J-260000D01*
G01*
X121759500Y-97828500D01*
G75*
G02*
X121499500Y-98088500I-260000J0D01*
G01*
G37*
%TD*%
%TO.C,C18*%
G36*
G01*
X149466500Y-80566544D02*
X149466500Y-81881456D01*
G75*
G02*
X149198956Y-82149000I-267544J0D01*
G01*
X148209044Y-82149000D01*
G75*
G02*
X147941500Y-81881456I0J267544D01*
G01*
X147941500Y-80566544D01*
G75*
G02*
X148209044Y-80299000I267544J0D01*
G01*
X149198956Y-80299000D01*
G75*
G02*
X149466500Y-80566544I0J-267544D01*
G01*
G37*
G36*
G01*
X152441500Y-80566544D02*
X152441500Y-81881456D01*
G75*
G02*
X152173956Y-82149000I-267544J0D01*
G01*
X151184044Y-82149000D01*
G75*
G02*
X150916500Y-81881456I0J267544D01*
G01*
X150916500Y-80566544D01*
G75*
G02*
X151184044Y-80299000I267544J0D01*
G01*
X152173956Y-80299000D01*
G75*
G02*
X152441500Y-80566544I0J-267544D01*
G01*
G37*
%TD*%
%TO.C,C17*%
G36*
G01*
X136231500Y-106690500D02*
X134151500Y-106690500D01*
G75*
G02*
X133891500Y-106430500I0J260000D01*
G01*
X133891500Y-102450500D01*
G75*
G02*
X134151500Y-102190500I260000J0D01*
G01*
X136231500Y-102190500D01*
G75*
G02*
X136491500Y-102450500I0J-260000D01*
G01*
X136491500Y-106430500D01*
G75*
G02*
X136231500Y-106690500I-260000J0D01*
G01*
G37*
G36*
G01*
X136231500Y-114090500D02*
X134151500Y-114090500D01*
G75*
G02*
X133891500Y-113830500I0J260000D01*
G01*
X133891500Y-109850500D01*
G75*
G02*
X134151500Y-109590500I260000J0D01*
G01*
X136231500Y-109590500D01*
G75*
G02*
X136491500Y-109850500I0J-260000D01*
G01*
X136491500Y-113830500D01*
G75*
G02*
X136231500Y-114090500I-260000J0D01*
G01*
G37*
%TD*%
%TO.C,C15*%
G36*
G01*
X133958500Y-94148044D02*
X133958500Y-95462956D01*
G75*
G02*
X133690956Y-95730500I-267544J0D01*
G01*
X132701044Y-95730500D01*
G75*
G02*
X132433500Y-95462956I0J267544D01*
G01*
X132433500Y-94148044D01*
G75*
G02*
X132701044Y-93880500I267544J0D01*
G01*
X133690956Y-93880500D01*
G75*
G02*
X133958500Y-94148044I0J-267544D01*
G01*
G37*
G36*
G01*
X136933500Y-94148044D02*
X136933500Y-95462956D01*
G75*
G02*
X136665956Y-95730500I-267544J0D01*
G01*
X135676044Y-95730500D01*
G75*
G02*
X135408500Y-95462956I0J267544D01*
G01*
X135408500Y-94148044D01*
G75*
G02*
X135676044Y-93880500I267544J0D01*
G01*
X136665956Y-93880500D01*
G75*
G02*
X136933500Y-94148044I0J-267544D01*
G01*
G37*
%TD*%
D21*
%TO.C,D5*%
X149049000Y-65847000D03*
X151049000Y-66797000D03*
X151049000Y-64897000D03*
%TD*%
%TO.C,F1*%
G36*
G01*
X97054905Y-95212000D02*
X102081095Y-95212000D01*
G75*
G02*
X102343000Y-95473905I0J-261905D01*
G01*
X102343000Y-97150095D01*
G75*
G02*
X102081095Y-97412000I-261905J0D01*
G01*
X97054905Y-97412000D01*
G75*
G02*
X96793000Y-97150095I0J261905D01*
G01*
X96793000Y-95473905D01*
G75*
G02*
X97054905Y-95212000I261905J0D01*
G01*
G37*
G36*
G01*
X97054905Y-88262000D02*
X102081095Y-88262000D01*
G75*
G02*
X102343000Y-88523905I0J-261905D01*
G01*
X102343000Y-90200095D01*
G75*
G02*
X102081095Y-90462000I-261905J0D01*
G01*
X97054905Y-90462000D01*
G75*
G02*
X96793000Y-90200095I0J261905D01*
G01*
X96793000Y-88523905D01*
G75*
G02*
X97054905Y-88262000I261905J0D01*
G01*
G37*
%TD*%
D10*
%TO.C,JP2*%
X104952800Y-54889400D03*
D11*
X102412800Y-54889400D03*
%TD*%
%TO.C,F2*%
G36*
G01*
X105862500Y-63790595D02*
X105862500Y-58764405D01*
G75*
G02*
X106124405Y-58502500I261905J0D01*
G01*
X107800595Y-58502500D01*
G75*
G02*
X108062500Y-58764405I0J-261905D01*
G01*
X108062500Y-63790595D01*
G75*
G02*
X107800595Y-64052500I-261905J0D01*
G01*
X106124405Y-64052500D01*
G75*
G02*
X105862500Y-63790595I0J261905D01*
G01*
G37*
G36*
G01*
X98912500Y-63790595D02*
X98912500Y-58764405D01*
G75*
G02*
X99174405Y-58502500I261905J0D01*
G01*
X100850595Y-58502500D01*
G75*
G02*
X101112500Y-58764405I0J-261905D01*
G01*
X101112500Y-63790595D01*
G75*
G02*
X100850595Y-64052500I-261905J0D01*
G01*
X99174405Y-64052500D01*
G75*
G02*
X98912500Y-63790595I0J261905D01*
G01*
G37*
%TD*%
D23*
%TO.C,L2*%
X123571000Y-103254000D03*
X123571000Y-113154000D03*
%TD*%
D24*
%TO.C,D1*%
X113920500Y-66363000D03*
X112970500Y-68363000D03*
X114870500Y-68363000D03*
%TD*%
M02*
